<svg width="44" height="44" viewBox="0 0 44 44" fill="none" xmlns="http://www.w3.org/2000/svg">
<rect width="44" height="44" rx="8" fill="#8247FF"/>
<path fill-rule="evenodd" clip-rule="evenodd" d="M14.528 11.3434C16.4752 11.5529 19.0514 12.0956 21 13.2597V26.9139C19.0514 25.7498 16.4752 25.2072 14.528 24.9976C13.5033 24.8874 12.6667 24.0721 12.6667 23.0666V13.0535C12.6667 12.048 13.5033 11.2331 14.528 11.3434ZM29.472 24.9976C27.5248 25.2072 24.9486 25.7498 23 26.9139V13.2597C24.9486 12.0956 27.5248 11.5529 29.472 11.3434C30.4967 11.2331 31.3333 12.048 31.3333 13.0535V23.0666C31.3333 24.0721 30.4967 24.8874 29.472 24.9976ZM8.66667 20.6665C8.66667 19.186 9.47107 17.8933 10.6667 17.2016V23.0666C10.6667 25.2501 12.4368 26.7841 14.314 26.9861C16.2816 27.1978 18.6749 27.7536 20.2522 28.8062C21.3053 29.509 22.6947 29.509 23.7478 28.8062C25.3251 27.7536 27.7184 27.1978 29.686 26.9861C31.5632 26.7841 33.3333 25.2501 33.3333 23.0666V17.2016C34.5289 17.8933 35.3333 19.186 35.3333 20.6665V28.6665C35.3333 30.8757 33.5425 32.6665 31.3333 32.6665H12.6667C10.4575 32.6665 8.66667 30.8757 8.66667 28.6665V20.6665Z" fill="white"/>
</svg>
