<svg width="161" height="44" viewBox="0 0 161 44" fill="none" xmlns="http://www.w3.org/2000/svg">
<rect width="44" height="44" rx="8" fill="#8247FF"/>
<path fill-rule="evenodd" clip-rule="evenodd" d="M14.528 11.3434C16.4752 11.5529 19.0514 12.0956 21 13.2597V26.9139C19.0514 25.7498 16.4752 25.2072 14.528 24.9976C13.5033 24.8874 12.6667 24.0721 12.6667 23.0666V13.0535C12.6667 12.048 13.5033 11.2331 14.528 11.3434ZM29.472 24.9976C27.5248 25.2072 24.9486 25.7498 23 26.9139V13.2597C24.9486 12.0956 27.5248 11.5529 29.472 11.3434C30.4967 11.2331 31.3333 12.048 31.3333 13.0535V23.0666C31.3333 24.0721 30.4967 24.8874 29.472 24.9976ZM8.66667 20.6665C8.66667 19.186 9.47107 17.8933 10.6667 17.2016V23.0666C10.6667 25.2501 12.4368 26.7841 14.314 26.9861C16.2816 27.1978 18.6749 27.7536 20.2522 28.8062C21.3053 29.509 22.6947 29.509 23.7478 28.8062C25.3251 27.7536 27.7184 27.1978 29.686 26.9861C31.5632 26.7841 33.3333 25.2501 33.3333 23.0666V17.2016C34.5289 17.8933 35.3333 19.186 35.3333 20.6665V28.6665C35.3333 30.8757 33.5425 32.6665 31.3333 32.6665H12.6667C10.4575 32.6665 8.66667 30.8757 8.66667 28.6665V20.6665Z" fill="white"/>
<path d="M63.6477 16.9205C63.5568 16.0038 63.1667 15.2917 62.4773 14.7841C61.7879 14.2765 60.8523 14.0227 59.6705 14.0227C58.8674 14.0227 58.1894 14.1364 57.6364 14.3636C57.0833 14.5833 56.6591 14.8902 56.3636 15.2841C56.0758 15.678 55.9318 16.125 55.9318 16.625C55.9167 17.0417 56.0038 17.4053 56.1932 17.7159C56.3902 18.0265 56.6591 18.2955 57 18.5227C57.3409 18.7424 57.7348 18.9356 58.1818 19.1023C58.6288 19.2614 59.1061 19.3977 59.6136 19.5114L61.7045 20.0114C62.7197 20.2386 63.6515 20.5417 64.5 20.9205C65.3485 21.2992 66.0833 21.7652 66.7045 22.3182C67.3258 22.8712 67.8068 23.5227 68.1477 24.2727C68.4962 25.0227 68.6742 25.8826 68.6818 26.8523C68.6742 28.2765 68.3106 29.5114 67.5909 30.5568C66.8788 31.5947 65.8485 32.4015 64.5 32.9773C63.1591 33.5455 61.5417 33.8295 59.6477 33.8295C57.7689 33.8295 56.1326 33.5417 54.7386 32.9659C53.3523 32.3902 52.2689 31.5379 51.4886 30.4091C50.7159 29.2727 50.3106 27.8674 50.2727 26.1932H55.0341C55.0871 26.9735 55.3106 27.625 55.7045 28.1477C56.1061 28.6629 56.6402 29.053 57.3068 29.3182C57.9811 29.5758 58.7424 29.7045 59.5909 29.7045C60.4242 29.7045 61.1477 29.5833 61.7614 29.3409C62.3826 29.0985 62.8636 28.7614 63.2045 28.3295C63.5455 27.8977 63.7159 27.4015 63.7159 26.8409C63.7159 26.3182 63.5606 25.8788 63.25 25.5227C62.947 25.1667 62.5 24.8636 61.9091 24.6136C61.3258 24.3636 60.6098 24.1364 59.7614 23.9318L57.2273 23.2955C55.2652 22.8182 53.7159 22.072 52.5795 21.0568C51.4432 20.0417 50.8788 18.6742 50.8864 16.9545C50.8788 15.5455 51.2538 14.3144 52.0114 13.2614C52.7765 12.2083 53.8258 11.3864 55.1591 10.7955C56.4924 10.2045 58.0076 9.90909 59.7045 9.90909C61.4318 9.90909 62.9394 10.2045 64.2273 10.7955C65.5227 11.3864 66.5303 12.2083 67.25 13.2614C67.9697 14.3144 68.3409 15.5341 68.3636 16.9205H63.6477ZM79.9047 16.0455V19.6818H69.3933V16.0455H79.9047ZM71.7797 11.8636H76.6206V28.1364C76.6206 28.5833 76.6887 28.9318 76.8251 29.1818C76.9615 29.4242 77.1509 29.5947 77.3933 29.6932C77.6433 29.7917 77.9312 29.8409 78.2569 29.8409C78.4842 29.8409 78.7115 29.822 78.9387 29.7841C79.166 29.7386 79.3403 29.7045 79.4615 29.6818L80.2228 33.2841C79.9804 33.3598 79.6395 33.447 79.2001 33.5455C78.7607 33.6515 78.2266 33.7159 77.5978 33.7386C76.4312 33.7841 75.4084 33.6288 74.5297 33.2727C73.6584 32.9167 72.9804 32.3636 72.4956 31.6136C72.0107 30.8636 71.7721 29.9167 71.7797 28.7727V11.8636ZM92.9713 26.0682V16.0455H97.8122V33.5H93.1644V30.3295H92.9826C92.5887 31.3523 91.9334 32.1742 91.0167 32.7955C90.1076 33.4167 88.9978 33.7273 87.6872 33.7273C86.5205 33.7273 85.494 33.4621 84.6076 32.9318C83.7213 32.4015 83.0281 31.6477 82.5281 30.6705C82.0356 29.6932 81.7856 28.5227 81.7781 27.1591V16.0455H86.619V26.2955C86.6266 27.3258 86.9031 28.1402 87.4485 28.7386C87.994 29.3371 88.725 29.6364 89.6417 29.6364C90.225 29.6364 90.7705 29.5038 91.2781 29.2386C91.7856 28.9659 92.1947 28.5644 92.5053 28.0341C92.8235 27.5038 92.9788 26.8485 92.9713 26.0682ZM106.836 33.7841C105.51 33.7841 104.31 33.4432 103.234 32.7614C102.166 32.072 101.317 31.0606 100.688 29.7273C100.067 28.3864 99.7566 26.7424 99.7566 24.7955C99.7566 22.7955 100.079 21.1326 100.722 19.8068C101.366 18.4735 102.223 17.4773 103.291 16.8182C104.366 16.1515 105.544 15.8182 106.825 15.8182C107.802 15.8182 108.616 15.9848 109.268 16.3182C109.927 16.6439 110.457 17.053 110.859 17.5455C111.268 18.0303 111.579 18.5076 111.791 18.9773H111.938V10.2273H116.768V33.5H111.995V30.7045H111.791C111.563 31.1894 111.241 31.6705 110.825 32.1477C110.416 32.6174 109.882 33.0076 109.222 33.3182C108.571 33.6288 107.776 33.7841 106.836 33.7841ZM108.37 29.9318C109.151 29.9318 109.81 29.7197 110.347 29.2955C110.893 28.8636 111.31 28.2614 111.597 27.4886C111.893 26.7159 112.041 25.8106 112.041 24.7727C112.041 23.7348 111.897 22.8333 111.609 22.0682C111.321 21.303 110.904 20.7121 110.359 20.2955C109.813 19.8788 109.151 19.6705 108.37 19.6705C107.575 19.6705 106.904 19.8864 106.359 20.3182C105.813 20.75 105.401 21.3485 105.12 22.1136C104.84 22.8788 104.7 23.7652 104.7 24.7727C104.7 25.7879 104.84 26.6856 105.12 27.4659C105.408 28.2386 105.821 28.8447 106.359 29.2841C106.904 29.7159 107.575 29.9318 108.37 29.9318ZM122.457 40.0455C121.843 40.0455 121.267 39.9962 120.729 39.8977C120.199 39.8068 119.76 39.6894 119.411 39.5455L120.502 35.9318C121.07 36.1061 121.582 36.2008 122.036 36.2159C122.498 36.2311 122.896 36.125 123.229 35.8977C123.57 35.6705 123.847 35.2841 124.059 34.7386L124.343 34L118.082 16.0455H123.173L126.786 28.8636H126.968L130.616 16.0455H135.741L128.957 35.3864C128.631 36.3258 128.188 37.1439 127.627 37.8409C127.074 38.5455 126.373 39.0871 125.525 39.4659C124.676 39.8523 123.654 40.0455 122.457 40.0455ZM145.813 25.4091H149.995L152.097 28.1136L154.165 30.5227L158.063 35.4091H153.472L150.79 32.1136L149.415 30.1591L145.813 25.4091ZM158.415 21.8636C158.415 24.4015 157.934 26.5606 156.972 28.3409C156.018 30.1212 154.715 31.4811 153.063 32.4205C151.419 33.3523 149.571 33.8182 147.518 33.8182C145.449 33.8182 143.593 33.3485 141.949 32.4091C140.305 31.4697 139.006 30.1098 138.052 28.3295C137.097 26.5492 136.62 24.3939 136.62 21.8636C136.62 19.3258 137.097 17.1667 138.052 15.3864C139.006 13.6061 140.305 12.25 141.949 11.3182C143.593 10.3788 145.449 9.90909 147.518 9.90909C149.571 9.90909 151.419 10.3788 153.063 11.3182C154.715 12.25 156.018 13.6061 156.972 15.3864C157.934 17.1667 158.415 19.3258 158.415 21.8636ZM153.427 21.8636C153.427 20.2197 153.18 18.8333 152.688 17.7045C152.203 16.5758 151.518 15.7197 150.631 15.1364C149.745 14.553 148.707 14.2614 147.518 14.2614C146.328 14.2614 145.29 14.553 144.404 15.1364C143.518 15.7197 142.828 16.5758 142.336 17.7045C141.851 18.8333 141.609 20.2197 141.609 21.8636C141.609 23.5076 141.851 24.8939 142.336 26.0227C142.828 27.1515 143.518 28.0076 144.404 28.5909C145.29 29.1742 146.328 29.4659 147.518 29.4659C148.707 29.4659 149.745 29.1742 150.631 28.5909C151.518 28.0076 152.203 27.1515 152.688 26.0227C153.18 24.8939 153.427 23.5076 153.427 21.8636Z" fill="#000929"/>
</svg>
