<svg width="94" height="26" viewBox="0 0 94 26" fill="none" xmlns="http://www.w3.org/2000/svg">
<rect x="0.196289" width="26" height="26" rx="4.72727" fill="#8247FF"/>
<path fill-rule="evenodd" clip-rule="evenodd" d="M8.78128 6.70319C9.93181 6.827 11.454 7.14763 12.6054 7.83543V15.9039C11.454 15.2161 9.93181 14.8954 8.78128 14.7716C8.17576 14.7065 7.68137 14.2247 7.68137 13.6306V7.71372C7.68137 7.11958 8.17576 6.63802 8.78128 6.70319ZM17.6118 14.7716C16.4611 14.8954 14.9387 15.2161 13.7872 15.9041V7.83566C14.9387 7.1477 16.4611 6.82702 17.6118 6.70319C18.2173 6.63802 18.7117 7.11958 18.7117 7.71372V13.6306C18.7117 14.2247 18.2173 14.7065 17.6118 14.7716ZM5.31836 12.2122C5.31836 11.3373 5.79369 10.5734 6.50018 10.1648V13.6304C6.50018 14.9207 7.54619 15.8271 8.65544 15.9465C9.81807 16.0716 11.2323 16.4 12.1643 17.022C12.7866 17.4373 13.6077 17.4373 14.23 17.022C15.162 16.4 16.5762 16.0716 17.7389 15.9465C18.8481 15.8271 19.8941 14.9207 19.8941 13.6304V10.1648C20.6006 10.5734 21.0759 11.3373 21.0759 12.2122V16.9395C21.0759 18.2449 20.0177 19.3031 18.7123 19.3031H7.682C6.3766 19.3031 5.31836 18.2449 5.31836 16.9395V12.2122Z" fill="white"/>
<path d="M37.8059 10.203C37.7521 9.66133 37.5216 9.24053 37.1142 8.9406C36.7069 8.64067 36.154 8.4907 35.4557 8.4907C34.9811 8.4907 34.5805 8.55785 34.2537 8.69215C33.9269 8.82197 33.6762 9.00327 33.5016 9.23605C33.3315 9.46884 33.2465 9.73296 33.2465 10.0284C33.2375 10.2746 33.289 10.4895 33.4009 10.673C33.5173 10.8566 33.6762 11.0155 33.8777 11.1498C34.0791 11.2796 34.3119 11.3938 34.576 11.4923C34.8401 11.5863 35.1222 11.6668 35.4221 11.734L36.6576 12.0294C37.2575 12.1637 37.8081 12.3428 38.3095 12.5666C38.8109 12.7905 39.2451 13.0658 39.6122 13.3926C39.9792 13.7194 40.2635 14.1043 40.465 14.5475C40.6709 14.9907 40.7761 15.4988 40.7806 16.0718C40.7761 16.9134 40.5612 17.6431 40.1359 18.2608C39.7151 18.8741 39.1063 19.3509 38.3095 19.6911C37.5171 20.0269 36.5614 20.1947 35.4422 20.1947C34.332 20.1947 33.3651 20.0246 32.5414 19.6844C31.7222 19.3442 31.082 18.8406 30.6209 18.1736C30.1643 17.5021 29.9248 16.6717 29.9025 15.6823H32.716C32.7473 16.1434 32.8794 16.5284 33.1122 16.8373C33.3494 17.1417 33.665 17.3722 34.059 17.5289C34.4574 17.6811 34.9073 17.7572 35.4087 17.7572C35.9011 17.7572 36.3286 17.6856 36.6912 17.5424C37.0583 17.3991 37.3425 17.1999 37.544 16.9447C37.7454 16.6896 37.8462 16.3963 37.8462 16.0651C37.8462 15.7562 37.7544 15.4966 37.5708 15.2862C37.3918 15.0758 37.1277 14.8967 36.7785 14.749C36.4338 14.6012 36.0108 14.4669 35.5094 14.3461L34.012 13.97C32.8525 13.688 31.9371 13.2471 31.2656 12.6472C30.5941 12.0473 30.2606 11.2393 30.2651 10.2231C30.2606 9.3905 30.4822 8.66305 30.9298 8.04081C31.382 7.41856 32.002 6.93285 32.7899 6.58368C33.5777 6.2345 34.473 6.05992 35.4758 6.05992C36.4965 6.05992 37.3873 6.2345 38.1483 6.58368C38.9138 6.93285 39.5092 7.41856 39.9345 8.04081C40.3598 8.66305 40.5791 9.38378 40.5925 10.203H37.8059ZM47.4122 9.68595V11.8347H41.201V9.68595H47.4122ZM42.6111 7.21488H45.4716V16.8306C45.4716 17.0947 45.5119 17.3006 45.5925 17.4483C45.6731 17.5916 45.785 17.6923 45.9282 17.7505C46.076 17.8087 46.2461 17.8378 46.4386 17.8378C46.5729 17.8378 46.7072 17.8266 46.8415 17.8042C46.9758 17.7774 47.0787 17.7572 47.1504 17.7438L47.6002 19.8724C47.457 19.9172 47.2556 19.9687 46.9959 20.0269C46.7363 20.0895 46.4207 20.1276 46.0491 20.141C45.3597 20.1679 44.7554 20.0761 44.2361 19.8657C43.7213 19.6553 43.3206 19.3285 43.0341 18.8853C42.7476 18.4421 42.6066 17.8826 42.6111 17.2066V7.21488ZM55.1334 15.6085V9.68595H57.9939V20H55.2476V18.1265H55.1401C54.9073 18.7309 54.5201 19.2166 53.9784 19.5837C53.4413 19.9508 52.7854 20.1343 52.011 20.1343C51.3216 20.1343 50.715 19.9776 50.1913 19.6643C49.6675 19.3509 49.2579 18.9055 48.9624 18.328C48.6715 17.7505 48.5237 17.0589 48.5192 16.2531V9.68595H51.3798V15.7428C51.3843 16.3516 51.5477 16.8328 51.87 17.1865C52.1923 17.5401 52.6243 17.7169 53.1659 17.7169C53.5106 17.7169 53.833 17.6386 54.1329 17.4819C54.4328 17.3208 54.6746 17.0835 54.8581 16.7701C55.0461 16.4568 55.1379 16.0696 55.1334 15.6085ZM63.3263 20.1679C62.5429 20.1679 61.8333 19.9664 61.1977 19.5635C60.5665 19.1562 60.0651 18.5585 59.6935 17.7707C59.3265 16.9783 59.1429 16.0069 59.1429 14.8564C59.1429 13.6746 59.3332 12.692 59.7137 11.9086C60.0942 11.1207 60.6 10.532 61.2312 10.1426C61.8669 9.74862 62.563 9.55165 63.3196 9.55165C63.8971 9.55165 64.3783 9.65014 64.7633 9.84711C65.1527 10.0396 65.4661 10.2813 65.7034 10.5723C65.9451 10.8588 66.1286 11.1408 66.254 11.4184H66.3413V6.24793H69.1951V20H66.3748V18.3481H66.254C66.1197 18.6346 65.9294 18.9189 65.6832 19.2009C65.4415 19.4785 65.1259 19.709 64.7364 19.8926C64.3514 20.0761 63.8814 20.1679 63.3263 20.1679ZM64.2328 17.8915C64.6939 17.8915 65.0833 17.7662 65.4012 17.5155C65.7235 17.2603 65.9697 16.9044 66.1398 16.4478C66.3144 15.9912 66.4017 15.4563 66.4017 14.843C66.4017 14.2297 66.3166 13.697 66.1465 13.2448C65.9764 12.7927 65.7302 12.4435 65.4079 12.1973C65.0856 11.9511 64.6939 11.828 64.2328 11.828C63.7628 11.828 63.3666 11.9556 63.0443 12.2107C62.7219 12.4659 62.478 12.8196 62.3123 13.2717C62.1467 13.7238 62.0639 14.2476 62.0639 14.843C62.0639 15.4428 62.1467 15.9733 62.3123 16.4344C62.4825 16.891 62.7264 17.2491 63.0443 17.5088C63.3666 17.7639 63.7628 17.8915 64.2328 17.8915ZM72.5566 23.8678C72.194 23.8678 71.8538 23.8387 71.536 23.7805C71.2226 23.7268 70.963 23.6574 70.757 23.5723L71.4017 21.437C71.7374 21.5399 72.0396 21.5959 72.3082 21.6049C72.5812 21.6138 72.8163 21.5511 73.0132 21.4168C73.2147 21.2825 73.3781 21.0542 73.5034 20.7319L73.6713 20.2955L69.9714 9.68595H72.9797L75.115 17.2603H75.2224L77.3779 9.68595H80.4063L76.3975 21.1147C76.205 21.6698 75.9432 22.1532 75.6119 22.5651C75.2851 22.9814 74.871 23.3015 74.3696 23.5253C73.8683 23.7536 73.2639 23.8678 72.5566 23.8678ZM86.3581 15.219H88.8292L90.0714 16.8171L91.2935 18.2407L93.5967 21.1281H90.8839L89.2992 19.1808L88.4867 18.0258L86.3581 15.219ZM93.8049 13.124C93.8049 14.6236 93.5206 15.8994 92.9521 16.9514C92.3881 18.0034 91.6181 18.807 90.6422 19.3621C89.6708 19.9127 88.5785 20.188 87.3653 20.188C86.1432 20.188 85.0465 19.9105 84.0751 19.3554C83.1036 18.8003 82.3359 17.9967 81.7719 16.9447C81.2078 15.8927 80.9258 14.6191 80.9258 13.124C80.9258 11.6243 81.2078 10.3485 81.7719 9.29649C82.3359 8.24449 83.1036 7.44318 84.0751 6.89256C85.0465 6.33747 86.1432 6.05992 87.3653 6.05992C88.5785 6.05992 89.6708 6.33747 90.6422 6.89256C91.6181 7.44318 92.3881 8.24449 92.9521 9.29649C93.5206 10.3485 93.8049 11.6243 93.8049 13.124ZM90.8571 13.124C90.8571 12.1525 90.7116 11.3333 90.4206 10.6663C90.1341 9.99931 89.729 9.49346 89.2052 9.14876C88.6815 8.80406 88.0682 8.63172 87.3653 8.63172C86.6625 8.63172 86.0492 8.80406 85.5255 9.14876C85.0017 9.49346 84.5943 9.99931 84.3034 10.6663C84.0169 11.3333 83.8736 12.1525 83.8736 13.124C83.8736 14.0954 84.0169 14.9146 84.3034 15.5816C84.5943 16.2486 85.0017 16.7545 85.5255 17.0992C86.0492 17.4439 86.6625 17.6162 87.3653 17.6162C88.0682 17.6162 88.6815 17.4439 89.2052 17.0992C89.729 16.7545 90.1341 16.2486 90.4206 15.5816C90.7116 14.9146 90.8571 14.0954 90.8571 13.124Z" fill="#000929"/>
</svg>
