<svg width="508" height="381" viewBox="0 0 508 381" fill="none" xmlns="http://www.w3.org/2000/svg">
<path d="M355.484 348.114L354.463 364.548H268.456L271.677 346.459L355.484 348.114Z" fill="#24307D"/>
<path d="M185.283 84.2738C187.758 84.2738 189.764 82.2677 189.764 79.7931C189.764 77.3185 187.758 75.3125 185.283 75.3125C182.809 75.3125 180.803 77.3185 180.803 79.7931C180.803 82.2677 182.809 84.2738 185.283 84.2738Z" fill="white"/>
<path d="M379.937 296.681L386.173 291.489C384.968 310.253 374.528 308.158 374.528 308.158C370.692 288.92 358.867 270.282 355.242 264.574C351.617 258.866 341.454 247.574 333.789 240.191C326.123 232.808 322.84 226.193 322.84 226.193C327.48 230.917 339.281 233.601 339.281 233.601C339.281 235.72 341.4 243.373 341.4 243.373C341.4 240.444 343.026 234.903 343.026 234.903C346.04 235.311 349.438 237.328 349.438 237.328L347.155 250.204L353.188 239.339C360.024 241.752 370.75 247.652 370.217 252.617C369.701 257.419 362.257 266.321 361.795 266.873L375.986 255.3L379.203 273.668C377.594 278.091 368.339 282.311 368.339 282.311C373.031 283.043 382.684 275.274 382.684 275.274C382.684 275.274 386.172 285.196 386.172 287.741C386.173 290.216 380.302 296.303 379.937 296.681Z" fill="#ABD2F4"/>
<path d="M379.937 296.681L386.173 291.489C384.968 310.253 374.528 308.158 374.528 308.158C370.692 288.92 358.867 270.282 355.242 264.574C351.617 258.866 341.454 247.574 333.789 240.191C326.123 232.808 322.84 226.193 322.84 226.193C327.48 230.917 339.281 233.601 339.281 233.601C339.281 235.72 341.4 243.373 341.4 243.373C341.4 240.444 343.026 234.903 343.026 234.903C346.04 235.311 349.438 237.328 349.438 237.328L347.155 250.204L353.188 239.339C360.024 241.752 370.75 247.652 370.217 252.617C369.701 257.419 362.257 266.321 361.795 266.873L375.986 255.3L379.203 273.668C377.594 278.091 368.339 282.311 368.339 282.311C373.031 283.043 382.684 275.274 382.684 275.274C382.684 275.274 386.172 285.196 386.172 287.741C386.173 290.216 380.302 296.303 379.937 296.681Z" fill="#C2DCCC"/>
<path d="M374.528 308.158C368.285 308.578 364.6 297.017 363.623 293.596C362.645 290.174 360.123 286.027 354.913 281.633C349.703 277.239 345.471 269.91 345.471 269.91C349.949 273.001 355.969 271.783 355.969 271.783C344.654 266.248 343.76 260.06 343.76 260.06C336.762 256.236 328.946 238.649 328.946 238.649C325.116 234.337 322.842 226.193 322.842 226.193C322.842 226.193 326.131 232.808 333.79 240.191C341.449 247.574 351.624 258.859 355.243 264.574C358.863 270.288 370.692 288.92 374.528 308.158Z" fill="#ABD2F4"/>
<path d="M374.528 308.158C368.285 308.578 364.6 297.017 363.623 293.596C362.645 290.174 360.123 286.027 354.913 281.633C349.703 277.239 345.471 269.91 345.471 269.91C349.949 273.001 355.969 271.783 355.969 271.783C344.654 266.248 343.76 260.06 343.76 260.06C336.762 256.236 328.946 238.649 328.946 238.649C325.116 234.337 322.842 226.193 322.842 226.193C322.842 226.193 326.131 232.808 333.79 240.191C341.449 247.574 351.624 258.859 355.243 264.574C358.863 270.288 370.692 288.92 374.528 308.158Z" fill="#8EACA8"/>
<path d="M355.243 264.57L365.286 245.607" stroke="#8EACA8" stroke-width="0.473" stroke-miterlimit="10"/>
<path d="M352.622 260.976L361.971 243.324" stroke="#8EACA8" stroke-width="0.473" stroke-miterlimit="10"/>
<path d="M368.707 365.088C370.747 360.922 373.168 356.953 375.939 353.232C377.323 351.372 378.809 349.591 380.391 347.896C381.985 346.203 383.714 344.643 385.561 343.232C387.411 341.816 389.41 340.604 391.521 339.618C392.589 339.16 393.641 338.66 394.75 338.308C395.301 338.126 395.837 337.898 396.398 337.754L398.076 337.288C402.583 336.147 407.259 335.828 411.88 336.347C414.19 336.607 416.458 337.159 418.63 337.99L419.439 338.316L420.219 338.716C420.473 338.857 420.746 338.97 420.989 339.134L421.722 339.623C422.687 340.299 423.523 341.143 424.189 342.115C425.48 344.078 426.217 346.353 426.322 348.7C426.442 351.023 426.138 353.349 425.426 355.563C423.968 359.967 421.435 363.937 418.057 367.115C414.707 370.284 410.853 372.872 406.651 374.772C410.824 372.831 414.643 370.207 417.952 367.008C421.269 363.821 423.739 359.857 425.14 355.476C425.815 353.295 426.09 351.009 425.951 348.73C425.826 346.459 425.091 344.265 423.823 342.378C423.178 341.457 422.371 340.661 421.443 340.027L420.738 339.566C420.504 339.41 420.238 339.304 419.99 339.171L419.229 338.79L418.436 338.482C416.302 337.692 414.076 337.176 411.811 336.947C407.268 336.486 402.679 336.849 398.264 338.018L396.625 338.492C396.076 338.638 395.553 338.868 395.015 339.052C393.934 339.409 392.912 339.909 391.873 340.367C389.826 341.348 387.891 342.549 386.103 343.947C384.312 345.347 382.638 346.891 381.098 348.563C379.561 350.246 378.119 352.013 376.779 353.857C374.095 357.543 371.756 361.47 369.793 365.586L368.707 365.088Z" fill="#8EACA8"/>
<path d="M378.048 364.639C379.9 359.979 381.684 355.29 383.401 350.571C385.106 345.853 386.761 341.111 388.127 336.291C388.451 335.083 388.789 333.874 389.027 332.65C389.303 331.435 389.462 330.196 389.501 328.951C389.657 326.455 389.104 323.965 387.905 321.77C387.278 320.695 386.396 319.789 385.336 319.135C384.259 318.502 383.045 318.137 381.797 318.07C379.282 318.019 376.79 318.565 374.526 319.662C376.783 318.527 379.277 317.942 381.804 317.957C383.075 318.008 384.316 318.362 385.423 318.989C386.519 319.644 387.438 320.559 388.098 321.652C389.355 323.874 389.958 326.407 389.836 328.957C389.816 330.223 389.674 331.485 389.412 332.724C389.189 333.969 388.868 335.186 388.559 336.407C387.257 341.27 385.672 346.044 384.035 350.795C382.398 355.545 380.671 360.265 378.885 364.966L378.048 364.639Z" fill="#8EACA8"/>
<path d="M374.528 308.158C374.528 308.158 382.9 347.558 378.467 364.804" stroke="#8EACA8" stroke-width="0.702" stroke-miterlimit="10"/>
<path d="M367.988 365.337V344.166" stroke="#8EACA8" stroke-width="0.702" stroke-miterlimit="10"/>
<path d="M322.84 289.791C322.84 289.791 339.14 294.329 346.63 293.162C354.12 291.995 352.294 300.453 352.294 300.453C352.294 300.453 365.19 305.72 365.19 310.872C365.19 316.025 361.328 320.835 361.328 320.835C361.328 320.835 364.377 320.225 367.697 314.738C367.697 314.738 373.022 323.908 372.388 327.715C371.975 330.061 371.039 332.283 369.649 334.218C370.703 333.852 371.584 333.109 372.121 332.132C372.121 332.132 369.845 341.884 367.986 344.167C367.986 344.167 361.513 340.189 359.087 335.947C356.661 331.704 346.224 321.773 341.905 313.852C337.586 305.931 327.058 292.134 322.84 289.791Z" fill="#ABD2F4"/>
<path d="M322.84 289.791C322.84 289.791 339.14 294.329 346.63 293.162C354.12 291.995 352.294 300.453 352.294 300.453C352.294 300.453 365.19 305.72 365.19 310.872C365.19 316.025 361.328 320.835 361.328 320.835C361.328 320.835 364.377 320.225 367.697 314.738C367.697 314.738 373.022 323.908 372.388 327.715C371.975 330.061 371.039 332.283 369.649 334.218C370.703 333.852 371.584 333.109 372.121 332.132C372.121 332.132 369.845 341.884 367.986 344.167C367.986 344.167 361.513 340.189 359.087 335.947C356.661 331.704 346.224 321.773 341.905 313.852C337.586 305.931 327.058 292.134 322.84 289.791Z" fill="#8EACA8"/>
<path d="M412.229 302.836C412.229 302.836 415.756 298.317 416.381 293.188C416.381 293.188 426.765 292.437 430.018 290.561C430.018 290.561 421.086 299.349 412.229 302.836Z" fill="#ABD2F4"/>
<path d="M412.229 302.836C412.229 302.836 415.756 298.317 416.381 293.188C416.381 293.188 426.765 292.437 430.018 290.561C430.018 290.561 421.086 299.349 412.229 302.836Z" fill="#8EACA8"/>
<path d="M428.281 289.027C432.398 284.837 433.797 277.988 433.797 277.988C435.699 276.008 438.773 269.543 438.773 269.543C441.45 279.879 428.99 288.547 428.281 289.027Z" fill="#ABD2F4"/>
<path d="M428.281 289.027C428.272 289.037 428.261 289.045 428.25 289.051" stroke="#7F51A8" stroke-width="0.189" stroke-miterlimit="10"/>
<path d="M390.746 335.205C387.937 344.829 386.399 354.78 386.173 364.804" stroke="#8EACA8" stroke-width="0.473" stroke-miterlimit="10"/>
<path d="M433.797 277.988C433.797 277.988 432.398 284.836 428.281 289.027C426.569 290.886 424.209 292.019 421.687 292.19C421.687 292.19 414.85 304.363 403.061 307.47C403.061 307.47 410.186 310.577 416.398 307.86C416.398 307.86 408.89 321.072 403.709 327.548C401.519 330.285 399.91 332.219 398.337 333.479C396.188 335.202 394.111 335.67 390.75 335.207C390.75 335.207 371.122 322.098 384.723 298.172L393.917 311.17L387.208 293.511C387.208 293.511 396.338 276.127 412.178 267.928L417.581 275.569L414.039 260.289C414.039 260.289 430.63 251.718 440.69 248.734L430.448 262.552C430.448 262.552 420.248 281.145 418.76 285.06C418.758 285.056 429.325 283.769 433.797 277.988Z" fill="#D9E7DE"/>
<path d="M398.334 333.478C399.907 332.217 401.515 330.284 403.706 327.547C408.887 321.07 416.395 307.859 416.395 307.859C416.395 307.859 420.405 302.114 421.924 301.778C423.443 301.441 430.702 321.346 398.334 333.478Z" fill="#ABD2F4"/>
<path d="M390.747 335.205C390.747 335.205 401.264 302.153 418.758 285.057" stroke="#8EACA8" stroke-width="0.473" stroke-miterlimit="10"/>
<path d="M406.651 300.668L394.965 282.311" stroke="#8EACA8" stroke-width="0.473" stroke-miterlimit="10"/>
<path d="M410.307 295.132L399.514 277.773" stroke="#8EACA8" stroke-width="0.473" stroke-miterlimit="10"/>
<path d="M418.758 285.057C418.758 285.057 421.358 269.543 421.123 267.292C421.123 267.292 440.905 258.824 447.533 248.732C447.533 248.731 436.399 268.918 418.758 285.057Z" fill="#ABD2F4"/>
<path d="M428.281 289.027C432.398 284.837 433.797 277.988 433.797 277.988C435.699 276.008 438.773 269.543 438.773 269.543C441.45 279.879 428.99 288.547 428.281 289.027Z" fill="#8EACA8"/>
<path d="M398.334 333.478C399.907 332.217 401.515 330.284 403.706 327.547C408.887 321.07 416.395 307.859 416.395 307.859C416.395 307.859 420.405 302.114 421.924 301.778C423.443 301.441 430.702 321.346 398.334 333.478Z" fill="#8EACA8"/>
<path d="M418.758 285.057C418.758 285.057 421.358 269.543 421.123 267.292C421.123 267.292 440.905 258.824 447.533 248.732C447.533 248.731 436.399 268.918 418.758 285.057Z" fill="#8EACA8"/>
<path d="M353.479 252.177C354.305 252.177 354.976 251.507 354.976 250.681C354.976 249.854 354.305 249.184 353.479 249.184C352.652 249.184 351.982 249.854 351.982 250.681C351.982 251.507 352.652 252.177 353.479 252.177Z" fill="white"/>
<path d="M367.988 270.741C368.649 270.741 369.185 270.205 369.185 269.543C369.185 268.882 368.649 268.346 367.988 268.346C367.326 268.346 366.79 268.882 366.79 269.543C366.79 270.205 367.326 270.741 367.988 270.741Z" fill="white"/>
<path d="M410.307 277.773C410.836 277.773 411.265 277.345 411.265 276.815C411.265 276.286 410.836 275.857 410.307 275.857C409.778 275.857 409.349 276.286 409.349 276.815C409.349 277.345 409.778 277.773 410.307 277.773Z" fill="white"/>
<path d="M359.306 314.355C359.835 314.355 360.264 313.927 360.264 313.397C360.264 312.868 359.835 312.439 359.306 312.439C358.777 312.439 358.348 312.868 358.348 313.397C358.348 313.927 358.777 314.355 359.306 314.355Z" fill="white"/>
<path d="M362.199 330.83C362.622 330.83 362.965 330.487 362.965 330.063C362.965 329.64 362.622 329.297 362.199 329.297C361.776 329.297 361.432 329.64 361.432 330.063C361.432 330.487 361.776 330.83 362.199 330.83Z" fill="white"/>
<path d="M397.716 297.465C398.14 297.465 398.483 297.122 398.483 296.698C398.483 296.275 398.14 295.932 397.716 295.932C397.293 295.932 396.95 296.275 396.95 296.698C396.95 297.122 397.293 297.465 397.716 297.465Z" fill="white"/>
<path d="M415.989 318.334C416.179 318.334 416.334 318.18 416.334 317.989C416.334 317.799 416.179 317.645 415.989 317.645C415.798 317.645 415.644 317.799 415.644 317.989C415.644 318.18 415.798 318.334 415.989 318.334Z" fill="white"/>
<path d="M72.8782 48.2832H121.616C123.583 48.2831 125.53 48.6704 127.347 49.4229C129.164 50.1755 130.815 51.2786 132.206 52.6692C133.597 54.0598 134.7 55.7108 135.452 57.5278C136.205 59.3447 136.592 61.2921 136.592 63.2588C136.592 65.2255 136.205 67.173 135.453 68.9901C134.7 70.8071 133.597 72.4581 132.206 73.8488C130.815 75.2395 129.164 76.3426 127.347 77.0952C125.53 77.8478 123.583 78.2351 121.616 78.235H83.3535L73.1071 87.5622V78.2363H72.8782C70.9115 78.2363 68.964 77.8491 67.147 77.0965C65.3299 76.3439 63.6789 75.2407 62.2882 73.85C60.8975 72.4593 59.7944 70.8084 59.0418 68.9913C58.2892 67.1743 57.9019 65.2268 57.902 63.26C57.9018 61.2933 58.2891 59.3457 59.0416 57.5286C59.7942 55.7115 60.8973 54.0604 62.288 52.6697C63.6787 51.2789 65.3297 50.1757 67.1468 49.4231C68.9639 48.6704 70.9114 48.2831 72.8782 48.2832Z" fill="#B6E4DF"/>
<path d="M112.955 66.1043C114.407 66.1043 115.584 64.9271 115.584 63.475C115.584 62.0229 114.407 60.8457 112.955 60.8457C111.502 60.8457 110.325 62.0229 110.325 63.475C110.325 64.9271 111.502 66.1043 112.955 66.1043Z" fill="white"/>
<path d="M97.2461 66.1043C98.6982 66.1043 99.8754 64.9271 99.8754 63.475C99.8754 62.0229 98.6982 60.8457 97.2461 60.8457C95.794 60.8457 94.6168 62.0229 94.6168 63.475C94.6168 64.9271 95.794 66.1043 97.2461 66.1043Z" fill="white"/>
<path d="M81.537 66.1043C82.9891 66.1043 84.1663 64.9271 84.1663 63.475C84.1663 62.0229 82.9891 60.8457 81.537 60.8457C80.0849 60.8457 78.9077 62.0229 78.9077 63.475C78.9077 64.9271 80.0849 66.1043 81.537 66.1043Z" fill="white"/>
<path d="M143.934 76.3655C151.494 76.3622 159.047 76.8259 166.549 77.7539V115.776C166.548 117.85 165.725 119.839 164.259 121.305C162.793 122.772 160.805 123.598 158.732 123.6H44.3587C42.6509 123.598 41.0138 122.918 39.8063 121.711C38.5988 120.503 37.9193 118.866 37.917 117.158V110.197C68.8597 88.1331 105.93 76.3034 143.934 76.3655Z" fill="#B1C0E5"/>
<path d="M42.9879 43.1551V117.158C42.9879 117.338 43.0234 117.516 43.0923 117.683C43.1612 117.849 43.2621 118 43.3894 118.127C43.5167 118.254 43.6679 118.355 43.8342 118.424C44.0005 118.493 44.1787 118.528 44.3587 118.528H158.728C159.457 118.528 160.157 118.239 160.672 117.723C161.188 117.207 161.478 116.508 161.478 115.779V43.1551C161.478 41.935 160.993 40.7648 160.13 39.9021C159.268 39.0393 158.097 38.5547 156.877 38.5547H47.5884C46.3683 38.5547 45.1981 39.0393 44.3354 39.9021C43.4726 40.7648 42.9879 41.935 42.9879 43.1551Z" fill="white"/>
<path d="M91.7012 118.529H44.3587C43.9952 118.529 43.6465 118.385 43.3895 118.128C43.1324 117.871 42.988 117.522 42.988 117.159L42.988 61.1554L91.7012 61.1554V118.529Z" fill="#C9D2EC"/>
<path d="M42.9879 43.1551V46.7221H161.478V43.1551C161.478 42.551 161.359 41.9527 161.128 41.3945C160.897 40.8363 160.558 40.3291 160.13 39.9019C159.703 39.4747 159.196 39.1358 158.638 38.9047C158.08 38.6735 157.481 38.5546 156.877 38.5547H47.5884C46.3685 38.5554 45.1987 39.0402 44.3361 39.9028C43.4735 40.7654 42.9886 41.9352 42.9879 43.1551Z" fill="#C9D2EC"/>
<path d="M154.17 44.8964C155.417 44.8964 156.428 43.8855 156.428 42.6386C156.428 41.3917 155.417 40.3809 154.17 40.3809C152.923 40.3809 151.912 41.3917 151.912 42.6386C151.912 43.8855 152.923 44.8964 154.17 44.8964Z" fill="white"/>
<path d="M144.821 42.6418C144.821 43.1709 145.008 43.6829 145.349 44.0874C145.432 44.1927 145.527 44.2874 145.632 44.3695C146.037 44.7106 146.55 44.8976 147.08 44.8976C147.609 44.8976 148.122 44.7106 148.527 44.3695C148.63 44.2861 148.724 44.1915 148.806 44.0874C149.149 43.6833 149.338 43.1701 149.338 42.6396C149.338 42.109 149.149 41.5959 148.806 41.1918C148.724 41.0875 148.63 40.9926 148.527 40.909C148.122 40.5679 147.609 40.3809 147.08 40.3809C146.55 40.3809 146.037 40.5679 145.632 40.909C145.528 40.9927 145.433 41.0875 145.349 41.1918C145.008 41.5979 144.821 42.1114 144.821 42.6418Z" fill="white"/>
<path d="M146.012 43.5338C146.063 43.599 146.121 43.6576 146.186 43.7082L147.079 42.8124L147.254 42.6412L148.147 41.7453C148.096 41.6808 148.038 41.6222 147.975 41.5703L147.079 42.4662L146.905 42.6412L146.012 43.5338Z" fill="#AFBDE0"/>
<path d="M146.012 41.7453L146.905 42.6412L147.079 42.8124L147.975 43.7082C148.038 43.6565 148.096 43.5981 148.147 43.5338L147.079 42.4662L146.186 41.5703C146.122 41.6219 146.063 41.6806 146.012 41.7453Z" fill="#AFBDE0"/>
<path d="M152.782 42.7623H154.05H154.295H155.563C155.572 42.681 155.572 42.5989 155.563 42.5176H154.053H152.785C152.775 42.5988 152.774 42.6808 152.782 42.7623Z" fill="#AFBDE0"/>
<path d="M42.9879 43.1551V117.158C42.9879 117.338 43.0234 117.516 43.0923 117.683C43.1612 117.849 43.2621 118 43.3894 118.127C43.5167 118.254 43.6679 118.355 43.8342 118.424C44.0005 118.493 44.1787 118.528 44.3587 118.528H158.728C159.457 118.528 160.157 118.239 160.672 117.723C161.188 117.207 161.478 116.508 161.478 115.779V43.1551C161.478 41.935 160.993 40.7648 160.13 39.9021C159.268 39.0393 158.097 38.5547 156.877 38.5547H47.5884C46.3683 38.5547 45.1981 39.0393 44.3354 39.9021C43.4726 40.7648 42.9879 41.935 42.9879 43.1551Z" stroke="white" stroke-width="0.596" stroke-miterlimit="10"/>
<g style="mix-blend-mode:overlay" opacity="0.3">
<path d="M83.6287 118.527C83.6287 118.527 98.4394 94.498 95.762 84.7233C93.0845 74.9486 94.6841 38.3578 94.1629 38.7294C91.3732 40.7069 88.3299 40.2872 84.29 42.6388C80.8865 44.6207 77.686 48.0204 74.9293 52.2835C71.6209 57.3995 60.6796 61.9206 58.9728 71.0778C57.28 80.1589 66.8715 89.325 70.8214 94.2659C75.2596 99.8199 67.3444 118.412 67.3444 118.412L83.6287 118.527Z" fill="#161616"/>
</g>
<mask id="mask0_145_17813" style="mask-type:luminance" maskUnits="userSpaceOnUse" x="42" y="11" width="120" height="108">
<path d="M42.9879 15.8622V117.159C42.9879 117.339 43.0234 117.517 43.0923 117.683C43.1612 117.849 43.2621 118 43.3894 118.128C43.5167 118.255 43.6679 118.356 43.8342 118.425C44.0005 118.493 44.1787 118.529 44.3587 118.529H158.728C159.457 118.529 160.157 118.239 160.672 117.723C161.188 117.208 161.478 116.508 161.478 115.779V15.8622C161.478 14.6422 160.993 13.4721 160.13 12.6094C159.267 11.7467 158.097 11.2619 156.877 11.2617H47.5884C46.3683 11.2619 45.1983 11.7467 44.3356 12.6094C43.4728 13.4721 42.9881 14.6422 42.9879 15.8622Z" fill="white"/>
</mask>
<g mask="url(#mask0_145_17813)">
<path d="M130.913 65.2826C130.913 65.2826 131.053 57.9868 128.072 55.6023C125.092 53.2177 122.41 52.2255 122.311 46.1655C122.211 40.1055 117.139 40.6032 116.149 35.0403C115.159 29.4774 113.459 27.2152 109.18 27.3293C109.18 27.3293 105.072 24.7539 100.851 27.3255C96.6286 29.8971 95.8297 34.1191 95.3732 36.5151C94.9167 38.911 92.0072 40.7941 88.3559 41.8783C86.2527 42.5553 84.3062 43.6461 82.6307 45.0864C80.9552 46.5267 79.5846 48.2874 78.5995 50.2651C76.603 54.4871 74.8911 57.3966 70.8974 59.395C66.9037 61.3935 56.8057 67.6107 61.6553 79.0782C60.8454 76.7422 60.683 74.2306 61.1853 71.8097C61.6876 69.3889 62.8359 67.1491 64.5084 65.3282C64.5084 65.3282 55.2574 83.6317 76.5161 91.9539L130.915 72.4565L130.913 65.2826Z" fill="#1F3684"/>
<path style="mix-blend-mode:overlay" opacity="0.6" d="M123.752 57.2759C123.752 57.2759 118.951 54.2326 117.863 50.5553C116.775 46.8779 118.244 42.817 115.161 40.2796C113.239 39.1467 115.068 35.7337 114.505 33.6224C113.942 31.5111 112.61 29.8589 109.804 31.506C106.999 33.1532 104.934 44.4135 101.743 41.5515C98.5528 38.6895 99.1919 37.7429 97.7932 38.6382C96.3946 39.5334 96.4884 42.959 97.286 45.7741C98.0836 48.5892 94.5648 49.6682 90.4829 50.5597C86.4011 51.4511 80.3804 56.9848 79.2126 69.1118C78.0447 81.2387 123.752 57.2759 123.752 57.2759Z" fill="url(#paint0_linear_145_17813)"/>
<path d="M140.072 119.103C140.393 121.59 140.948 124.041 141.729 126.424C143.138 130.994 140.417 136.432 139.031 137.343C137.645 138.254 138.607 136.603 138.607 136.603C138.607 136.603 137.676 138.005 137.296 137.645C136.916 137.284 137.518 136.419 137.518 136.419C137.518 136.419 136.724 137.858 136.238 137.616C135.753 137.375 136.261 136.446 136.261 136.446C136.261 136.446 135.684 137.356 135.291 136.772C134.897 136.188 134.814 135.136 135.104 133.524C135.394 131.911 135.681 131.003 135.268 130.686C134.856 130.37 134.508 132.793 134.329 133.691C134.151 134.589 133.626 135.173 133.256 134.871C132.886 134.568 133.117 131.932 133.172 130.005C133.226 128.079 133.659 125.933 133.668 123.994C133.7 122.577 133.819 121.165 134.026 119.763C134.827 119.016 135.85 118.547 136.939 118.428C138.029 118.309 139.128 118.546 140.072 119.103Z" fill="#DFCEAE"/>
<path d="M122.296 56.1699C122.296 56.1699 134.121 67.3762 139.26 94.5916C142.943 114.096 140.958 123.196 140.958 123.196C140.958 123.196 134.634 120.308 132.209 125.389L118.46 67.3756L122.296 56.1699Z" fill="#8247FF"/>
<path style="mix-blend-mode:overlay" d="M122.296 56.1699C122.296 56.1699 134.121 67.3762 139.26 94.5916C142.943 114.096 140.958 123.196 140.958 123.196C140.958 123.196 134.634 120.308 132.209 125.389L118.46 67.3756L122.296 56.1699Z" fill="url(#paint1_linear_145_17813)"/>
<path d="M113.954 52.8438C114.073 52.8836 114.195 52.9142 114.318 52.9351C114.205 52.904 114.083 52.8748 113.954 52.8438Z" stroke="#E934F6" stroke-width="0.288" stroke-miterlimit="10"/>
<path d="M75.2911 101.686C75.2911 101.686 72.0804 135.835 72.0804 140.214C72.0804 144.593 110.706 141.695 110.706 141.695C110.706 141.695 104.16 105.801 98.2281 81.3061C94.7999 64.3523 95.8885 56.654 95.8885 56.654C95.8885 56.654 96.1713 53.4947 97.6308 52.0371C96.3558 52.2419 88.4375 52.4555 81.7213 57.3628C76.9395 60.8563 72.7683 66.728 72.0379 76.6707C71.1122 89.2465 75.2911 101.686 75.2911 101.686Z" fill="#8247FF"/>
<path d="M98.2283 81.3063C104.16 105.801 110.706 141.696 110.706 141.696L120.689 139.798C120.689 139.798 119.366 97.3744 119.514 84.9076C119.73 66.6243 116.148 56.7145 116.148 56.7145C116.148 56.7145 111.955 59.0173 105.34 58.6045C98.7254 58.1918 95.8887 56.6543 95.8887 56.6543C95.8887 56.6543 94.797 64.3526 98.2283 81.3063Z" fill="white"/>
<path d="M116.148 56.7149C116.148 56.7149 119.73 66.6247 119.514 84.908C119.366 97.3748 120.688 139.798 120.688 139.798L133.084 137.441C133.084 137.441 129.85 89.1921 126.927 75.1738C126.927 75.1738 124.372 60.0023 122.299 56.169C119.733 54.875 117.065 53.7936 114.322 52.9355C115.022 54.149 115.633 55.4121 116.148 56.7149Z" fill="#8247FF"/>
<path d="M95.8885 56.6539C95.8885 56.6539 98.7245 58.19 105.34 58.6041C111.955 59.0181 116.148 56.7141 116.148 56.7141C115.631 55.4108 115.02 54.1471 114.318 52.9334C114.195 52.9125 114.073 52.8819 113.954 52.8421C112.856 52.45 111.838 51.8602 110.952 51.1017C110.375 50.6594 109.937 50.0612 109.689 49.3778C109.454 48.6969 109.431 47.9603 109.626 47.2665C109.62 47.2665 109.613 47.2665 109.608 47.2703C109.459 47.2919 109.314 47.3119 109.171 47.3305C109.162 47.3305 109.153 47.3305 109.143 47.3305C108.27 47.4492 107.386 47.4695 106.508 47.3908C103.292 47.0675 102.123 45.1571 101.155 43.5898C102.342 50.7543 97.6321 52.035 97.6321 52.035C96.1713 53.4945 95.8885 56.6539 95.8885 56.6539Z" fill="#EDA28E"/>
<path d="M101.154 43.592C102.385 45.5866 103.944 48.1342 109.625 47.2694C115.306 46.4046 113.379 38.4114 113.379 35.0422C113.379 31.673 112.209 31.221 112.209 31.221C111.188 30.5692 109.893 31.453 109.893 31.453C107.429 29.2232 105.904 32.7426 105.663 35.0891C105.422 37.4356 104.145 38.3734 103.206 39.1348C102.268 39.8963 102.268 39.5476 101.387 38.2561C100.507 36.9646 97.7514 36.8479 97.6347 39.7815C97.518 42.7151 101.154 43.592 101.154 43.592Z" fill="#EDA28E"/>
<path d="M75.2911 101.688L84.5357 128.973C84.7621 128.323 88.8224 123.841 91.7319 122.334C95.6197 120.321 96.7914 121.609 97.1693 121.804C84.5522 103.231 86.6984 92.0168 87.5607 84.3426C88.9777 71.7173 91.5436 67.3762 91.5436 67.3762C91.5436 67.3762 95.2805 53.7701 81.7213 57.3643C76.9395 60.8578 72.7683 66.7295 72.0379 76.6722C71.1122 89.248 75.2911 101.688 75.2911 101.688Z" fill="#8247FF"/>
<g style="mix-blend-mode:overlay">
<path d="M97.1688 121.803C84.5518 103.232 86.6986 92.0156 87.5609 84.3414C88.9779 71.7162 91.5438 67.375 91.5438 67.375" stroke="#707070" stroke-width="0.576" stroke-miterlimit="10"/>
</g>
<path style="mix-blend-mode:overlay" opacity="0.4" d="M75.2911 101.688L84.5364 128.973C84.7627 128.323 88.8224 123.841 91.7319 122.334C95.6197 120.321 96.7908 121.609 97.1686 121.804C84.5516 103.233 86.6984 92.0168 87.5607 84.3426C88.9777 71.7173 91.5436 67.3762 91.5436 67.3762C91.5436 67.3762 95.2805 53.7701 81.7213 57.3643C76.9395 60.8578 72.7683 66.7295 72.0379 76.6722C71.1122 89.248 75.2911 101.688 75.2911 101.688Z" fill="url(#paint2_linear_145_17813)"/>
<g style="mix-blend-mode:overlay" opacity="0.6">
<path d="M105.665 46.2344C105.904 46.6495 106.186 47.0379 106.507 47.3927C107.336 48.3689 108.447 49.0627 109.688 49.3779C109.452 48.697 109.43 47.9604 109.625 47.2666C109.619 47.2684 109.613 47.2696 109.606 47.2704C109.462 47.2988 109.316 47.3189 109.17 47.3306C109.161 47.3306 109.152 47.3306 109.142 47.3306C108.518 47.4056 107.885 47.3466 107.286 47.1575C106.686 46.9685 106.134 46.6538 105.665 46.2344Z" fill="#050F1B"/>
</g>
</g>
<path d="M120.411 0H142.539C144.342 0.000168143 146.072 0.71675 147.347 1.99208C148.622 3.2674 149.339 4.99699 149.339 6.80049C149.339 8.60393 148.622 10.3335 147.347 11.6087C146.072 12.884 144.342 13.6004 142.539 13.6004H125.167L120.514 17.835V13.6004H120.411C118.608 13.6004 116.878 12.884 115.603 11.6088C114.328 10.3336 113.611 8.60399 113.611 6.80049C113.611 5.90743 113.787 5.02315 114.129 4.19807C114.47 3.373 114.971 2.62333 115.603 1.99184C116.234 1.36036 116.984 0.859455 117.809 0.517697C118.634 0.175939 119.518 0 120.411 0Z" fill="#F7CF6F"/>
<path d="M138.608 8.09281C139.267 8.09281 139.802 7.55829 139.802 6.89894C139.802 6.23959 139.267 5.70508 138.608 5.70508C137.948 5.70508 137.414 6.23959 137.414 6.89894C137.414 7.55829 137.948 8.09281 138.608 8.09281Z" fill="white"/>
<path d="M131.475 8.09281C132.134 8.09281 132.669 7.55829 132.669 6.89894C132.669 6.23959 132.134 5.70508 131.475 5.70508C130.816 5.70508 130.281 6.23959 130.281 6.89894C130.281 7.55829 130.816 8.09281 131.475 8.09281Z" fill="white"/>
<path d="M124.342 8.09281C125.001 8.09281 125.536 7.55829 125.536 6.89894C125.536 6.23959 125.001 5.70508 124.342 5.70508C123.682 5.70508 123.148 6.23959 123.148 6.89894C123.148 7.55829 123.682 8.09281 124.342 8.09281Z" fill="white"/>
<path d="M56.9624 118.529H148.945" stroke="white" stroke-miterlimit="10"/>
<path d="M232.692 241.043C232.692 241.043 237.492 227.348 233.477 226.758C229.823 226.22 229.552 238.445 228.059 233.426C225.273 224.064 217.358 225.467 214.935 228.374C212.498 231.295 220.993 245.209 220.993 245.209L232.692 241.043Z" fill="#EDA28E"/>
<path d="M365.447 222.229C356.785 213.289 354.345 207.577 352.83 201.761C349.17 187.723 345.626 181.951 340.796 177.069C337.019 173.251 332.491 171.958 328.805 170.91C323.035 169.268 314.025 165.602 305.231 169.863C291.402 176.564 301.562 208.368 301.562 208.368C301.562 208.368 297.898 212.925 299.93 222.063C301.962 231.201 292.936 234.259 292.936 234.259C272.472 246.876 297.424 266.006 297.424 266.006C341.045 288.383 365.697 262.747 365.697 262.747C385.712 246.017 372.499 229.504 365.447 222.229Z" fill="#081D39"/>
<path d="M252.532 291.184L255.785 283.568L281.205 288.669C280.092 293.09 278.629 297.414 276.83 301.603C274.204 307.681 270.375 314.294 265.291 317.537L252.532 291.184Z" fill="#EDA28E"/>
<path d="M294.5 228.529L316.238 256.83L282.27 293.684L277.155 301.877L255.489 283.311C254.956 282.854 254.573 282.246 254.391 281.567C254.209 280.888 254.236 280.17 254.469 279.507C257.349 271.364 268.124 244.483 272.526 239.426C276.808 234.506 285.42 231.337 289.969 229.985L294.5 228.529Z" fill="#B6E4DF"/>
<path d="M220.939 245.095L232.64 240.93L262.765 292.443C273.331 308.517 268.049 315.351 268.049 315.351C258.505 326.093 246.695 317.827 246.695 317.827C240.155 313.014 227.43 274.663 220.939 245.095Z" fill="#EDA28E"/>
<path d="M355.481 348.115L343.535 350.349L307.994 356.984C301.577 358.183 294.977 357.981 288.645 356.392C282.314 354.803 276.4 351.865 271.31 347.778C271.043 347.567 270.828 347.298 270.679 346.993C270.531 346.687 270.453 346.351 270.453 346.011C270.451 345.578 270.577 345.153 270.816 344.791C272.297 342.508 275.127 337.103 279.361 324.756C284.1 310.965 281.192 299.667 277.465 289.072C276.491 286.319 275.465 283.604 274.504 280.916C273.985 279.462 273.478 278.021 273.024 276.566C268.401 262.114 271.868 251.232 285.425 243.31C298.969 235.39 294.502 228.533 294.502 228.533C294.502 228.533 295.086 228.313 296.19 228.001C297.745 227.569 299.323 227.222 300.917 226.962L310.15 225.689L331.03 223.807C339.448 224.881 347.007 225.505 352.845 227.39C352.845 227.39 356.065 244.609 352.599 252.972C352.417 253.4 352.235 253.893 352.041 254.452C352.041 254.454 352.04 254.456 352.04 254.457C352.039 254.459 352.038 254.46 352.037 254.461C352.035 254.462 352.034 254.463 352.032 254.464C352.031 254.465 352.029 254.465 352.027 254.465C351.703 255.4 351.365 256.504 351.001 257.75C349.74 262.304 348.765 266.931 348.08 271.606C346.145 284.344 345.743 300.109 351.157 310.056C352.045 311.691 352.813 313.387 353.456 315.133C359.222 330.611 355.481 348.115 355.481 348.115Z" fill="#B6E4DF"/>
<path d="M285.42 243.314C271.869 251.235 268.401 262.107 273.017 276.561C273.482 278.013 273.981 279.462 274.501 280.916C275.462 283.608 276.488 286.314 277.459 289.07L280.024 297.281" stroke="#91E2D5" stroke-width="1.116" stroke-miterlimit="10"/>
<path d="M352.844 227.393C352.844 227.393 361.386 230.282 365.855 234.386C370.547 238.692 375.99 247.787 377.376 256.516C378.477 263.455 378.123 282.01 377.2 290.455C377.146 290.95 376.986 291.427 376.732 291.854C376.478 292.282 376.135 292.65 375.726 292.934C375.318 293.218 374.853 293.412 374.364 293.501C373.874 293.59 373.371 293.573 372.889 293.452L348.375 287.287L344.287 256.829L352.844 227.393Z" fill="#B6E4DF"/>
<path d="M306.472 184.631C299.351 202.223 300.744 211.082 303.327 215.464C304.101 216.844 305.18 218.028 306.482 218.926C307.783 219.824 309.274 220.411 310.838 220.644L311.602 220.707L311.539 221.468L310.403 227.972C310.164 229.34 310.247 230.745 310.644 232.076C311.041 233.407 311.742 234.628 312.692 235.641C313.642 236.655 314.814 237.434 316.117 237.916C317.419 238.399 318.816 238.572 320.197 238.423L322.87 238.132C325.396 237.858 327.711 236.597 329.311 234.623C330.911 232.649 331.666 230.123 331.411 227.595L329.663 210.262L330.09 210.018C332.777 208.478 334.393 204.511 334.216 201.772C334.159 200.876 333.984 198.148 332.468 197.394C331.307 196.815 329.38 197.377 326.893 199.015L326.623 199.193L326.306 199.122C325.882 199.027 317.716 197.129 313.025 191.346C314.568 195.53 317.642 199.241 322.213 202.425L326.949 205.722L321.518 203.769C321.355 203.715 306.991 198.375 306.472 184.631Z" fill="#EDA28E"/>
<g style="mix-blend-mode:overlay" opacity="0.6">
<path d="M311.602 220.708C311.602 220.708 317.529 220.074 321.578 216.529C321.578 216.529 319.25 221.877 310.898 225.125L311.602 220.708Z" fill="#050F1B"/>
</g>
<path fill-rule="evenodd" clip-rule="evenodd" d="M291.48 332.296C291.48 332.296 278.848 330.24 278.213 333.032C277.843 334.661 279.499 334.852 282.919 336.475C284.83 337.383 271.911 343.968 273.62 345.352C275.268 346.689 280.63 342.797 280.63 342.797C280.63 342.797 273.005 348.262 274.651 349.929C275.905 351.197 283.211 344.869 283.211 344.869C283.211 344.869 276.934 350.698 277.695 351.609C279.257 353.474 286.547 347.413 286.547 347.413C285.556 348.823 284.481 350.171 283.327 351.452C280.474 354.818 285.161 353.151 290.094 350.032C295.026 346.913 298.209 344.706 298.209 344.706L291.48 332.296Z" fill="#EDA28E"/>
<path d="M355.482 348.115L343.535 350.349C345.685 343.768 346.44 336.811 345.754 329.922C343.637 310.315 340.001 302.367 340.066 284.97C340.129 267.959 351.506 255.051 352.025 254.467C351.701 255.402 351.364 256.506 351 257.752C349.738 262.306 348.763 266.933 348.078 271.608C346.143 284.346 345.741 300.111 351.156 310.058C352.043 311.693 352.811 313.389 353.454 315.135C359.222 330.611 355.482 348.115 355.482 348.115Z" fill="#91E2D5"/>
<path d="M358.62 328.075C358.62 328.075 371.716 323.417 373.896 312.297C374.216 311.226 374.432 310.126 374.54 309.013V293.573L349.687 287.613L350.226 304.633L358.62 328.075Z" fill="#EDA28E"/>
<path d="M350.254 304.646L291.48 332.297L298.201 344.712L358.619 328.077L350.254 304.646Z" fill="#EDA28E"/>
<path d="M365.576 154.85V163.39H357.365C355.18 163.387 353.085 162.518 351.54 160.973C349.995 159.428 349.126 157.333 349.123 155.148V140.604H351.329C355.108 140.604 358.731 142.104 361.403 144.776C364.075 147.448 365.576 151.072 365.576 154.85Z" fill="#B1C0E5"/>
<path d="M365.576 163.392V154.852C365.576 151.073 364.075 147.449 361.403 144.778C358.731 142.106 355.108 140.605 351.329 140.605H349.123V79.8594C387.299 96.8198 418.556 126.283 437.739 163.392H365.576Z" fill="#B1C0E5"/>
<path d="M490.793 71.4299V156.741C490.793 157.16 490.627 157.562 490.33 157.858C490.034 158.154 489.632 158.321 489.213 158.321H357.367C356.526 158.321 355.72 157.987 355.126 157.392C354.531 156.798 354.197 155.991 354.197 155.151V71.4299C354.197 70.7335 354.334 70.0438 354.601 69.4004C354.867 68.757 355.258 68.1724 355.75 67.68C356.243 67.1875 356.828 66.7969 357.471 66.5304C358.115 66.264 358.804 66.1269 359.501 66.127H485.49C486.897 66.127 488.246 66.6857 489.24 67.6802C490.235 68.6747 490.793 70.0235 490.793 71.4299Z" fill="white"/>
<path d="M434.636 92.1797H490.793V156.741C490.793 157.16 490.627 157.562 490.33 157.858C490.034 158.154 489.632 158.321 489.213 158.321H434.636V92.1797Z" fill="#C9D2EC"/>
<path d="M490.793 71.4299V75.5422H354.197V71.4299C354.197 70.7335 354.334 70.0438 354.601 69.4003C354.867 68.7568 355.258 68.1722 355.75 67.6797C356.243 67.1873 356.827 66.7967 357.471 66.5303C358.114 66.2638 358.804 66.1268 359.501 66.127H485.49C486.896 66.1276 488.244 66.6866 489.239 67.6809C490.233 68.6752 490.792 70.0236 490.793 71.4299Z" fill="#C9D2EC"/>
<path d="M362.622 73.4377C364.059 73.4377 365.225 72.2725 365.225 70.8351C365.225 69.3977 364.059 68.2324 362.622 68.2324C361.185 68.2324 360.019 69.3977 360.019 70.8351C360.019 72.2725 361.185 73.4377 362.622 73.4377Z" fill="white"/>
<path d="M373.396 70.8368C373.396 71.4466 373.181 72.0369 372.788 72.5031C372.693 72.6246 372.583 72.7341 372.462 72.829C371.995 73.2221 371.404 73.4376 370.793 73.4376C370.183 73.4376 369.592 73.2221 369.124 72.829C369.006 72.7327 368.898 72.6233 368.804 72.5031C368.407 72.0374 368.189 71.4457 368.189 70.834C368.189 70.2224 368.407 69.6306 368.804 69.1649C368.898 69.0448 369.006 68.9357 369.124 68.8397C369.591 68.4463 370.183 68.2305 370.793 68.2305C371.404 68.2305 371.995 68.4463 372.462 68.8397C372.582 68.9358 372.692 69.0448 372.788 69.1649C373.181 69.6333 373.397 70.2253 373.396 70.8368Z" fill="white"/>
<path d="M372.026 71.8651C371.968 71.9399 371.9 72.0074 371.825 72.0661L370.796 71.0332L370.595 70.8354L369.565 69.8032C369.624 69.7289 369.69 69.6613 369.763 69.6016L370.796 70.6344L370.997 70.8354L372.026 71.8651Z" fill="#AFBDE0"/>
<path d="M372.026 69.8032L370.997 70.8354L370.796 71.0332L369.763 72.0661C369.69 72.0063 369.624 71.939 369.565 71.8651L370.796 70.6344L371.825 69.6016C371.899 69.6611 371.967 69.7287 372.026 69.8032Z" fill="#AFBDE0"/>
<path d="M364.222 70.9755H362.763H362.481H361.023C361.013 70.8817 361.013 70.7871 361.023 70.6934H362.763H364.222C364.232 70.7871 364.232 70.8817 364.222 70.9755Z" fill="#AFBDE0"/>
<path d="M490.793 71.4299V156.741C490.793 157.16 490.627 157.562 490.33 157.858C490.034 158.154 489.632 158.321 489.213 158.321H357.367C356.526 158.321 355.72 157.987 355.126 157.392C354.531 156.798 354.197 155.991 354.197 155.151V71.4299C354.197 70.7335 354.334 70.0438 354.601 69.4004C354.867 68.757 355.258 68.1724 355.75 67.68C356.243 67.1875 356.828 66.7969 357.471 66.5304C358.115 66.264 358.804 66.1269 359.501 66.127H485.49C486.897 66.127 488.246 66.6857 489.24 67.6802C490.235 68.6747 490.793 70.0235 490.793 71.4299Z" stroke="white" stroke-width="0.687" stroke-miterlimit="10"/>
<g style="mix-blend-mode:overlay" opacity="0.3">
<path d="M443.942 158.32C443.942 158.32 434.862 129.952 429.955 119.351C422.495 103.233 427.259 67.2188 427.259 67.2188C427.259 67.2188 434.636 75.0495 447.573 79.8586C459.722 84.3741 472.879 99.9843 468.311 134.955C467.249 143.083 462.714 158.188 462.714 158.188L443.942 158.32Z" fill="#161616"/>
</g>
<path d="M400.469 20.2754H371.47C369.107 20.2754 366.841 21.2142 365.17 22.8852C363.499 24.5563 362.56 26.8227 362.56 29.1859C362.56 31.5491 363.499 33.8156 365.17 35.4867C366.841 37.1577 369.107 38.0965 371.47 38.0965H394.236L400.333 43.6454V38.0965H400.469C402.832 38.0965 405.098 37.1577 406.77 35.4867C408.441 33.8156 409.38 31.5492 409.38 29.1859C409.38 26.8226 408.441 24.5562 406.77 22.8852C405.098 21.2141 402.832 20.2754 400.469 20.2754Z" fill="#B6E4DF"/>
<path d="M376.623 30.8795C377.487 30.8795 378.188 30.179 378.188 29.3148C378.188 28.4506 377.487 27.75 376.623 27.75C375.759 27.75 375.058 28.4506 375.058 29.3148C375.058 30.179 375.759 30.8795 376.623 30.8795Z" fill="white"/>
<path d="M385.97 30.8795C386.834 30.8795 387.535 30.179 387.535 29.3148C387.535 28.4506 386.834 27.75 385.97 27.75C385.106 27.75 384.405 28.4506 384.405 29.3148C384.405 30.179 385.106 30.8795 385.97 30.8795Z" fill="white"/>
<path d="M395.316 30.8795C396.181 30.8795 396.881 30.179 396.881 29.3148C396.881 28.4506 396.181 27.75 395.316 27.75C394.452 27.75 393.752 28.4506 393.752 29.3148C393.752 30.179 394.452 30.8795 395.316 30.8795Z" fill="white"/>
<mask id="mask1_145_17813" style="mask-type:luminance" maskUnits="userSpaceOnUse" x="354" y="34" width="137" height="125">
<path d="M490.793 39.9657V156.741C490.793 157.16 490.627 157.561 490.33 157.858C490.034 158.154 489.632 158.32 489.213 158.32H357.367C356.526 158.32 355.72 157.986 355.126 157.392C354.531 156.797 354.197 155.991 354.197 155.15V39.9651C354.197 38.5586 354.756 37.2098 355.751 36.2153C356.745 35.2208 358.094 34.6621 359.501 34.6621H485.49C486.896 34.6621 488.245 35.2209 489.24 36.2155C490.234 37.2101 490.793 38.5591 490.793 39.9657Z" fill="white"/>
</mask>
<g mask="url(#mask1_145_17813)">
<mask id="mask2_145_17813" style="mask-type:luminance" maskUnits="userSpaceOnUse" x="331" y="43" width="138" height="138">
<path d="M331.222 180.768L468.312 180.768V43.6781L331.222 43.6781V180.768Z" fill="white"/>
</mask>
<g mask="url(#mask2_145_17813)">
<path fill-rule="evenodd" clip-rule="evenodd" d="M381.95 113.866C384.62 106.596 393.576 82.5395 401.968 79.2578L410.942 90.5669C409.428 100.043 398.729 136.117 385.049 130.645C386.365 126.149 385.093 120.81 383.045 118.189C382.237 120.106 381.117 121.345 379.884 118.543C378.447 115.279 380.234 114.201 381.95 113.866Z" fill="#663A87"/>
<path fill-rule="evenodd" clip-rule="evenodd" d="M381.95 113.866C384.62 106.596 393.576 82.5395 401.968 79.2578L410.942 90.5669C409.428 100.043 398.729 136.117 385.049 130.645C386.365 126.149 385.093 120.81 383.045 118.189C382.237 120.106 381.117 121.345 379.884 118.543C378.447 115.279 380.234 114.201 381.95 113.866Z" fill="#5E9BA1"/>
<path fill-rule="evenodd" clip-rule="evenodd" d="M381.95 113.866C384.62 106.596 393.576 82.5395 401.968 79.2578L410.942 90.5669C409.428 100.043 398.729 136.117 385.049 130.645C386.365 126.149 385.093 120.81 383.045 118.189C382.237 120.106 381.117 121.345 379.884 118.543C378.447 115.279 380.234 114.201 381.95 113.866Z" fill="#F4B85D"/>
<g style="mix-blend-mode:overlay" opacity="0.2">
<path fill-rule="evenodd" clip-rule="evenodd" d="M381.95 113.866C384.62 106.596 393.576 82.5395 401.968 79.2578L410.942 90.5669C409.428 100.043 398.729 136.117 385.049 130.645C386.365 126.149 385.093 120.81 383.045 118.189C382.237 120.106 381.117 121.345 379.884 118.543C378.447 115.279 380.234 114.201 381.95 113.866Z" fill="#111111"/>
</g>
<path fill-rule="evenodd" clip-rule="evenodd" d="M392.864 114.561C392.855 114.547 389.584 109.652 383.561 111.039C382.08 111.381 381.203 112.624 380.846 114.295C380.587 115.69 380.594 117.122 380.865 118.515C381.142 120.082 381.65 121.599 382.371 123.017C383.907 126.021 386.394 128.387 389.497 128.333V128.452C386.342 128.507 383.818 126.112 382.263 123.071C381.537 121.643 381.025 120.115 380.746 118.537C380.472 117.129 380.465 115.682 380.727 114.272C381.094 112.555 382 111.278 383.533 110.925C389.636 109.519 392.951 114.481 392.961 114.495L392.864 114.561Z" fill="#D8892B"/>
<g style="mix-blend-mode:overlay" opacity="0.3">
<path fill-rule="evenodd" clip-rule="evenodd" d="M381.95 113.866C382.89 114.132 383.779 114.552 384.58 115.11L382.915 111.266L381.95 113.866Z" fill="#050F1B"/>
</g>
<path d="M440.245 141.104C431.453 161.041 411.792 209.645 409.279 231.525C407.803 244.379 389.741 278.956 389.741 278.956C380.85 279.278 377.874 274.034 377.787 273.875C377.787 273.875 383.457 229.925 386.398 205.709C389.339 181.493 391.906 147.496 391.906 147.496L440.245 141.104Z" fill="#4E67E7"/>
<g style="mix-blend-mode:overlay" opacity="0.2">
<path d="M440.245 141.104C431.453 161.041 411.792 209.645 409.279 231.525C407.803 244.379 389.741 278.956 389.741 278.956C380.85 279.278 377.874 274.034 377.787 273.875C377.787 273.875 383.457 229.925 386.398 205.709C389.339 181.493 391.906 147.496 391.906 147.496L440.245 141.104Z" fill="#111111"/>
</g>
<path d="M438.279 232.481L463.96 269.381C464.287 269.853 464.774 270.189 465.331 270.329C465.887 270.469 466.475 270.403 466.987 270.142L476.199 265.441C476.199 265.441 462.191 221.418 452.686 205.452C449.588 200.248 450.141 194.252 450.141 194.252C449.434 178.31 448.759 156.23 446.395 147.5H398.784C398.784 147.5 423.122 206.531 428.484 216.732C428.483 216.73 430.84 221.623 438.279 232.481Z" fill="#4E67E7"/>
<g style="mix-blend-mode:overlay" opacity="0.1">
<path d="M446.395 147.498H398.784C398.784 147.498 441.751 149.838 448.015 155.686L446.395 147.498Z" fill="black"/>
</g>
<path d="M464.33 267.804C464.33 267.804 469.437 265.853 471.388 264.226C471.388 264.226 456.103 222.275 449.111 210.729C442.118 199.183 436.234 163.317 434.46 148.393" stroke="#3A4FC8" stroke-width="0.451" stroke-miterlimit="10"/>
<path fill-rule="evenodd" clip-rule="evenodd" d="M414.339 75.5112C414.339 75.5112 408.633 75.1074 405.315 76.9486C401.624 78.9559 397.691 82.6941 396.364 90.0474C392.778 109.896 392.066 126.483 391.903 147.497C391.903 147.497 392.238 150.604 399.182 150.604C399.657 150.604 400.283 150.582 401.061 150.55H401.169C402.057 150.517 403.113 150.474 404.311 150.41C404.657 150.388 405.013 150.377 405.38 150.356C412.011 149.989 422.075 149.287 430.574 148.671C430.671 148.66 430.757 148.66 430.844 148.65C432.086 148.563 433.295 148.476 434.461 148.39L434.893 148.358C441.524 147.861 446.369 147.494 446.369 147.494H446.391C446.391 125.68 452.103 108.791 450.862 87.3338C450.537 81.665 443.735 78.4144 437.741 76.6543C436.22 76.2105 434.739 75.8657 433.443 75.5956C431.896 75.2612 430.331 75.016 428.756 74.8613L414.336 75.508" fill="#F4B85D"/>
<path d="M427.259 67.2172C427.259 67.2172 427.069 68.5485 427.421 68.8706C427.283 68.8501 427.15 68.7998 427.033 68.7232C426.915 68.6466 426.816 68.5455 426.741 68.4268C426.741 68.4268 426.536 71.2387 428.019 71.7757C426.978 71.8097 425.955 71.5047 425.103 70.9065C423.544 69.8838 425.293 66.791 425.293 66.791L427.259 67.2172Z" fill="#081D39"/>
<path d="M414.124 76.702C413.925 78.4494 415.618 81.605 415.618 81.605L426.903 74.8653L425.908 67.16C423.638 66.7246 421.293 66.8883 419.105 67.6349C417.575 68.1605 417.092 70.9318 415.216 70.6465L414.124 76.702Z" fill="#F7CDBE"/>
<path fill-rule="evenodd" clip-rule="evenodd" d="M411.728 55.9648C411.282 57.7053 410.978 59.4792 410.819 61.2691C410.734 62.2201 410.731 63.2314 410.743 64.2629C410.788 68.0271 411.619 71.9979 414.679 73.6305C414.679 73.6305 425.204 74.3217 425.521 67.471C425.521 67.471 429.596 67.1299 430.023 64.3244C430.449 61.5188 426.648 61.0129 424.925 62.1295C424.487 61.0263 424.426 59.8093 424.75 58.6676C424.75 58.6676 421.152 57.6964 417.274 56.8759C415.367 56.4733 413.051 57.1777 411.728 55.9648Z" fill="#F7CDBE"/>
<g style="mix-blend-mode:overlay">
<path d="M414.679 73.6301C414.679 73.6301 418.377 75.0516 423.096 71.7832C423.096 71.7832 420.433 75.8409 414.288 75.7985L414.679 73.6301Z" fill="#1E1E1E"/>
</g>
<g style="mix-blend-mode:overlay" opacity="0.4">
<path fill-rule="evenodd" clip-rule="evenodd" d="M451.085 93.8301C450.909 106.962 448.545 119.039 447.243 132.004C444.39 113.92 437.436 94.958 437.436 94.958L451.085 93.8301Z" fill="#111111"/>
</g>
<path fill-rule="evenodd" clip-rule="evenodd" d="M464.258 134.014C463.811 131.848 462.56 129.932 460.756 128.653C457.665 126.376 450.041 130.496 450.041 130.496L453.818 137.834L464.258 134.014Z" fill="#F7CDBE"/>
<path fill-rule="evenodd" clip-rule="evenodd" d="M448.335 138.166C448.335 138.166 446.216 142.473 445.799 153.036L458.004 149.852C458.004 149.852 465.583 138.723 464.257 134.014C463.477 133.381 462.601 132.877 461.661 132.523C458.377 131.267 455.519 130.322 452.259 131.739C451.315 132.15 450.823 129.929 450.04 130.496L448.335 138.166Z" fill="#F7CDBE"/>
<path d="M445.799 153.035L443.637 165.835L452.167 167.701L462.7 141.463L445.799 153.035Z" fill="#F7CDBE"/>
<g style="mix-blend-mode:overlay">
<path fill-rule="evenodd" clip-rule="evenodd" d="M450.04 130.495L449.565 132.626C454.846 128.72 460.471 129.139 464.637 133.856C464.938 132.609 464.116 131.163 463.844 130.254C463.041 129.62 463.045 129.442 462.092 129.096C458.749 127.879 454.696 128.344 451.421 129.83C450.47 130.261 450.821 129.908 450.04 130.495C450.081 130.561 449.976 130.44 450.04 130.495Z" fill="#1E1E1E"/>
</g>
<path fill-rule="evenodd" clip-rule="evenodd" d="M464.962 129.402C464.694 108.931 457.061 92.085 450.718 84.8033C445.745 79.0971 439.412 79.092 436.141 86.886C434.452 92.5954 441.524 101.98 448.939 119.574C449.91 121.879 450.888 124.325 451.856 126.922C449.647 126.911 450.951 128.348 450.951 128.348C450.951 128.348 449.413 129.576 449.932 130.435C450.893 130.114 451.885 129.898 452.892 129.79C456.466 129.394 460.464 130.212 463.263 132.407C464.149 133.093 464.905 133.933 465.495 134.886C465.495 134.886 467.531 132.976 464.967 131.498C464.967 131.498 466.533 130.413 465.451 129.676C465.295 129.574 465.133 129.482 464.965 129.402H464.962ZM455.224 127.631H455.253L455.101 127.64L455.206 127.634H455.224V127.631Z" fill="#F4B85D"/>
<g style="mix-blend-mode:overlay" opacity="0.3">
<path fill-rule="evenodd" clip-rule="evenodd" d="M451.224 125.253C451.435 125.802 451.645 126.359 451.853 126.921C453.602 126.674 455.384 126.805 457.078 127.306C457.078 127.306 454.593 124.635 451.224 125.253Z" fill="#050F1B"/>
</g>
<path fill-rule="evenodd" clip-rule="evenodd" d="M439.222 82.4834C439.205 82.4941 433.186 86.2723 438.501 97.2022C439.008 98.2452 439.618 99.4955 440.225 100.741C445.029 110.592 449.767 120.308 451.628 126.058L451.666 126.176H451.539C451.531 126.176 448.729 126.22 450.74 127.888L450.837 127.968L450.732 128.037C450.373 128.274 450.11 128.631 449.988 129.043C449.866 129.455 449.894 129.898 450.066 130.292C451.158 129.979 463.51 126.642 465.579 134.861L465.399 134.906C463.285 126.507 450.077 130.481 450.039 130.493L449.962 130.515L449.928 130.441C449.72 130.022 449.666 129.543 449.776 129.088C449.886 128.633 450.154 128.231 450.531 127.954C448.573 126.268 450.84 126.03 451.411 125.998C449.53 120.249 444.826 110.602 440.056 100.82C439.512 99.7053 438.969 98.5926 438.332 97.2815C432.943 86.2032 439.101 82.3376 439.119 82.3262L439.222 82.4834Z" fill="#D8892B"/>
<g style="mix-blend-mode:multiply" opacity="0.3">
<path d="M428.758 63.8909C428.758 63.8909 428.556 62.8213 427.574 63.1687C427.802 63.6104 427.953 64.0883 428.018 64.5813C428.038 64.8004 428.002 65.021 427.914 65.2225C427.825 65.4241 427.688 65.6 427.513 65.734C427.338 65.8679 427.133 65.9555 426.915 65.9887C426.698 66.0218 426.476 65.9994 426.269 65.9235C425.341 65.6319 425.867 64.031 426.112 63.5701C426.615 62.6178 428.572 62.1473 428.758 63.8909Z" fill="#F0C4C3"/>
</g>
<g style="mix-blend-mode:multiply">
<path d="M425.943 67.4138C425.795 67.4181 425.646 67.4071 425.5 67.3809C425.614 67.5441 425.787 67.6575 425.982 67.6979L425.943 67.4138Z" fill="#F0C4C3"/>
</g>
<g style="mix-blend-mode:multiply">
<path d="M423.446 64.7684C423.446 64.7684 420.489 63.2391 419.937 61.5983C419.315 61.9844 418.597 62.1878 417.866 62.1853C417.866 62.1853 419.629 61.3294 419.591 60.3315C419.59 60.0425 419.478 59.765 419.277 59.5574C419.076 59.3497 418.802 59.2281 418.513 59.2181C418.327 59.1826 415.394 64.1203 410.755 63.6848L414.218 61.9945L416.272 57.7181H415.62C415.62 57.7181 414.147 59.6613 412.885 60.2706C411.623 60.8799 410.867 61.2216 410.747 63.5244L410.196 60.5229C410.196 60.5229 413.81 54.1542 418.312 55.2498C422.813 56.3454 423.446 64.7684 423.446 64.7684Z" fill="#F0C4C3"/>
</g>
<path d="M408.25 58.1499C408.842 59.6488 410.097 62.3706 410.542 63.626C410.452 63.671 410.403 63.6938 410.403 63.6938C410.46 63.6938 410.512 63.6938 410.568 63.69C410.638 63.8766 410.696 64.0671 410.743 64.2606C410.743 64.0704 410.752 63.8707 410.752 63.6798C415.576 63.4738 418.31 59.1086 418.31 59.1086L419.384 59.9505C419.342 60.7291 418.708 61.4627 417.866 62.1804C418.949 62.233 420.089 60.7856 420.089 60.7856C420.497 63.0414 423.449 64.7653 423.449 64.7653C425.741 59.7914 429.21 62.2209 429.21 62.2209C430.605 57.3117 431.049 55.6176 428.928 53.6496C426.807 51.6816 424.071 52.8254 422.726 51.5853C421.38 50.3451 423.502 47.5909 423.502 47.5909C421.808 48.0144 421.073 50.9601 421.073 50.9601C419.469 51.0127 419.107 47.3887 419.107 47.3887C418.624 48.4754 419.505 50.8288 419.568 51.0026C419.418 50.7965 416.877 47.4051 413.321 47.6036C409.652 47.8097 409.652 52.8768 409.652 52.8768C407.215 53.2401 407.474 56.1857 408.25 58.1499ZM410.745 63.5213C410.699 62.8764 410.734 62.2284 410.848 61.592C410.917 61.3562 411.043 61.1406 411.214 60.964C411.385 60.7873 411.596 60.6548 411.83 60.5776C413.582 60.0298 415.618 57.7162 415.618 57.7162C415.422 60.7506 411.907 62.8949 410.745 63.5213Z" fill="#081D39"/>
<g style="mix-blend-mode:overlay" opacity="0.3">
<path d="M425.205 81.6029C422.05 80.8795 418.772 80.8795 415.618 81.6029L419.693 79.541L424.847 80.2968L425.205 81.6029Z" fill="#050F1B"/>
</g>
<path d="M415.618 81.6037C415.618 81.6037 421.472 77.7577 425.205 81.6037L428.389 74.8627L427.086 73.0241C427.029 72.9412 426.943 72.8822 426.845 72.8588C426.747 72.8354 426.644 72.8491 426.556 72.8973C424.19 74.2243 420.19 77.5631 415.618 81.6037Z" fill="white"/>
<g style="mix-blend-mode:overlay" opacity="0.3">
<path d="M415.618 81.6029C415.618 81.6029 411.51 78.6978 408.633 80.267L409.958 79.1473L412.747 78.8867L415.342 80.7812L415.618 81.6029Z" fill="#050F1B"/>
</g>
<path d="M415.618 81.6032C415.618 81.6032 412.067 76.9919 408.633 80.2673L413.804 74.459L415.618 81.6032Z" fill="white"/>
<path d="M413.804 74.4621L414.565 74.2656L414.236 76.0821L413.804 74.4621Z" fill="#E59E41"/>
</g>
</g>
<path fill-rule="evenodd" clip-rule="evenodd" d="M387.413 118.92C378.503 113.404 365.897 114.153 347.838 109.277L344.858 115.532C344.858 115.532 365.095 128.055 379.579 131.7C383.651 132.545 387.115 130.364 388.981 125.423C390.336 121.837 388.652 119.839 387.413 118.92Z" fill="#F7CDBE"/>
<path fill-rule="evenodd" clip-rule="evenodd" d="M344.855 115.532L347.835 109.277C347.835 109.277 342.868 100.537 340.265 100.766C337.662 100.996 341.477 104.518 342.058 105.896C342.639 107.274 338.274 104.748 334.982 104.135C331.689 103.523 333.288 112.688 344.854 115.532" fill="#F7CDBE"/>
<g style="mix-blend-mode:overlay" opacity="0.6">
<path fill-rule="evenodd" clip-rule="evenodd" d="M379.565 131.697C369.307 129.114 352.255 120.169 344.856 115.529C345.665 115.694 348.929 117.35 350.082 117.855C353.198 119.25 366.532 126.017 377.579 128.619C386.962 130.827 387.723 123.005 387.528 119.002C388.75 119.959 390.296 121.942 388.977 125.425C387.112 130.37 383.642 132.55 379.565 131.697Z" fill="#1E1E1E"/>
</g>
<path d="M263.458 345.454H145.496C144.968 345.454 144.457 345.269 144.053 344.93C143.649 344.59 143.377 344.12 143.285 343.6L129.791 267.288C129.682 266.673 129.709 266.042 129.871 265.439C130.032 264.836 130.323 264.275 130.725 263.797C131.126 263.319 131.627 262.934 132.193 262.67C132.758 262.406 133.375 262.27 133.999 262.27H250.581C251.102 262.269 251.607 262.451 252.009 262.782C252.412 263.113 252.686 263.574 252.786 264.085L267.654 340.363C267.774 340.982 267.757 341.62 267.602 342.231C267.447 342.842 267.158 343.412 266.757 343.898C266.356 344.385 265.852 344.777 265.282 345.046C264.712 345.315 264.089 345.454 263.458 345.454Z" fill="#AFBDE0"/>
<path d="M260.132 345.454H147.454C146.926 345.454 146.415 345.269 146.011 344.93C145.607 344.59 145.335 344.12 145.243 343.6L131.749 267.288C131.64 266.673 131.667 266.042 131.828 265.439C131.99 264.836 132.281 264.275 132.682 263.797C133.084 263.319 133.585 262.934 134.15 262.67C134.716 262.406 135.333 262.27 135.957 262.27H248.493C250.153 262.27 251.762 262.847 253.044 263.903C254.325 264.959 255.2 266.428 255.518 268.057L268.942 336.928C269.144 337.965 269.114 339.033 268.855 340.057C268.595 341.08 268.112 342.034 267.44 342.849C266.769 343.663 265.925 344.32 264.97 344.77C264.015 345.221 262.972 345.454 261.916 345.454H260.132Z" fill="#C9D2EC"/>
<path d="M209.499 319.303H182.83L175.797 353.591H201.587L209.499 319.303Z" fill="#AFBDE0"/>
<path d="M164.954 361.797H227.083V353.591H164.954V361.797Z" fill="#C9D2EC"/>
<path d="M209.499 319.303L209.875 345.454H203.464L209.499 319.303Z" fill="#AFBDE0"/>
<path d="M209.499 319.303L209.875 345.454H203.464L209.499 319.303Z" fill="#91A9D8"/>
<path d="M131.682 296.797H94.2264V126.66" stroke="#91A9D8" stroke-width="1.675" stroke-miterlimit="10"/>
<path d="M166.547 62.1738H246.596V121.623H344.855" stroke="#91A9D8" stroke-width="1.675" stroke-miterlimit="10"/>
<path d="M450.372 163.393V210.079H377.206V237.536" stroke="#91A9D8" stroke-width="1.675" stroke-miterlimit="10"/>
<path d="M504.262 360.812H3.73819C1.67365 360.812 0 362.486 0 364.551C0 366.615 1.67365 368.289 3.73819 368.289H504.262C506.326 368.289 508 366.615 508 364.551C508 362.486 506.326 360.812 504.262 360.812Z" fill="#BDB0FF" fill-opacity="0.2"/>
<path d="M282.828 354.75H234.771V360.813H282.828V354.75Z" fill="#AFBDE0"/>
<path d="M261.259 350.348H256.341V354.75H261.259V350.348Z" fill="#91A9D8"/>
<path d="M269.328 350.348H264.409V354.75H269.328V350.348Z" fill="#91A9D8"/>
<path d="M277.395 350.348H272.477V354.75H277.395V350.348Z" fill="#91A9D8"/>
<path d="M253.852 350.348H248.933V354.75H253.852V350.348Z" fill="#91A9D8"/>
<path d="M244.171 350.348H239.253V354.75H244.171V350.348Z" fill="#91A9D8"/>
<path d="M246.596 100.762C255.702 100.762 263.084 93.3798 263.084 84.2735C263.084 75.1673 255.702 67.7852 246.596 67.7852C237.49 67.7852 230.108 75.1673 230.108 84.2735C230.108 93.3798 237.49 100.762 246.596 100.762Z" fill="white"/>
<path d="M253.439 90.6912L251.645 92.4848C251.623 92.5027 251.602 92.5221 251.582 92.5431C251.38 92.7487 251.122 92.8906 250.84 92.9513C250.559 93.0119 250.265 92.9886 249.997 92.8842C247.302 91.9333 244.854 90.3914 242.833 88.3716C240.812 86.3517 239.268 83.9052 238.315 81.2113C238.203 80.9305 238.182 80.6221 238.253 80.3285C238.324 80.0349 238.485 79.7706 238.712 79.5723L238.763 79.5267L240.587 77.6848C240.632 77.6403 240.692 77.6152 240.755 77.6152C240.818 77.6152 240.879 77.6403 240.923 77.6848L243.795 80.5576C243.84 80.6023 243.865 80.6628 243.865 80.7259C243.865 80.789 243.84 80.8495 243.795 80.8942L242.527 82.1623C242.427 82.262 242.362 82.3918 242.343 82.5319C242.324 82.672 242.351 82.8147 242.421 82.9377C243.8 85.3833 245.822 87.4051 248.267 88.7846C248.391 88.8534 248.533 88.8803 248.673 88.8609C248.813 88.8416 248.943 88.7772 249.043 88.6775L250.232 87.4881C250.277 87.4436 250.337 87.4185 250.4 87.4185C250.463 87.4185 250.523 87.4436 250.568 87.4881L253.441 90.3608C253.485 90.4054 253.51 90.4655 253.51 90.5282C253.51 90.5909 253.485 90.651 253.441 90.6956L253.439 90.6912Z" fill="#8247FF"/>
<path d="M250.716 84.0479C250.548 84.0478 250.385 83.9858 250.258 83.8736C250.132 83.7614 250.052 83.6068 250.032 83.4392C249.944 82.6944 249.608 82.0008 249.077 81.4705C248.547 80.9402 247.854 80.6041 247.109 80.5163C247.017 80.5074 246.928 80.4803 246.848 80.4366C246.767 80.3929 246.695 80.3335 246.638 80.2619C246.58 80.1902 246.537 80.1077 246.512 80.0193C246.487 79.9309 246.479 79.8383 246.49 79.747C246.501 79.6557 246.53 79.5675 246.576 79.4876C246.621 79.4077 246.682 79.3376 246.755 79.2816C246.828 79.2255 246.911 79.1846 247 79.1613C247.089 79.1379 247.182 79.1326 247.273 79.1456C248.325 79.2694 249.305 79.7442 250.055 80.4934C250.804 81.2427 251.279 82.2227 251.402 83.275C251.413 83.365 251.406 83.4562 251.382 83.5436C251.358 83.6309 251.316 83.7126 251.26 83.7839C251.204 83.8552 251.135 83.9148 251.056 83.9592C250.977 84.0036 250.89 84.032 250.799 84.0428C250.772 84.0463 250.744 84.048 250.716 84.0479Z" fill="#8247FF"/>
<path d="M254.291 84.1109C254.113 84.1109 253.941 84.0418 253.813 83.9182C253.684 83.7946 253.608 83.6259 253.601 83.4477C253.525 81.7475 252.816 80.1373 251.612 78.9338C250.409 77.7302 248.799 77.0204 247.099 76.9439C247.008 76.9422 246.919 76.9225 246.836 76.8861C246.752 76.8498 246.677 76.7974 246.614 76.732C246.488 76.6 246.418 76.4229 246.422 76.2398C246.426 76.0567 246.502 75.8825 246.634 75.7556C246.766 75.6287 246.943 75.5594 247.126 75.563C247.135 75.5623 247.145 75.5623 247.154 75.563C249.201 75.655 251.139 76.5094 252.587 77.9582C254.036 79.407 254.89 81.3452 254.982 83.3919C254.989 83.575 254.923 83.7534 254.798 83.8879C254.674 84.0225 254.501 84.1022 254.318 84.1097L254.291 84.1109Z" fill="#8247FF"/>
<path d="M94.2239 223.805C103.33 223.805 110.712 216.423 110.712 207.317C110.712 198.21 103.33 190.828 94.2239 190.828C85.1176 190.828 77.7355 198.21 77.7355 207.317C77.7355 216.423 85.1176 223.805 94.2239 223.805Z" fill="white"/>
<path d="M101.066 213.733L99.2734 215.527C99.2511 215.545 99.2299 215.565 99.21 215.586C99.0081 215.791 98.7503 215.933 98.4685 215.993C98.1868 216.054 97.8935 216.03 97.625 215.926C94.9302 214.975 92.4824 213.434 90.461 211.414C88.4396 209.394 86.8959 206.948 85.9431 204.254C85.8315 203.973 85.8097 203.664 85.8809 203.371C85.9521 203.077 86.1128 202.813 86.3407 202.615L86.3907 202.568L88.2155 200.73C88.26 200.685 88.3205 200.66 88.3835 200.66C88.4465 200.66 88.5069 200.685 88.5515 200.73L91.4242 203.602C91.4687 203.647 91.4936 203.708 91.4936 203.771C91.4936 203.834 91.4687 203.894 91.4242 203.939L90.1562 205.207C90.056 205.307 89.9912 205.437 89.972 205.577C89.9528 205.717 89.9801 205.86 90.0497 205.983C91.4288 208.428 93.4505 210.45 95.896 211.829C96.0193 211.898 96.1616 211.925 96.3015 211.905C96.4414 211.886 96.5712 211.822 96.6714 211.722L97.8608 210.533C97.8829 210.511 97.909 210.493 97.9379 210.481C97.9667 210.469 97.9976 210.463 98.0289 210.463C98.0601 210.463 98.091 210.469 98.1198 210.481C98.1487 210.493 98.1748 210.511 98.1969 210.533L101.069 213.405C101.091 213.427 101.108 213.453 101.12 213.482C101.132 213.511 101.138 213.542 101.138 213.573C101.138 213.604 101.132 213.635 101.12 213.664C101.108 213.692 101.091 213.718 101.069 213.74L101.066 213.733Z" fill="#8247FF"/>
<path d="M98.3446 207.089C98.1758 207.089 98.0129 207.027 97.8868 206.915C97.7606 206.803 97.6799 206.648 97.6599 206.481C97.5721 205.736 97.2359 205.042 96.7056 204.512C96.1753 203.982 95.4818 203.646 94.737 203.558C94.5552 203.536 94.3894 203.443 94.2762 203.299C94.163 203.155 94.1117 202.972 94.1334 202.79C94.1552 202.608 94.2483 202.443 94.3923 202.329C94.5363 202.216 94.7194 202.165 94.9012 202.187C95.9536 202.31 96.9336 202.785 97.6828 203.535C98.4321 204.284 98.9069 205.264 99.0306 206.317C99.0524 206.498 99.0012 206.681 98.8881 206.825C98.7751 206.969 98.6094 207.062 98.4277 207.084C98.4001 207.088 98.3724 207.089 98.3446 207.089Z" fill="#8247FF"/>
<path d="M101.919 207.153C101.741 207.153 101.569 207.084 101.441 206.961C101.312 206.837 101.236 206.668 101.229 206.49C101.153 204.79 100.443 203.18 99.2399 201.976C98.0365 200.772 96.4264 200.062 94.7261 199.986C94.5458 199.978 94.3758 199.9 94.2523 199.768C94.1288 199.637 94.0617 199.462 94.0653 199.282C94.069 199.102 94.1431 198.93 94.2718 198.803C94.4005 198.677 94.5736 198.606 94.754 198.605H94.7819C96.8286 198.698 98.7668 199.552 100.215 201.001C101.664 202.45 102.518 204.388 102.61 206.435C102.617 206.618 102.551 206.796 102.426 206.931C102.302 207.065 102.129 207.145 101.946 207.152L101.919 207.153Z" fill="#8247FF"/>
<path d="M447.5 224.83C456.606 224.83 463.988 217.448 463.988 208.342C463.988 199.236 456.606 191.854 447.5 191.854C438.393 191.854 431.011 199.236 431.011 208.342C431.011 217.448 438.393 224.83 447.5 224.83Z" fill="white"/>
<path d="M454.343 214.76L452.549 216.554C452.527 216.572 452.505 216.592 452.486 216.613C452.284 216.818 452.026 216.96 451.744 217.021C451.463 217.081 451.169 217.058 450.901 216.953C448.206 216.003 445.758 214.461 443.737 212.441C441.715 210.421 440.172 207.974 439.219 205.28C439.107 204.999 439.086 204.691 439.157 204.397C439.228 204.104 439.389 203.84 439.617 203.641L439.666 203.596L441.491 201.757C441.536 201.713 441.596 201.688 441.659 201.688C441.722 201.688 441.783 201.713 441.827 201.757L444.699 204.63C444.744 204.675 444.769 204.735 444.769 204.798C444.769 204.862 444.744 204.922 444.699 204.967L443.431 206.235C443.331 206.335 443.266 206.465 443.247 206.605C443.228 206.745 443.255 206.887 443.325 207.011C444.704 209.456 446.726 211.478 449.171 212.857C449.294 212.926 449.437 212.952 449.577 212.933C449.717 212.914 449.846 212.849 449.946 212.75L451.136 211.56C451.158 211.538 451.184 211.521 451.213 211.509C451.242 211.497 451.273 211.49 451.304 211.49C451.335 211.49 451.366 211.497 451.395 211.509C451.424 211.521 451.45 211.538 451.472 211.56L454.345 214.433C454.389 214.478 454.414 214.538 454.414 214.601C454.414 214.664 454.389 214.724 454.345 214.768L454.343 214.76Z" fill="#8247FF"/>
<path d="M451.62 208.116C451.452 208.116 451.289 208.054 451.163 207.942C451.036 207.83 450.956 207.676 450.936 207.508C450.848 206.763 450.512 206.07 449.982 205.539C449.451 205.009 448.758 204.673 448.013 204.585C447.831 204.563 447.665 204.47 447.552 204.326C447.439 204.182 447.387 203.999 447.409 203.817C447.431 203.636 447.524 203.47 447.668 203.357C447.812 203.243 447.995 203.192 448.177 203.214C449.229 203.338 450.209 203.812 450.959 204.562C451.708 205.311 452.183 206.291 452.306 207.343C452.317 207.433 452.31 207.525 452.286 207.612C452.261 207.699 452.22 207.781 452.164 207.852C452.108 207.923 452.039 207.983 451.959 208.027C451.88 208.072 451.793 208.1 451.703 208.111C451.676 208.115 451.648 208.116 451.62 208.116Z" fill="#8247FF"/>
<path d="M455.195 208.181C455.016 208.181 454.845 208.111 454.717 207.988C454.588 207.864 454.512 207.696 454.505 207.518C454.429 205.817 453.72 204.207 452.516 203.003C451.313 201.8 449.703 201.09 448.002 201.013C447.822 201.005 447.652 200.927 447.529 200.796C447.405 200.665 447.338 200.49 447.342 200.31C447.345 200.129 447.419 199.958 447.548 199.831C447.676 199.705 447.849 199.633 448.03 199.633H448.058C450.104 199.725 452.042 200.579 453.491 202.028C454.94 203.477 455.794 205.415 455.885 207.462C455.892 207.645 455.827 207.823 455.702 207.958C455.578 208.093 455.405 208.172 455.222 208.179L455.195 208.181Z" fill="#8247FF"/>
<path d="M259.447 148.074H210.71C206.738 148.074 202.929 149.652 200.12 152.461C197.312 155.269 195.734 159.079 195.734 163.051C195.734 167.022 197.312 170.831 200.121 173.64C202.929 176.448 206.738 178.026 210.71 178.026H248.971L259.218 187.352V178.026H259.447C263.419 178.026 267.228 176.448 270.036 173.64C272.845 170.831 274.422 167.022 274.422 163.051C274.423 161.084 274.035 159.136 273.283 157.319C272.53 155.502 271.427 153.851 270.036 152.461C268.646 151.07 266.995 149.967 265.178 149.214C263.361 148.462 261.414 148.074 259.447 148.074Z" fill="#8247FF"/>
<path d="M219.369 165.895C220.821 165.895 221.998 164.718 221.998 163.266C221.998 161.814 220.821 160.637 219.369 160.637C217.917 160.637 216.74 161.814 216.74 163.266C216.74 164.718 217.917 165.895 219.369 165.895Z" fill="white"/>
<path d="M235.078 165.895C236.531 165.895 237.708 164.718 237.708 163.266C237.708 161.814 236.531 160.637 235.078 160.637C233.626 160.637 232.449 161.814 232.449 163.266C232.449 164.718 233.626 165.895 235.078 165.895Z" fill="white"/>
<path d="M250.787 165.895C252.239 165.895 253.416 164.718 253.416 163.266C253.416 161.814 252.239 160.637 250.787 160.637C249.335 160.637 248.158 161.814 248.158 163.266C248.158 164.718 249.335 165.895 250.787 165.895Z" fill="white"/>
<path d="M42.177 336.973C42.177 336.973 22.821 307.026 35.7246 304.017C48.6282 301.007 55.8865 330.954 56.9643 336.973H42.177Z" fill="#C2DCCC"/>
<path d="M71.7484 336.973C71.7484 336.973 91.1038 307.026 78.2002 304.017C65.2966 301.007 58.0383 330.954 56.9604 336.973H71.7484Z" fill="#8EACA8"/>
<path d="M48.5039 336.973C48.5039 336.973 42.6949 295.133 54.8181 295.133C66.9412 295.133 65.4265 333.712 65.4265 336.973H48.5039Z" fill="#D9E7DE"/>
<path d="M71.9005 360.871H41.3698L36.5513 337.227H76.7134L71.9005 360.871Z" fill="#C9D2EC"/>
<path d="M66.2546 360.871H71.8974L76.6342 337.227H71.0681L66.2546 360.871Z" fill="#AFBDE0"/>
<defs>
<linearGradient id="paint0_linear_145_17813" x1="5930.42" y1="35.0478" x2="5938.1" y2="75.1987" gradientUnits="userSpaceOnUse">
<stop/>
<stop offset="1" stop-color="white" stop-opacity="0"/>
</linearGradient>
<linearGradient id="paint1_linear_145_17813" x1="5900.84" y1="88.0105" x2="5915.55" y2="88.4505" gradientUnits="userSpaceOnUse">
<stop stop-color="white" stop-opacity="0"/>
<stop offset="1"/>
</linearGradient>
<linearGradient id="paint2_linear_145_17813" x1="5938.52" y1="88.8945" x2="5964.25" y2="89.7317" gradientUnits="userSpaceOnUse">
<stop stop-color="white" stop-opacity="0"/>
<stop offset="1"/>
</linearGradient>
</defs>
</svg>
