<svg width="509" height="367" viewBox="0 0 509 367" fill="none" xmlns="http://www.w3.org/2000/svg">
<path d="M262.137 41.0352C262.137 41.0352 162.835 43.7919 141.901 91.904C115.436 152.732 182.208 191.62 257.523 205.419C332.839 219.218 344.061 242.055 344.061 242.055" stroke="#C9D2EC" stroke-width="0.929497" stroke-miterlimit="10" stroke-dasharray="1.86 1.86"/>
<path d="M90.9733 261.398L82.5803 254.411C84.2037 279.663 98.2523 276.844 98.2523 276.844C103.414 250.955 119.328 225.87 124.208 218.187C129.087 210.504 142.763 195.31 153.079 185.374C163.394 175.438 167.814 166.535 167.814 166.535C161.57 172.892 145.687 176.504 145.687 176.504C145.687 179.355 142.836 189.655 142.836 189.655C142.836 185.713 140.647 178.257 140.647 178.257C136.591 178.806 132.017 181.52 132.017 181.52L135.086 198.848L126.968 184.226C117.766 187.473 103.331 195.414 104.05 202.095C104.744 208.557 114.762 220.538 115.384 221.281L96.2867 205.706L91.9568 230.425C94.1214 236.379 106.579 242.058 106.579 242.058C100.262 243.044 87.2722 232.589 87.2722 232.589C87.2722 232.589 82.5791 245.943 82.5791 249.369C82.5803 252.695 90.4807 260.889 90.9733 261.398Z" fill="#ABD2F4"/>
<path d="M90.9733 261.398L82.5803 254.411C84.2037 279.663 98.2523 276.844 98.2523 276.844C103.414 250.955 119.328 225.87 124.208 218.187C129.087 210.504 142.763 195.31 153.079 185.374C163.394 175.438 167.814 166.535 167.814 166.535C161.57 172.892 145.687 176.504 145.687 176.504C145.687 179.355 142.836 189.655 142.836 189.655C142.836 185.713 140.647 178.257 140.647 178.257C136.591 178.806 132.017 181.52 132.017 181.52L135.086 198.848L126.968 184.226C117.766 187.473 103.331 195.414 104.05 202.095C104.744 208.557 114.762 220.538 115.384 221.281L96.2867 205.706L91.9568 230.425C94.1214 236.379 106.579 242.058 106.579 242.058C100.262 243.044 87.2722 232.589 87.2722 232.589C87.2722 232.589 82.5791 245.943 82.5791 249.369C82.5803 252.695 90.4807 260.889 90.9733 261.398Z" fill="#C2DCCC"/>
<path d="M98.2523 276.847C106.653 277.412 111.616 261.853 112.93 257.25C114.244 252.647 117.64 247.062 124.652 241.15C131.663 235.238 137.357 225.373 137.357 225.373C131.33 229.533 123.228 227.894 123.228 227.894C138.455 220.445 139.658 212.117 139.658 212.117C149.078 206.971 159.596 183.301 159.596 183.301C164.75 177.501 167.812 166.539 167.812 166.539C167.812 166.539 163.385 175.441 153.076 185.378C142.768 195.315 129.076 210.501 124.205 218.191C119.334 225.881 103.411 250.953 98.2523 276.847Z" fill="#ABD2F4"/>
<path d="M98.2523 276.847C106.653 277.412 111.616 261.853 112.93 257.25C114.244 252.647 117.64 247.062 124.652 241.15C131.663 235.238 137.357 225.373 137.357 225.373C131.33 229.533 123.228 227.894 123.228 227.894C138.455 220.445 139.658 212.117 139.658 212.117C149.078 206.971 159.596 183.301 159.596 183.301C164.75 177.501 167.812 166.539 167.812 166.539C167.812 166.539 163.385 175.441 153.076 185.378C142.768 195.315 129.076 210.501 124.205 218.191C119.334 225.881 103.411 250.953 98.2523 276.847Z" fill="#8EACA8"/>
<path d="M124.205 218.184L110.689 192.664" stroke="#8EACA8" stroke-width="0.403921" stroke-miterlimit="10"/>
<path d="M127.733 213.346L115.151 189.59" stroke="#8EACA8" stroke-width="0.403921" stroke-miterlimit="10"/>
<path d="M104.616 354.132C103.337 351.383 101.843 348.671 100.283 346.034C98.7246 343.388 97.0124 340.834 95.2151 338.347L93.8422 336.5C93.3724 335.894 92.8834 335.304 92.4039 334.705C91.466 333.489 90.4059 332.382 89.4021 331.223C87.3296 328.973 85.0768 326.895 82.6661 325.011L81.763 324.307L81.3111 323.955L80.8316 323.641L78.9181 322.391C78.2772 321.976 77.6147 321.596 76.9332 321.252C76.2549 320.901 75.6029 320.497 74.9029 320.191C73.5042 319.575 72.1288 318.901 70.6731 318.421C69.9498 318.175 69.2468 317.865 68.5067 317.668L66.3007 317.03C60.3593 315.458 54.183 314.971 48.0686 315.592C45.0213 315.9 42.0255 316.594 39.1529 317.657L38.0868 318.072L37.068 318.582C36.7342 318.762 36.3758 318.904 36.0612 319.114L35.1113 319.734C33.8622 320.587 32.7774 321.659 31.9093 322.898C31.0332 324.14 30.3576 325.513 29.9071 326.966C29.4419 328.419 29.1524 329.924 29.0447 331.446C28.8575 334.514 29.2276 337.59 30.1372 340.525C31.0277 343.475 32.3283 346.285 34.0009 348.873C35.6643 351.473 37.6129 353.878 39.8103 356.045C44.263 360.35 49.4032 363.882 55.0191 366.494C49.3641 363.937 44.1761 360.453 39.6689 356.186C37.4344 354.03 35.4477 351.631 33.7461 349.034C32.0277 346.437 30.6828 343.611 29.7507 340.64C28.7932 337.662 28.3834 334.535 28.5413 331.411C28.6356 329.845 28.9173 328.296 29.3803 326.797C29.8328 325.284 30.5191 323.852 31.4143 322.551C32.3109 321.242 33.4359 320.105 34.7356 319.195L35.7208 318.536C36.048 318.314 36.4124 318.163 36.757 317.974L37.8063 317.434L38.8964 316.995C41.8188 315.877 44.8711 315.135 47.9804 314.785C54.1988 314.085 60.4924 314.514 66.5584 316.051L68.8165 316.678C69.574 316.871 70.2962 317.178 71.0381 317.423C72.5303 317.898 73.9452 318.57 75.3835 319.186C76.1027 319.492 76.7763 319.898 77.475 320.25C78.1782 320.595 78.8626 320.977 79.5252 321.395L81.5094 322.661L82.0039 322.98L82.4713 323.336L83.4062 324.047C85.8924 325.946 88.2192 328.046 90.3633 330.325C91.3983 331.491 92.4914 332.611 93.458 333.835C93.9512 334.439 94.4564 335.034 94.9407 335.644L96.355 337.506C98.208 340.011 99.9723 342.583 101.583 345.25C103.193 347.917 104.726 350.615 106.089 353.46L104.616 354.132Z" fill="#8EACA8"/>
<path d="M92.3841 353.298C89.9797 346.971 87.6691 340.614 85.4521 334.226C83.2486 327.832 81.1163 321.407 79.3639 314.862C79.1308 314.049 78.9571 313.217 78.7509 312.395C78.5447 311.574 78.3745 310.741 78.2163 309.906C77.8638 308.239 77.6728 306.541 77.6458 304.836C77.6044 303.129 77.7641 301.423 78.1216 299.754C78.4682 298.077 79.0983 296.471 79.9848 295.006C80.8733 293.535 82.1096 292.304 83.5853 291.422C85.0743 290.576 86.7442 290.1 88.4552 290.032C91.8711 289.869 95.19 290.941 98.2499 292.326C95.1702 290.986 91.8376 289.969 88.4642 290.183C86.7847 290.274 85.1514 290.766 83.701 291.617C82.2755 292.498 81.0882 293.716 80.2437 295.164C78.5285 298.05 77.9988 301.499 78.1 304.826C78.1514 306.502 78.3645 308.169 78.7365 309.804C78.9055 310.627 79.0792 311.448 79.3028 312.262C79.5263 313.075 79.7043 313.896 79.9488 314.704C81.7898 321.192 84.0138 327.573 86.3091 333.923C88.6044 340.272 91.0207 346.584 93.512 352.855L92.3841 353.298Z" fill="#8EACA8"/>
<path d="M98.2524 276.848C98.2524 276.848 86.9858 329.872 92.95 353.083" stroke="#8EACA8" stroke-width="0.599289" stroke-miterlimit="10"/>
<path d="M107.054 353.797V325.305" stroke="#8EACA8" stroke-width="0.599289" stroke-miterlimit="10"/>
<path d="M167.814 252.127C167.814 252.127 145.88 258.234 135.797 256.664C125.714 255.093 128.174 266.474 128.174 266.474C128.174 266.474 110.819 273.561 110.819 280.497C110.819 287.433 116.016 293.906 116.016 293.906C116.016 293.906 111.913 293.085 107.446 285.7C107.446 285.7 100.277 298.041 101.131 303.165C101.686 306.321 102.947 309.312 104.818 311.914C104.818 311.914 102.449 311.156 101.488 309.107C101.488 309.107 104.553 322.232 107.054 325.305C107.054 325.305 115.765 319.951 119.03 314.241C122.295 308.531 136.341 295.166 142.156 284.507C147.971 273.847 162.138 255.281 167.814 252.127Z" fill="#ABD2F4"/>
<path d="M167.814 252.127C167.814 252.127 145.88 258.234 135.797 256.664C125.714 255.093 128.174 266.474 128.174 266.474C128.174 266.474 110.819 273.561 110.819 280.497C110.819 287.433 116.016 293.906 116.016 293.906C116.016 293.906 111.913 293.085 107.446 285.7C107.446 285.7 100.277 298.041 101.131 303.165C101.686 306.321 102.947 309.312 104.818 311.914C104.818 311.914 102.449 311.156 101.488 309.107C101.488 309.107 104.553 322.232 107.054 325.305C107.054 325.305 115.765 319.951 119.03 314.241C122.295 308.531 136.341 295.166 142.156 284.507C147.971 273.847 162.138 255.281 167.814 252.127Z" fill="#8EACA8"/>
<path d="M47.5143 269.679C47.5143 269.679 42.7673 263.597 41.9253 256.694C41.9253 256.694 27.9506 255.684 23.5728 253.158C23.5728 253.158 35.5927 264.986 47.5143 269.679Z" fill="#ABD2F4"/>
<path d="M47.5143 269.679C47.5143 269.679 42.7673 263.597 41.9253 256.694C41.9253 256.694 27.9506 255.684 23.5728 253.158C23.5728 253.158 35.5927 264.986 47.5143 269.679Z" fill="#8EACA8"/>
<path d="M25.9111 251.097C20.3695 245.458 18.4871 236.241 18.4871 236.241C15.9263 233.575 11.7901 224.875 11.7901 224.875C8.18414 238.786 24.9582 250.451 25.9111 251.097Z" fill="#ABD2F4"/>
<path d="M25.9111 251.096C25.9232 251.108 25.9368 251.119 25.9516 251.128" stroke="#7F51A8" stroke-width="0.161808" stroke-miterlimit="10"/>
<path d="M76.4246 313.24C76.4246 313.24 82.3575 332.035 82.5804 353.074" stroke="#8EACA8" stroke-width="0.403921" stroke-miterlimit="10"/>
<path d="M18.4871 236.241C18.4871 236.241 20.3695 245.458 25.9111 251.097C28.2164 253.6 31.394 255.123 34.789 255.352C34.789 255.352 43.9904 271.735 59.856 275.911C59.856 275.911 50.2674 280.095 41.9061 276.436C41.9061 276.436 52.0119 294.216 58.9858 302.933C61.9343 306.616 64.0996 309.218 66.2163 310.914C69.1079 313.232 71.9029 313.863 76.4269 313.241C76.4269 313.241 102.843 295.598 84.5378 263.398L72.1618 280.887L81.1853 257.129C81.1853 257.129 68.8999 233.734 47.5796 222.7L40.3061 232.985L45.0722 212.418C45.0722 212.418 22.7438 200.882 9.20471 196.867L22.9943 215.464C22.9943 215.464 36.7223 240.486 38.7257 245.752C38.7257 245.752 24.5058 244.02 18.4871 236.241Z" fill="#D9E7DE"/>
<path d="M66.2139 310.915C64.0972 309.219 61.9319 306.617 58.9834 302.934C52.0119 294.217 41.9037 276.437 41.9037 276.437C41.9037 276.437 36.5072 268.706 34.4636 268.254C32.42 267.801 22.6558 294.589 66.2139 310.915Z" fill="#ABD2F4"/>
<path d="M76.4246 313.241C76.4246 313.241 62.2706 268.759 38.7263 245.75" stroke="#8EACA8" stroke-width="0.403921" stroke-miterlimit="10"/>
<path d="M55.0204 266.76L70.7481 242.055" stroke="#8EACA8" stroke-width="0.403921" stroke-miterlimit="10"/>
<path d="M50.1001 259.311L64.6257 235.949" stroke="#8EACA8" stroke-width="0.403921" stroke-miterlimit="10"/>
<path d="M38.7263 245.751C38.7263 245.751 35.2229 224.873 35.5435 221.84C35.5435 221.84 8.92425 210.444 0.000244141 196.863C0.000244141 196.866 14.9855 224.031 38.7263 245.751Z" fill="#ABD2F4"/>
<path d="M25.9111 251.097C20.3695 245.458 18.4871 236.241 18.4871 236.241C15.9263 233.575 11.7901 224.875 11.7901 224.875C8.18414 238.786 24.9582 250.451 25.9111 251.097Z" fill="#8EACA8"/>
<path d="M66.2139 310.915C64.0972 309.219 61.9319 306.617 58.9834 302.934C52.0119 294.217 41.9037 276.437 41.9037 276.437C41.9037 276.437 36.5072 268.706 34.4636 268.254C32.42 267.801 22.6558 294.589 66.2139 310.915Z" fill="#8EACA8"/>
<path d="M38.7263 245.751C38.7263 245.751 35.2229 224.873 35.5435 221.84C35.5435 221.84 8.92425 210.444 0.000244141 196.863C0.000244141 196.866 14.9855 224.031 38.7263 245.751Z" fill="#8EACA8"/>
<path d="M126.58 201.504C127.693 201.504 128.595 200.602 128.595 199.489C128.595 198.377 127.693 197.475 126.58 197.475C125.467 197.475 124.565 198.377 124.565 199.489C124.565 200.602 125.467 201.504 126.58 201.504Z" fill="white"/>
<path d="M107.054 226.486C107.944 226.486 108.666 225.764 108.666 224.874C108.666 223.983 107.944 223.262 107.054 223.262C106.164 223.262 105.442 223.983 105.442 224.874C105.442 225.764 106.164 226.486 107.054 226.486Z" fill="white"/>
<path d="M50.1 235.948C50.8122 235.948 51.3896 235.371 51.3896 234.659C51.3896 233.947 50.8122 233.369 50.1 233.369C49.3877 233.369 48.8103 233.947 48.8103 234.659C48.8103 235.371 49.3877 235.948 50.1 235.948Z" fill="white"/>
<path d="M118.737 285.183C119.449 285.183 120.027 284.605 120.027 283.893C120.027 283.181 119.449 282.604 118.737 282.604C118.025 282.604 117.448 283.181 117.448 283.893C117.448 284.605 118.025 285.183 118.737 285.183Z" fill="white"/>
<path d="M114.844 307.354C115.413 307.354 115.875 306.892 115.875 306.322C115.875 305.753 115.413 305.291 114.844 305.291C114.274 305.291 113.812 305.753 113.812 306.322C113.812 306.892 114.274 307.354 114.844 307.354Z" fill="white"/>
<path d="M67.0443 262.451C67.6139 262.451 68.0757 261.99 68.0757 261.42C68.0757 260.85 67.6139 260.389 67.0443 260.389C66.4747 260.389 66.0129 260.85 66.0129 261.42C66.0129 261.99 66.4747 262.451 67.0443 262.451Z" fill="white"/>
<path d="M42.4531 290.536C42.7096 290.536 42.9175 290.328 42.9175 290.072C42.9175 289.815 42.7096 289.607 42.4531 289.607C42.1966 289.607 41.9886 289.815 41.9886 290.072C41.9886 290.328 42.1966 290.536 42.4531 290.536Z" fill="white"/>
<path d="M180.634 33.4648H239.884C244.713 33.4648 249.343 35.383 252.758 38.7973C256.172 42.2117 258.091 46.8425 258.091 51.6712C258.091 56.5 256.173 61.131 252.758 64.5455C249.344 67.96 244.713 69.8782 239.884 69.8782H193.369L180.913 81.2156V69.8782H180.634C178.243 69.8782 175.875 69.4073 173.667 68.4923C171.458 67.5773 169.451 66.2362 167.76 64.5455C166.069 62.8548 164.728 60.8477 163.813 58.6387C162.898 56.4297 162.428 54.0622 162.428 51.6712C162.428 49.2803 162.899 46.9128 163.813 44.7039C164.728 42.495 166.07 40.488 167.76 38.7974C169.451 37.1067 171.458 35.7657 173.667 34.8507C175.876 33.9358 178.243 33.4648 180.634 33.4648Z" fill="#8247FF"/>
<path d="M229.356 55.1295C231.122 55.1295 232.553 53.6984 232.553 51.9329C232.553 50.1675 231.122 48.7363 229.356 48.7363C227.591 48.7363 226.16 50.1675 226.16 51.9329C226.16 53.6984 227.591 55.1295 229.356 55.1295Z" fill="white"/>
<path d="M210.259 55.1295C212.024 55.1295 213.455 53.6984 213.455 51.9329C213.455 50.1675 212.024 48.7363 210.259 48.7363C208.493 48.7363 207.062 50.1675 207.062 51.9329C207.062 53.6984 208.493 55.1295 210.259 55.1295Z" fill="white"/>
<path d="M191.161 55.1295C192.927 55.1295 194.358 53.6984 194.358 51.9329C194.358 50.1675 192.927 48.7363 191.161 48.7363C189.396 48.7363 187.964 50.1675 187.964 51.9329C187.964 53.6984 189.396 55.1295 191.161 55.1295Z" fill="white"/>
<mask id="mask0_144_43083" style="mask-type:luminance" maskUnits="userSpaceOnUse" x="37" y="81" width="302" height="273">
<path d="M37.6687 92.8747V349.846C37.6687 350.768 38.0349 351.652 38.6867 352.304C39.3386 352.956 40.2227 353.322 41.1445 353.322H338.256V92.8711C338.256 91.3386 337.954 89.821 337.368 88.405C336.781 86.9891 335.922 85.7026 334.838 84.6189C333.754 83.5352 332.468 82.6756 331.052 82.0892C329.636 81.5028 328.118 81.201 326.586 81.2012H49.3404C47.8074 81.2009 46.2895 81.5027 44.8732 82.0893C43.4569 82.6759 42.17 83.5358 41.0861 84.6199C40.0022 85.7039 39.1425 86.9909 38.5561 88.4073C37.9698 89.8237 37.6682 91.3417 37.6687 92.8747Z" fill="white"/>
</mask>
<g mask="url(#mask0_144_43083)">
<path d="M127.269 183.919C139.003 171.814 142.311 164.071 144.363 156.191C149.321 137.176 154.122 129.355 160.664 122.742C165.78 117.57 171.918 115.818 176.909 114.399C184.727 112.175 196.93 107.208 208.843 112.981C227.577 122.058 213.813 165.142 213.813 165.142C213.813 165.142 218.777 171.314 216.024 183.693C213.271 196.071 225.498 200.216 225.498 200.216C253.22 217.312 219.419 243.221 219.419 243.221C160.329 273.534 126.931 238.807 126.931 238.807C99.8145 216.143 117.719 193.773 127.269 183.919Z" fill="#081D39"/>
<path d="M280.231 277.314L275.826 266.998L241.391 273.908C242.899 279.895 244.879 285.752 247.314 291.426C250.873 299.659 256.059 308.617 262.95 313.011L280.231 277.314Z" fill="#F09473"/>
<path d="M223.379 192.436L193.931 230.774L239.945 280.7L246.876 291.799L276.225 266.648C276.948 266.029 277.468 265.205 277.714 264.285C277.961 263.366 277.923 262.393 277.606 261.495C273.705 250.464 259.109 214.048 253.146 207.199C247.345 200.535 235.678 196.242 229.517 194.41L223.379 192.436Z" fill="#F4B85D"/>
<path d="M140.768 354.436L156.953 357.462L205.099 366.451C213.792 368.075 222.733 367.802 231.31 365.649C239.887 363.497 247.898 359.516 254.793 353.979C255.155 353.694 255.447 353.33 255.648 352.916C255.849 352.502 255.954 352.047 255.955 351.587C255.957 350.999 255.786 350.424 255.462 349.933C253.456 346.838 249.621 339.52 243.887 322.79C237.467 304.109 241.407 288.805 246.455 274.451C247.774 270.721 249.164 267.045 250.466 263.403C251.17 261.434 251.856 259.48 252.471 257.511C258.734 237.932 254.037 223.19 235.672 212.46C217.325 201.729 223.376 192.444 223.376 192.444C223.376 192.444 222.585 192.144 221.089 191.725C218.982 191.14 216.844 190.67 214.686 190.318L202.179 188.594L173.892 186.043C162.488 187.499 152.251 188.345 144.34 190.897C144.34 190.897 139.977 214.223 144.674 225.551C144.92 226.132 145.167 226.8 145.43 227.557C145.43 227.559 145.431 227.562 145.432 227.564C145.433 227.566 145.434 227.568 145.436 227.569C145.437 227.571 145.439 227.572 145.441 227.573C145.444 227.574 145.446 227.574 145.448 227.574C145.888 228.841 146.347 230.336 146.838 232.025C148.545 238.193 149.867 244.462 150.793 250.794C153.415 268.051 153.959 289.406 146.624 302.881C145.421 305.096 144.38 307.395 143.508 309.76C135.703 330.723 140.768 354.436 140.768 354.436Z" fill="#F4B85D"/>
<g style="mix-blend-mode:overlay" opacity="0.3">
<path d="M235.678 212.469C254.036 223.2 258.734 237.927 252.48 257.507C251.851 259.474 251.175 261.437 250.471 263.407C249.169 267.054 247.778 270.718 246.463 274.452L242.987 285.576" stroke="#050F1B" stroke-width="0.958862" stroke-miterlimit="10"/>
</g>
<path d="M144.342 190.898C144.342 190.898 132.771 194.812 126.716 200.371C120.363 206.205 112.987 218.525 111.11 230.351C109.618 239.749 110.098 264.887 111.35 276.326C111.423 276.996 111.639 277.643 111.984 278.222C112.328 278.802 112.793 279.3 113.346 279.685C113.9 280.07 114.529 280.331 115.192 280.452C115.855 280.573 116.537 280.551 117.19 280.386L149.042 272.869L149.51 235.942L144.342 190.898Z" fill="#F4B85D"/>
<path d="M207.16 132.973C216.809 156.804 214.919 168.805 211.42 174.743C210.373 176.612 208.911 178.216 207.148 179.433C205.384 180.649 203.365 181.445 201.246 181.76L200.211 181.849L200.301 182.884L201.839 191.693C202.163 193.547 202.051 195.45 201.513 197.253C200.974 199.056 200.024 200.709 198.738 202.082C197.451 203.455 195.863 204.51 194.098 205.164C192.334 205.818 190.442 206.053 188.571 205.85L184.95 205.457C181.529 205.086 178.392 203.377 176.225 200.703C174.058 198.03 173.035 194.607 173.38 191.183L175.747 167.702L175.169 167.371C171.53 165.285 169.34 159.911 169.579 156.2C169.657 154.986 169.895 151.292 171.948 150.268C173.52 149.485 176.131 150.245 179.499 152.464L179.866 152.704L180.294 152.607C180.869 152.478 191.93 149.91 198.284 142.073C196.195 147.74 192.03 152.768 185.838 157.082L179.426 161.552L186.782 158.904C186.998 158.83 206.458 151.593 207.16 132.973Z" fill="#F7CDBE"/>
<g style="mix-blend-mode:overlay">
<path d="M200.211 181.846C200.211 181.846 192.18 180.986 186.696 176.186C186.696 176.186 189.851 183.43 201.165 187.831L200.211 181.846Z" fill="#1E1E1E"/>
</g>
<g style="mix-blend-mode:overlay" opacity="0.3">
<path d="M140.768 354.438L156.953 357.464C154.04 348.549 153.016 339.126 153.945 329.794C156.812 303.231 161.736 292.465 161.65 268.893C161.561 245.849 146.152 228.364 145.448 227.572C145.888 228.839 146.347 230.334 146.838 232.023C148.545 238.191 149.867 244.46 150.793 250.792C153.415 268.049 153.959 289.404 146.624 302.879C145.421 305.094 144.38 307.393 143.508 309.758C135.703 330.725 140.768 354.438 140.768 354.438Z" fill="#050F1B"/>
</g>
<path d="M114.861 280.384L148.605 272.973L148.001 292.003L194.087 331.295L185.753 343.55L118.722 307.479C117.839 307.004 117.095 306.306 116.565 305.455C116.034 304.604 115.736 303.629 115.698 302.627L114.861 280.384Z" fill="#F7CDBE"/>
</g>
<path d="M168.715 350.125C168.715 351.496 168.482 352.856 168.027 354.149H138.289C137.835 352.856 137.602 351.496 137.602 350.125C137.602 342.589 144.562 336.475 153.157 336.475C161.753 336.475 168.715 342.589 168.715 350.125Z" fill="#8DC1FF"/>
<g style="mix-blend-mode:overlay" opacity="0.5">
<path d="M168.715 350.125C168.715 351.496 168.482 352.856 168.027 354.149H138.289C137.835 352.856 137.602 351.496 137.602 350.125C137.602 342.589 144.562 336.475 153.157 336.475C161.753 336.475 168.715 342.589 168.715 350.125Z" fill="black"/>
</g>
<path d="M168.129 352.626C168.131 353.137 168.081 353.648 167.981 354.15H138.337C138.236 353.648 138.187 353.137 138.189 352.626C138.189 346.465 144.888 341.475 153.158 341.475C161.429 341.475 168.129 346.465 168.129 352.626Z" fill="#8DC1FF"/>
<g style="mix-blend-mode:overlay" opacity="0.5">
<path d="M154.277 340.386C154.277 339.769 153.776 339.268 153.158 339.268C152.54 339.268 152.04 339.769 152.04 340.386V345.195C152.04 345.812 152.54 346.313 153.158 346.313C153.776 346.313 154.277 345.812 154.277 345.195V340.386Z" fill="#141414"/>
</g>
<path d="M232.553 91.9039C234.892 91.9039 236.789 90.0078 236.789 87.6688C236.789 85.3297 234.892 83.4336 232.553 83.4336C230.214 83.4336 228.318 85.3297 228.318 87.6688C228.318 90.0078 230.214 91.9039 232.553 91.9039Z" fill="white"/>
<path d="M374.531 11.8911C377.815 11.8911 380.476 9.22918 380.476 5.94554C380.476 2.66191 377.815 0 374.531 0C371.247 0 368.585 2.66191 368.585 5.94554C368.585 9.22918 371.247 11.8911 374.531 11.8911Z" fill="#DEEDFF"/>
<path d="M82.6162 183.467C84.7175 183.467 86.421 181.764 86.421 179.662C86.421 177.561 84.7175 175.857 82.6162 175.857C80.5148 175.857 78.8113 177.561 78.8113 179.662C78.8113 181.764 80.5148 183.467 82.6162 183.467Z" fill="#DEEDFF"/>
<path d="M459.479 353.291H36.4517C34.5003 353.291 32.9183 354.873 32.9183 356.824C32.9183 358.776 34.5003 360.358 36.4517 360.358H459.479C461.43 360.358 463.012 358.776 463.012 356.824C463.012 354.873 461.43 353.291 459.479 353.291Z" fill="#BDB0FF" fill-opacity="0.25"/>
<path fill-rule="evenodd" clip-rule="evenodd" d="M194.089 331.298C194.089 331.298 207.499 330.487 207.867 333.471C208.081 335.209 206.331 335.235 202.588 336.569C200.496 337.313 213.292 345.558 211.361 346.826C209.498 348.049 204.309 343.415 204.309 343.415C204.309 343.415 211.694 349.931 209.799 351.497C208.356 352.689 201.398 345.308 201.398 345.308C201.398 345.308 207.339 352.059 206.446 352.93C204.617 354.713 197.644 347.612 197.644 347.612C197.644 347.612 197.11 347.109 199.63 350.773C202.256 354.59 198.485 353.751 193.664 349.972C188.851 346.199 185.753 343.553 185.753 343.553L194.089 331.298Z" fill="#F7CDBE"/>
<g style="mix-blend-mode:overlay" opacity="0.15">
<path d="M239.484 265.826C239.484 265.826 231.468 285.363 209.043 271.16C209.043 271.16 189.023 285.745 176.802 268.548" stroke="#050F1B" stroke-width="1.79787" stroke-miterlimit="10"/>
</g>
<path d="M176.374 353.297H222.886V347.813H182.866C182.031 347.812 181.208 348.015 180.469 348.403C179.73 348.791 179.096 349.353 178.622 350.041L176.374 353.297Z" fill="#9981EF"/>
<path d="M176.374 353.297H222.886V347.813H182.866C182.031 347.812 181.208 348.015 180.469 348.403C179.73 348.791 179.096 349.353 178.622 350.041L176.374 353.297Z" fill="#8DC1FF"/>
<path d="M381.177 251.706V341.659C381.177 344.747 379.95 347.709 377.766 349.893C375.583 352.076 372.621 353.303 369.533 353.303H216.736C213.648 353.303 210.687 352.076 208.503 349.893C206.319 347.709 205.093 344.747 205.093 341.659V247.599C205.092 245.602 205.884 243.686 207.296 242.272C208.707 240.859 210.622 240.064 212.62 240.062H369.534C372.622 240.063 375.583 241.289 377.767 243.473C379.95 245.657 381.177 248.618 381.177 251.706Z" fill="#8DC1FF"/>
<g style="mix-blend-mode:overlay" opacity="0.5">
<path d="M381.177 251.706V341.659C381.177 344.747 379.95 347.709 377.766 349.893C375.583 352.076 372.621 353.303 369.533 353.303H216.736C213.648 353.303 210.687 352.076 208.503 349.893C206.319 347.709 205.093 344.747 205.093 341.659V247.599C205.092 245.602 205.884 243.686 207.296 242.272C208.707 240.859 210.622 240.064 212.62 240.062H369.534C372.622 240.063 375.583 241.289 377.767 243.473C379.95 245.657 381.177 248.618 381.177 251.706Z" fill="black"/>
</g>
<path d="M381.176 251.704V341.657C381.175 344.745 379.948 347.707 377.764 349.891C375.581 352.075 372.619 353.302 369.531 353.303H219.781C216.693 353.301 213.733 352.074 211.55 349.89C209.368 347.706 208.142 344.745 208.143 341.657V247.595C208.143 246.605 208.338 245.625 208.717 244.711C209.095 243.796 209.65 242.965 210.35 242.266C211.05 241.566 211.881 241.011 212.795 240.632C213.71 240.253 214.689 240.059 215.679 240.059H369.531C372.619 240.059 375.581 241.287 377.764 243.47C379.948 245.654 381.175 248.616 381.176 251.704Z" fill="#8DC1FF"/>
<path d="M294.659 305.04C300.14 305.04 304.584 300.597 304.584 295.115C304.584 289.633 300.14 285.189 294.659 285.189C289.177 285.189 284.733 289.633 284.733 295.115C284.733 300.597 289.177 305.04 294.659 305.04Z" fill="white"/>
<g style="mix-blend-mode:overlay" opacity="0.1">
<path d="M381.176 251.701V341.655C381.175 344.743 379.948 347.704 377.764 349.888C375.581 352.072 372.619 353.299 369.531 353.3H296.126L294.656 240.055H369.531C372.619 240.055 375.581 241.283 377.765 243.467C379.948 245.651 381.175 248.613 381.176 251.701Z" fill="black"/>
</g>
<path d="M477.467 199.257C477.47 207.637 476.869 216.007 475.669 224.301H376.687C375.964 224.302 375.252 224.129 374.61 223.798C373.968 223.466 373.414 222.986 372.996 222.397C372.577 221.808 372.306 221.127 372.205 220.411C372.104 219.696 372.175 218.967 372.414 218.284L383.464 186.552C383.773 185.665 384.351 184.896 385.116 184.351C385.882 183.807 386.798 183.514 387.737 183.514H476.762C477.228 188.698 477.463 193.945 477.467 199.257Z" fill="#C9D2EC"/>
<g style="mix-blend-mode:overlay" opacity="0.3">
<path d="M477.467 199.257C477.47 207.637 476.869 216.007 475.669 224.301H376.687C375.964 224.302 375.252 224.129 374.61 223.798C373.968 223.466 373.414 222.986 372.996 222.397C372.577 221.808 372.306 221.127 372.205 220.411C372.104 219.696 372.175 218.967 372.414 218.284L383.464 186.552C383.773 185.665 384.351 184.896 385.116 184.351C385.882 183.807 386.798 183.514 387.737 183.514H476.762C477.228 188.698 477.463 193.945 477.467 199.257Z" fill="black"/>
</g>
<path d="M387.735 186.512H507.212C507.461 186.512 507.707 186.573 507.928 186.69C508.149 186.806 508.338 186.976 508.478 187.182C508.618 187.389 508.706 187.626 508.734 187.875C508.761 188.123 508.727 188.374 508.635 188.606L496.074 220.338C495.961 220.623 495.765 220.868 495.511 221.041C495.257 221.213 494.957 221.305 494.65 221.305H376.687C376.442 221.305 376.201 221.247 375.984 221.135C375.767 221.023 375.58 220.861 375.438 220.662C375.297 220.462 375.205 220.232 375.171 219.99C375.136 219.749 375.16 219.502 375.24 219.271L386.29 187.539C386.395 187.239 386.59 186.979 386.849 186.795C387.108 186.611 387.417 186.512 387.735 186.512Z" fill="#C9D2EC"/>
<path d="M400.162 199.391H489.568" stroke="white" stroke-width="0.599289" stroke-miterlimit="10"/>
<path d="M396.187 209.33H471.608" stroke="white" stroke-width="0.599289" stroke-miterlimit="10"/>
<g style="mix-blend-mode:overlay" opacity="0.1">
<path d="M381.181 251.693V277.607H362.393C361.727 277.607 361.07 277.448 360.478 277.142C359.885 276.836 359.375 276.393 358.989 275.85C358.603 275.307 358.352 274.679 358.259 274.019C358.165 273.359 358.231 272.687 358.45 272.057L366.978 247.57C367.263 246.751 367.796 246.041 368.502 245.539C369.209 245.036 370.054 244.766 370.921 244.766H378.886C380.38 246.766 381.186 249.197 381.181 251.693Z" fill="#161616"/>
</g>
<path d="M466.999 250.483L457.309 274.97C457.002 275.749 456.467 276.417 455.774 276.888C455.082 277.358 454.263 277.609 453.425 277.607H381.181V251.693C381.186 249.197 380.38 246.766 378.886 244.766H463.116C463.798 244.765 464.47 244.931 465.073 245.25C465.675 245.568 466.191 246.03 466.574 246.594C466.957 247.158 467.196 247.808 467.271 248.486C467.345 249.164 467.252 249.849 466.999 250.483Z" fill="#C9D2EC"/>
<g style="mix-blend-mode:overlay" opacity="0.3">
<path d="M466.999 250.483L457.309 274.97C457.002 275.749 456.467 276.417 455.774 276.888C455.082 277.358 454.263 277.609 453.425 277.607H381.181V251.693C381.186 249.197 380.38 246.766 378.886 244.766H463.116C463.798 244.765 464.47 244.931 465.073 245.25C465.675 245.568 466.191 246.03 466.574 246.594C466.957 247.158 467.196 247.808 467.271 248.486C467.345 249.164 467.252 249.849 466.999 250.483Z" fill="black"/>
</g>
<path d="M370.919 247.764H463.114C463.307 247.763 463.497 247.811 463.668 247.901C463.838 247.991 463.984 248.122 464.092 248.281C464.201 248.441 464.268 248.625 464.289 248.817C464.31 249.008 464.284 249.202 464.213 249.382L454.519 273.868C454.432 274.088 454.281 274.277 454.085 274.41C453.889 274.544 453.657 274.615 453.421 274.615H362.392C362.204 274.615 362.018 274.57 361.85 274.483C361.683 274.397 361.538 274.271 361.429 274.118C361.32 273.964 361.249 273.786 361.223 273.6C361.196 273.413 361.214 273.223 361.276 273.045L369.803 248.558C369.883 248.326 370.034 248.125 370.234 247.983C370.434 247.84 370.673 247.764 370.919 247.764Z" fill="#C9D2EC"/>
<path d="M380.509 257.701H449.5" stroke="white" stroke-width="0.462651" stroke-miterlimit="10"/>
<path d="M377.44 265.369H435.64" stroke="white" stroke-width="0.462651" stroke-miterlimit="10"/>
<path d="M469.25 146.437H303.333C302.539 146.437 301.777 146.121 301.215 145.559C300.653 144.997 300.337 144.235 300.337 143.44V26.4171C301.751 26.3871 303.17 26.3711 304.592 26.3691C341.217 26.3643 376.897 37.989 406.49 59.5676C436.083 81.1462 458.06 111.564 469.253 146.437H469.25Z" fill="#C9D2EC"/>
<g style="mix-blend-mode:overlay" opacity="0.3">
<path d="M469.25 146.437H303.333C302.539 146.437 301.777 146.121 301.215 145.559C300.653 144.997 300.337 144.235 300.337 143.44V26.4171C301.751 26.3871 303.17 26.3711 304.592 26.3691C341.217 26.3643 376.897 37.989 406.49 59.5676C436.083 81.1462 458.06 111.564 469.253 146.437H469.25Z" fill="black"/>
</g>
<path d="M482.057 28.2865V138.961C482.057 139.504 481.841 140.026 481.457 140.41C481.072 140.794 480.551 141.01 480.007 141.01H307.848C307.053 141.01 306.291 140.695 305.729 140.133C305.167 139.571 304.852 138.809 304.852 138.014V28.2841C304.851 27.3806 305.029 26.486 305.375 25.6512C305.721 24.8165 306.228 24.058 306.866 23.4192C307.505 22.7803 308.264 22.2735 309.098 21.9278C309.933 21.5821 310.828 21.4042 311.731 21.4043H475.178C476.081 21.4043 476.976 21.5823 477.811 21.9282C478.646 22.2741 479.404 22.7811 480.043 23.4202C480.682 24.0594 481.189 24.8181 481.534 25.653C481.88 26.488 482.057 27.3829 482.057 28.2865Z" fill="white"/>
<path d="M304.852 41.168H482.057V137.564C482.057 138.479 481.694 139.356 481.047 140.003C480.4 140.65 479.523 141.013 478.608 141.013H307.848C307.053 141.013 306.291 140.697 305.729 140.135C305.167 139.573 304.852 138.811 304.852 138.017V41.168Z" fill="#C9D2EC"/>
<path d="M482.057 28.2861V33.6198H304.852V28.2861C304.851 27.3826 305.029 26.4879 305.375 25.6532C305.721 24.8185 306.228 24.06 306.866 23.4211C307.505 22.7823 308.264 22.2755 309.098 21.9298C309.933 21.5841 310.828 21.4062 311.731 21.4063H475.177C477.002 21.4072 478.751 22.1323 480.041 23.4224C481.331 24.7124 482.056 26.4617 482.057 28.2861Z" fill="#C9D2EC"/>
<path d="M315.781 30.8915C317.646 30.8915 319.157 29.3798 319.157 27.5151C319.157 25.6503 317.646 24.1387 315.781 24.1387C313.916 24.1387 312.404 25.6503 312.404 27.5151C312.404 29.3798 313.916 30.8915 315.781 30.8915Z" fill="white"/>
<path d="M329.762 27.5159C329.762 28.307 329.482 29.0726 328.972 29.6775C328.849 29.8352 328.707 29.9771 328.549 30.1C327.943 30.6101 327.176 30.8898 326.384 30.8898C325.592 30.8898 324.825 30.6101 324.219 30.1C324.066 29.975 323.926 29.8333 323.803 29.6775C323.289 29.0733 323.007 28.3057 323.007 27.5123C323.007 26.7189 323.289 25.9513 323.803 25.3471C323.926 25.1913 324.066 25.0496 324.219 24.9246C324.825 24.4145 325.592 24.1348 326.384 24.1348C327.176 24.1348 327.943 24.4145 328.549 24.9246C328.705 25.0494 328.847 25.1911 328.972 25.3471C329.483 25.9546 329.762 26.7225 329.762 27.5159Z" fill="white"/>
<path d="M327.981 28.8539C327.905 28.9512 327.818 29.0388 327.72 29.1146L326.385 27.7752L326.124 27.5187L324.789 26.1787C324.864 26.0824 324.95 25.9949 325.045 25.918L326.385 27.2574L326.646 27.5187L327.981 28.8539Z" fill="#AFBDE0"/>
<path d="M327.981 26.1787L326.646 27.5187L326.385 27.7752L325.045 29.1146C324.95 29.0376 324.864 28.9502 324.789 28.8539L326.385 27.2574L327.72 25.918C327.817 25.9949 327.904 26.0823 327.981 26.1787Z" fill="#AFBDE0"/>
<path d="M317.856 27.7018H315.964H315.598H313.701C313.689 27.58 313.69 27.4572 313.704 27.3356H315.962L317.853 27.332C317.868 27.4548 317.869 27.5788 317.856 27.7018Z" fill="#AFBDE0"/>
<path d="M482.057 28.2861V138.016C482.057 138.811 481.741 139.573 481.179 140.135C480.617 140.697 479.855 141.012 479.061 141.012H307.848C307.053 141.012 306.291 140.697 305.729 140.135C305.167 139.573 304.852 138.811 304.852 138.016V28.2861C304.851 27.3826 305.029 26.4879 305.375 25.6532C305.721 24.8185 306.228 24.06 306.866 23.4211C307.505 22.7823 308.264 22.2755 309.098 21.9298C309.933 21.5841 310.828 21.4062 311.731 21.4063H475.178C476.081 21.4063 476.976 21.5842 477.81 21.93C478.645 22.2757 479.404 22.7825 480.042 23.4214C480.681 24.0602 481.188 24.8186 481.534 25.6533C481.879 26.488 482.057 27.3826 482.057 28.2861Z" stroke="white" stroke-width="0.565129" stroke-miterlimit="10"/>
<path d="M391.702 50.0273H323.597C320.732 50.0273 318.41 52.3493 318.41 55.2136V91.965C318.41 94.8292 320.732 97.1512 323.597 97.1512H391.702C394.566 97.1512 396.888 94.8292 396.888 91.965V55.2136C396.888 52.3493 394.566 50.0273 391.702 50.0273Z" fill="white"/>
<path d="M368.246 74.1776C368.349 74.1179 368.435 74.0321 368.495 73.9289C368.554 73.8256 368.585 73.7085 368.585 73.5893C368.585 73.4702 368.554 73.3531 368.495 73.2498C368.435 73.1466 368.349 73.0609 368.246 73.0012L359.763 68.1038L351.281 63.2064C351.178 63.1467 351.061 63.1153 350.941 63.1152C350.822 63.1152 350.705 63.1465 350.602 63.2061C350.499 63.2657 350.413 63.3514 350.353 63.4547C350.294 63.5579 350.262 63.6751 350.262 63.7943V83.3838C350.262 83.5031 350.293 83.6203 350.353 83.7236C350.412 83.827 350.498 83.9128 350.602 83.9724C350.705 84.0321 350.822 84.0635 350.941 84.0635C351.061 84.0635 351.178 84.032 351.281 83.9723L359.763 79.0749L368.246 74.1776Z" fill="#C9D2EC"/>
<path d="M326.807 129.198C331.444 129.198 335.204 125.438 335.204 120.801C335.204 116.164 331.444 112.404 326.807 112.404C322.17 112.404 318.411 116.164 318.411 120.801C318.411 125.438 322.17 129.198 326.807 129.198Z" fill="#E9E6FF"/>
<path d="M326.808 120.811C328.116 120.811 329.176 119.751 329.176 118.443C329.176 117.135 328.116 116.074 326.808 116.074C325.5 116.074 324.439 117.135 324.439 118.443C324.439 119.751 325.5 120.811 326.808 120.811Z" fill="#C9D2EC"/>
<path d="M322.085 125.53C322.085 124.278 322.583 123.077 323.468 122.192C324.354 121.306 325.555 120.809 326.807 120.809C328.059 120.809 329.26 121.306 330.146 122.192C331.031 123.077 331.529 124.278 331.529 125.53H322.085Z" fill="#C9D2EC"/>
<path d="M338.259 116.07H396.889" stroke="white" stroke-width="0.599289" stroke-miterlimit="10"/>
<path d="M338.259 125.531H373.784" stroke="white" stroke-width="0.599289" stroke-miterlimit="10"/>
<path d="M427.219 50.0273H409.994C409.269 50.0273 408.682 50.6147 408.682 51.3392V60.6342C408.682 61.3587 409.269 61.946 409.994 61.946H427.219C427.943 61.946 428.531 61.3587 428.531 60.6342V51.3392C428.531 50.6147 427.943 50.0273 427.219 50.0273Z" fill="white"/>
<path d="M421.286 56.1358C421.313 56.1208 421.335 56.099 421.35 56.0727C421.365 56.0464 421.373 56.0164 421.373 55.9859C421.373 55.9554 421.365 55.9255 421.35 55.8992C421.335 55.8728 421.313 55.8511 421.286 55.8361L419.14 54.5974L416.996 53.3593C416.97 53.3441 416.94 53.336 416.91 53.3359C416.88 53.3359 416.85 53.3438 416.824 53.3589C416.798 53.3739 416.776 53.3957 416.761 53.4218C416.746 53.448 416.738 53.4777 416.738 53.5079V58.4622C416.738 58.4924 416.746 58.522 416.761 58.5481C416.776 58.5743 416.798 58.596 416.824 58.6111C416.85 58.6263 416.88 58.6342 416.91 58.6343C416.94 58.6343 416.97 58.6264 416.996 58.6114L419.14 57.3727L421.286 56.1358Z" fill="#C9D2EC"/>
<path d="M436.053 53.334H471.156" stroke="white" stroke-width="0.599289" stroke-miterlimit="10"/>
<path d="M436.053 58.6328H452.986" stroke="white" stroke-width="0.599289" stroke-miterlimit="10"/>
<path d="M427.219 66.2305H409.994C409.269 66.2305 408.682 66.8178 408.682 67.5423V76.8373C408.682 77.5618 409.269 78.1491 409.994 78.1491H427.219C427.943 78.1491 428.531 77.5618 428.531 76.8373V67.5423C428.531 66.8178 427.943 66.2305 427.219 66.2305Z" fill="white"/>
<path d="M421.286 72.3395C421.313 72.3246 421.335 72.3029 421.351 72.2766C421.366 72.2502 421.374 72.2202 421.374 72.1897C421.374 72.1591 421.366 72.1291 421.351 72.1028C421.335 72.0764 421.313 72.0547 421.286 72.0398L419.14 70.8011L416.996 69.5624C416.97 69.5472 416.94 69.5391 416.91 69.5391C416.88 69.539 416.85 69.5469 416.824 69.562C416.798 69.5771 416.776 69.5988 416.761 69.625C416.746 69.6511 416.738 69.6808 416.738 69.711V74.6659C416.738 74.696 416.746 74.7256 416.761 74.7517C416.776 74.7777 416.798 74.7994 416.824 74.8144C416.85 74.8295 416.88 74.8374 416.91 74.8374C416.94 74.8374 416.97 74.8296 416.996 74.8146L419.14 73.5758L421.286 72.3395Z" fill="#C9D2EC"/>
<path d="M436.053 69.5391H471.156" stroke="white" stroke-width="0.599289" stroke-miterlimit="10"/>
<path d="M436.053 74.8379H452.986" stroke="white" stroke-width="0.599289" stroke-miterlimit="10"/>
<path d="M427.219 82.4355H409.994C409.269 82.4355 408.682 83.0229 408.682 83.7474V93.0424C408.682 93.7669 409.269 94.3542 409.994 94.3542H427.219C427.943 94.3542 428.531 93.7669 428.531 93.0424V83.7474C428.531 83.0229 427.943 82.4355 427.219 82.4355Z" fill="white"/>
<path d="M421.286 88.548C421.313 88.5332 421.335 88.5115 421.351 88.4851C421.366 88.4588 421.374 88.4288 421.374 88.3982C421.374 88.3676 421.366 88.3376 421.351 88.3113C421.335 88.2849 421.313 88.2632 421.286 88.2484L419.14 87.0096L416.996 85.7709C416.97 85.7559 416.94 85.748 416.91 85.748C416.88 85.7481 416.85 85.756 416.824 85.7711C416.798 85.7861 416.776 85.8077 416.761 85.8338C416.746 85.8599 416.738 85.8894 416.738 85.9195V90.8745C416.738 90.9046 416.746 90.9341 416.761 90.9602C416.776 90.9863 416.798 91.0079 416.824 91.023C416.85 91.038 416.88 91.0459 416.91 91.046C416.94 91.046 416.97 91.0381 416.996 91.0231L419.14 89.7844L421.286 88.548Z" fill="#C9D2EC"/>
<path d="M436.053 85.7441H471.156" stroke="white" stroke-width="0.599289" stroke-miterlimit="10"/>
<path d="M436.053 91.043H452.986" stroke="white" stroke-width="0.599289" stroke-miterlimit="10"/>
<path d="M427.219 98.6348H409.994C409.269 98.6348 408.682 99.2221 408.682 99.9466V109.242C408.682 109.966 409.269 110.553 409.994 110.553H427.219C427.943 110.553 428.531 109.966 428.531 109.242V99.9466C428.531 99.2221 427.943 98.6348 427.219 98.6348Z" fill="white"/>
<path d="M421.286 104.743C421.313 104.728 421.335 104.707 421.351 104.68C421.366 104.654 421.374 104.624 421.374 104.594C421.374 104.563 421.366 104.533 421.351 104.507C421.335 104.48 421.313 104.459 421.286 104.444L419.14 103.205L416.996 101.966C416.97 101.951 416.94 101.943 416.91 101.943C416.88 101.943 416.85 101.951 416.824 101.966C416.798 101.981 416.776 102.003 416.761 102.029C416.746 102.055 416.738 102.085 416.738 102.115V107.07C416.738 107.1 416.746 107.13 416.761 107.156C416.776 107.182 416.798 107.204 416.824 107.219C416.85 107.234 416.88 107.242 416.91 107.242C416.94 107.242 416.97 107.234 416.996 107.218L419.14 105.98L421.286 104.743Z" fill="#C9D2EC"/>
<path d="M436.053 101.945H471.156" stroke="white" stroke-width="0.599289" stroke-miterlimit="10"/>
<path d="M436.053 107.244H452.986" stroke="white" stroke-width="0.599289" stroke-miterlimit="10"/>
<path d="M427.219 114.848H409.994C409.269 114.848 408.682 115.435 408.682 116.159V125.454C408.682 126.179 409.269 126.766 409.994 126.766H427.219C427.943 126.766 428.531 126.179 428.531 125.454V116.159C428.531 115.435 427.943 114.848 427.219 114.848Z" fill="white"/>
<path d="M421.286 120.956C421.313 120.941 421.335 120.92 421.351 120.893C421.366 120.867 421.374 120.837 421.374 120.806C421.374 120.776 421.366 120.746 421.351 120.719C421.335 120.693 421.313 120.671 421.286 120.657L419.14 119.418L416.996 118.179C416.97 118.164 416.94 118.156 416.91 118.156C416.88 118.156 416.85 118.164 416.824 118.179C416.798 118.195 416.776 118.216 416.761 118.242C416.746 118.269 416.738 118.298 416.738 118.328V123.283C416.738 123.313 416.746 123.343 416.761 123.369C416.776 123.395 416.798 123.417 416.824 123.432C416.85 123.447 416.88 123.455 416.91 123.455C416.94 123.455 416.97 123.446 416.996 123.431L419.14 122.193L421.286 120.956Z" fill="#C9D2EC"/>
<path d="M436.053 118.156H471.156" stroke="white" stroke-width="0.599289" stroke-miterlimit="10"/>
<path d="M436.053 123.455H452.986" stroke="white" stroke-width="0.599289" stroke-miterlimit="10"/>
</svg>
