<svg width="508" height="407" viewBox="0 0 508 407" fill="none" xmlns="http://www.w3.org/2000/svg">
<path d="M365.521 372.85L364.471 389.748H276.035L279.347 371.148L365.521 372.85Z" fill="#24307D"/>
<path d="M390.663 319.96L397.076 314.621C395.837 333.915 385.102 331.76 385.102 331.76C381.158 311.98 368.999 292.815 365.272 286.946C361.544 281.077 351.094 269.466 343.213 261.875C335.331 254.283 331.955 247.482 331.955 247.482C336.726 252.339 348.86 255.098 348.86 255.098C348.86 257.277 351.039 265.146 351.039 265.146C351.039 262.134 352.711 256.438 352.711 256.438C355.81 256.857 359.303 258.931 359.303 258.931L356.956 272.17L363.159 260.999C370.189 263.48 381.217 269.547 380.669 274.651C380.139 279.589 372.485 288.742 372.01 289.31L386.601 277.41L389.909 296.296C388.255 300.845 378.738 305.184 378.738 305.184C383.562 305.937 393.488 297.948 393.488 297.948C393.488 297.948 397.074 308.15 397.074 310.767C397.076 313.315 391.039 319.573 390.663 319.96Z" fill="#ABD2F4"/>
<path d="M390.663 319.96L397.076 314.621C395.837 333.915 385.102 331.76 385.102 331.76C381.158 311.98 368.999 292.815 365.272 286.946C361.544 281.077 351.094 269.466 343.213 261.875C335.331 254.283 331.955 247.482 331.955 247.482C336.726 252.339 348.86 255.098 348.86 255.098C348.86 257.277 351.039 265.146 351.039 265.146C351.039 262.134 352.711 256.438 352.711 256.438C355.81 256.857 359.303 258.931 359.303 258.931L356.956 272.17L363.159 260.999C370.189 263.48 381.217 269.547 380.669 274.651C380.139 279.589 372.485 288.742 372.01 289.31L386.601 277.41L389.909 296.296C388.255 300.845 378.738 305.184 378.738 305.184C383.562 305.937 393.488 297.948 393.488 297.948C393.488 297.948 397.074 308.15 397.074 310.767C397.076 313.315 391.039 319.573 390.663 319.96Z" fill="#C2DCCC"/>
<path d="M385.102 331.762C378.683 332.195 374.893 320.307 373.889 316.79C372.884 313.272 370.291 309.006 364.933 304.489C359.576 299.971 355.225 292.434 355.225 292.434C359.829 295.613 366.019 294.36 366.019 294.36C354.385 288.67 353.466 282.306 353.466 282.306C346.27 278.375 338.233 260.291 338.233 260.291C334.296 255.858 331.957 247.484 331.957 247.484C331.957 247.484 335.339 254.286 343.214 261.877C351.089 269.468 361.551 281.072 365.273 286.948C368.995 292.824 381.158 311.982 385.102 331.762Z" fill="#ABD2F4"/>
<path d="M385.102 331.762C378.683 332.195 374.893 320.307 373.889 316.79C372.884 313.272 370.291 309.006 364.933 304.489C359.576 299.971 355.225 292.434 355.225 292.434C359.829 295.613 366.019 294.36 366.019 294.36C354.385 288.67 353.466 282.306 353.466 282.306C346.27 278.375 338.233 260.291 338.233 260.291C334.296 255.858 331.957 247.484 331.957 247.484C331.957 247.484 335.339 254.286 343.214 261.877C351.089 269.468 361.551 281.072 365.273 286.948C368.995 292.824 381.158 311.982 385.102 331.762Z" fill="#8EACA8"/>
<path d="M365.273 286.945L375.599 267.447" stroke="#8EACA8" stroke-width="0.473" stroke-miterlimit="10"/>
<path d="M362.578 283.248L372.19 265.098" stroke="#8EACA8" stroke-width="0.473" stroke-miterlimit="10"/>
<path d="M379.116 390.303C381.214 386.019 383.703 381.938 386.553 378.112C387.976 376.199 389.504 374.368 391.131 372.625C392.769 370.885 394.547 369.281 396.447 367.829C398.349 366.373 400.404 365.127 402.575 364.113C403.673 363.643 404.755 363.129 405.895 362.766C406.461 362.579 407.013 362.345 407.59 362.197L409.315 361.718C413.949 360.544 418.758 360.217 423.509 360.751C425.884 361.018 428.216 361.585 430.449 362.439L431.281 362.775L432.083 363.186C432.344 363.331 432.625 363.447 432.875 363.616L433.628 364.119C434.621 364.814 435.48 365.682 436.165 366.681C437.493 368.699 438.251 371.038 438.359 373.451C438.479 375.839 438.166 378.228 437.434 380.504C435.935 385.031 433.33 389.114 429.856 392.382C426.413 395.641 422.449 398.301 418.129 400.255C422.419 398.259 426.347 395.561 429.749 392.272C433.159 388.995 435.699 384.919 437.139 380.414C437.834 378.171 438.117 375.821 437.973 373.478C437.845 371.143 437.09 368.886 435.786 366.946C435.122 366 434.293 365.181 433.339 364.529L432.613 364.055C432.373 363.895 432.099 363.786 431.844 363.648L431.062 363.257L430.247 362.94C428.052 362.128 425.763 361.598 423.435 361.362C418.763 360.888 414.045 361.261 409.505 362.463L407.82 362.95C407.255 363.101 406.717 363.337 406.164 363.526C405.053 363.893 404.002 364.408 402.933 364.878C400.829 365.887 398.839 367.122 397.001 368.56C395.159 369.999 393.438 371.587 391.854 373.306C390.274 375.036 388.791 376.854 387.414 378.75C384.653 382.54 382.249 386.577 380.231 390.81L379.116 390.303Z" fill="#8EACA8"/>
<path d="M388.722 389.839C390.626 385.047 392.461 380.225 394.226 375.374C395.979 370.523 397.681 365.647 399.085 360.69C399.419 359.448 399.766 358.205 400.011 356.946C400.295 355.697 400.458 354.423 400.497 353.142C400.659 350.577 400.091 348.017 398.859 345.761C398.214 344.655 397.307 343.724 396.218 343.051C395.109 342.4 393.862 342.025 392.579 341.956C389.992 341.904 387.43 342.465 385.102 343.593C387.423 342.426 389.988 341.825 392.586 341.84C393.893 341.892 395.169 342.256 396.306 342.901C397.434 343.575 398.378 344.515 399.057 345.639C400.35 347.924 400.97 350.528 400.844 353.15C400.824 354.452 400.678 355.75 400.408 357.024C400.18 358.304 399.849 359.555 399.531 360.81C398.193 365.811 396.563 370.72 394.88 375.604C393.197 380.489 391.421 385.342 389.584 390.176L388.722 389.839Z" fill="#8EACA8"/>
<path d="M385.102 331.764C385.102 331.764 393.71 372.276 389.153 390.009" stroke="#8EACA8" stroke-width="0.702" stroke-miterlimit="10"/>
<path d="M378.377 390.555V368.789" stroke="#8EACA8" stroke-width="0.702" stroke-miterlimit="10"/>
<path d="M331.955 312.879C331.955 312.879 348.715 317.545 356.417 316.345C364.118 315.146 362.241 323.842 362.241 323.842C362.241 323.842 375.5 329.257 375.5 334.555C375.5 339.853 371.53 344.8 371.53 344.8C371.53 344.8 374.665 344.172 378.078 338.53C378.078 338.53 383.554 347.959 382.902 351.874C382.478 354.286 381.515 356.571 380.085 358.56C381.169 358.184 382.075 357.42 382.628 356.415C382.628 356.415 380.287 366.443 378.376 368.79C378.376 368.79 371.72 364.7 369.226 360.337C366.731 355.975 355.999 345.764 351.558 337.619C347.118 329.475 336.292 315.288 331.955 312.879Z" fill="#ABD2F4"/>
<path d="M331.955 312.879C331.955 312.879 348.715 317.545 356.417 316.345C364.118 315.146 362.241 323.842 362.241 323.842C362.241 323.842 375.5 329.257 375.5 334.555C375.5 339.853 371.53 344.8 371.53 344.8C371.53 344.8 374.665 344.172 378.078 338.53C378.078 338.53 383.554 347.959 382.902 351.874C382.478 354.286 381.515 356.571 380.085 358.56C381.169 358.184 382.075 357.42 382.628 356.415C382.628 356.415 380.287 366.443 378.376 368.79C378.376 368.79 371.72 364.7 369.226 360.337C366.731 355.975 355.999 345.764 351.558 337.619C347.118 329.475 336.292 315.288 331.955 312.879Z" fill="#8EACA8"/>
<path d="M423.867 326.292C423.867 326.292 427.494 321.645 428.137 316.371C428.137 316.371 438.814 315.6 442.159 313.67C442.159 313.67 432.975 322.706 423.867 326.292Z" fill="#ABD2F4"/>
<path d="M423.867 326.292C423.867 326.292 427.494 321.645 428.137 316.371C428.137 316.371 438.814 315.6 442.159 313.67C442.159 313.67 432.975 322.706 423.867 326.292Z" fill="#8EACA8"/>
<path d="M440.372 312.091C444.606 307.783 446.044 300.74 446.044 300.74C448 298.704 451.161 292.057 451.161 292.057C453.914 302.682 441.102 311.597 440.372 312.091Z" fill="#ABD2F4"/>
<path d="M440.372 312.092C440.363 312.101 440.353 312.11 440.341 312.117" stroke="#7F51A8" stroke-width="0.189" stroke-miterlimit="10"/>
<path d="M401.779 359.572C398.889 369.468 397.308 379.7 397.075 390.007" stroke="#8EACA8" stroke-width="0.473" stroke-miterlimit="10"/>
<path d="M446.044 300.741C446.044 300.741 444.606 307.782 440.372 312.092C438.612 314.004 436.185 315.168 433.592 315.344C433.592 315.344 426.563 327.861 414.441 331.052C414.441 331.052 421.767 334.247 428.155 331.453C428.155 331.453 420.434 345.038 415.107 351.697C412.855 354.512 411.201 356.499 409.583 357.796C407.374 359.567 405.238 360.048 401.782 359.573C401.782 359.573 381.6 346.093 395.585 321.492L405.038 334.856L398.14 316.699C398.14 316.699 407.528 298.825 423.815 290.394L429.37 298.251L425.729 282.54C425.729 282.54 442.788 273.726 453.133 270.658L442.597 284.866C442.597 284.866 432.109 303.984 430.578 308.009C430.581 308.009 441.446 306.685 446.044 300.741Z" fill="#D9E7DE"/>
<path d="M409.58 357.796C411.197 356.5 412.852 354.512 415.104 351.698C420.431 345.038 428.151 331.453 428.151 331.453C428.151 331.453 432.274 325.547 433.836 325.202C435.398 324.856 442.862 345.322 409.58 357.796Z" fill="#ABD2F4"/>
<path d="M401.779 359.572C401.779 359.572 412.593 325.587 430.581 308.008" stroke="#8EACA8" stroke-width="0.473" stroke-miterlimit="10"/>
<path d="M418.132 324.061L406.116 305.186" stroke="#8EACA8" stroke-width="0.473" stroke-miterlimit="10"/>
<path d="M421.891 318.37L410.793 300.521" stroke="#8EACA8" stroke-width="0.473" stroke-miterlimit="10"/>
<path d="M430.581 308.008C430.581 308.008 433.254 292.057 433.013 289.741C433.013 289.741 453.353 281.035 460.169 270.658C460.169 270.658 448.719 291.413 430.581 308.008Z" fill="#ABD2F4"/>
<path d="M440.372 312.091C444.606 307.783 446.044 300.74 446.044 300.74C448 298.704 451.161 292.057 451.161 292.057C453.914 302.682 441.102 311.597 440.372 312.091Z" fill="#8EACA8"/>
<path d="M409.58 357.796C411.197 356.5 412.852 354.512 415.104 351.698C420.431 345.038 428.151 331.453 428.151 331.453C428.151 331.453 432.274 325.547 433.836 325.202C435.398 324.856 442.862 345.322 409.58 357.796Z" fill="#8EACA8"/>
<path d="M430.581 308.008C430.581 308.008 433.254 292.057 433.013 289.741C433.013 289.741 453.353 281.035 460.169 270.658C460.169 270.658 448.719 291.413 430.581 308.008Z" fill="#8EACA8"/>
<path d="M363.459 274.205C364.309 274.205 364.998 273.516 364.998 272.666C364.998 271.816 364.309 271.127 363.459 271.127C362.608 271.127 361.919 271.816 361.919 272.666C361.919 273.516 362.608 274.205 363.459 274.205Z" fill="white"/>
<path d="M378.377 293.293C379.057 293.293 379.609 292.742 379.609 292.062C379.609 291.381 379.057 290.83 378.377 290.83C377.697 290.83 377.146 291.381 377.146 292.062C377.146 292.742 377.697 293.293 378.377 293.293Z" fill="white"/>
<path d="M421.891 300.523C422.435 300.523 422.876 300.082 422.876 299.538C422.876 298.994 422.435 298.553 421.891 298.553C421.347 298.553 420.906 298.994 420.906 299.538C420.906 300.082 421.347 300.523 421.891 300.523Z" fill="white"/>
<path d="M369.451 338.138C369.995 338.138 370.436 337.697 370.436 337.153C370.436 336.609 369.995 336.168 369.451 336.168C368.907 336.168 368.466 336.609 368.466 337.153C368.466 337.697 368.907 338.138 369.451 338.138Z" fill="white"/>
<path d="M372.425 355.076C372.86 355.076 373.213 354.723 373.213 354.288C373.213 353.853 372.86 353.5 372.425 353.5C371.99 353.5 371.637 353.853 371.637 354.288C371.637 354.723 371.99 355.076 372.425 355.076Z" fill="white"/>
<path d="M408.945 320.772C409.38 320.772 409.733 320.419 409.733 319.983C409.733 319.548 409.38 319.195 408.945 319.195C408.51 319.195 408.157 319.548 408.157 319.983C408.157 320.419 408.51 320.772 408.945 320.772Z" fill="white"/>
<path d="M427.734 342.229C427.929 342.229 428.088 342.07 428.088 341.874C428.088 341.678 427.929 341.52 427.734 341.52C427.538 341.52 427.379 341.678 427.379 341.874C427.379 342.07 427.538 342.229 427.734 342.229Z" fill="white"/>
<path d="M239.262 262.755C239.262 262.755 244.198 248.674 240.068 248.066C236.311 247.513 236.033 260.084 234.498 254.924C231.633 245.297 223.495 246.74 221.003 249.728C218.497 252.732 227.232 267.038 227.232 267.038L239.262 262.755Z" fill="#EDA28E"/>
<path d="M375.766 243.373C366.859 234.184 364.35 228.308 362.793 222.327C359.029 207.893 355.385 201.957 350.419 196.938C346.536 193.012 341.879 191.683 338.089 190.605C332.157 188.917 322.893 185.148 313.85 189.529C299.631 196.419 310.078 229.12 310.078 229.12C310.078 229.12 306.31 233.806 308.399 243.202C310.489 252.598 301.208 255.743 301.208 255.743C280.166 268.72 305.823 288.385 305.823 288.385C350.675 311.394 376.023 285.035 376.023 285.035C396.603 267.835 383.016 250.852 375.766 243.373Z" fill="#081D39"/>
<path d="M259.662 314.305L263.007 306.475L289.144 311.719C288 316.265 286.495 320.712 284.646 325.018C281.945 331.268 278.009 338.067 272.781 341.403L259.662 314.305Z" fill="#EDA28E"/>
<path d="M302.815 249.883L325.167 278.983L290.24 316.878L284.98 325.302L262.703 306.212C262.154 305.742 261.76 305.117 261.573 304.419C261.386 303.721 261.414 302.982 261.654 302.301C264.616 293.928 275.694 266.287 280.221 261.087C284.623 256.029 293.479 252.771 298.156 251.38L302.815 249.883Z" fill="#8247FF"/>
<path d="M227.177 266.916L239.208 262.633L270.184 315.601C281.048 332.128 275.617 339.155 275.617 339.155C265.804 350.2 253.66 341.701 253.66 341.701C246.936 336.752 233.851 297.316 227.177 266.916Z" fill="#EDA28E"/>
<path d="M365.518 372.844L353.234 375.141L316.69 381.964C310.092 383.197 303.305 382.99 296.794 381.357C290.284 379.723 284.203 376.702 278.969 372.5C278.694 372.283 278.473 372.007 278.32 371.693C278.168 371.378 278.088 371.034 278.088 370.684C278.086 370.238 278.215 369.801 278.461 369.429C279.983 367.082 282.894 361.525 287.247 348.828C292.12 334.648 289.13 323.032 285.298 312.137C284.296 309.306 283.241 306.515 282.253 303.752C281.719 302.256 281.198 300.774 280.731 299.278C275.978 284.418 279.542 273.229 293.482 265.084C307.409 256.939 302.815 249.889 302.815 249.889C302.815 249.889 303.416 249.663 304.551 249.342C306.151 248.898 307.773 248.541 309.412 248.274L318.905 246.965L340.375 245.029C349.031 246.134 356.803 246.776 362.806 248.714C362.806 248.714 366.117 266.419 362.553 275.018C362.366 275.458 362.179 275.966 361.979 276.54C361.979 276.544 361.977 276.547 361.975 276.55C361.972 276.552 361.969 276.554 361.965 276.554C361.631 277.515 361.285 278.65 360.91 279.931C359.613 284.613 358.61 289.371 357.906 294.178C355.916 307.277 355.503 323.486 361.07 333.714C361.983 335.395 362.772 337.139 363.434 338.934C369.364 354.846 365.518 372.844 365.518 372.844Z" fill="#8247FF"/>
<g style="mix-blend-mode:overlay" opacity="0.4">
<path d="M287.583 320.684L284.946 312.241C284.405 310.708 283.843 309.177 283.285 307.656C282.82 306.389 282.357 305.129 281.909 303.87C281.316 302.215 280.816 300.747 280.38 299.382C275.411 283.823 279.514 272.826 293.295 264.771L293.662 265.399C280.226 273.253 276.225 283.979 281.072 299.16C281.507 300.518 282.004 301.978 282.593 303.625C283.042 304.882 283.506 306.14 283.969 307.407C284.528 308.931 285.09 310.465 285.636 312.014L288.278 320.469L287.583 320.684Z" fill="#111111"/>
</g>
<path d="M362.806 248.713C362.806 248.713 371.589 251.684 376.185 255.904C381.009 260.331 386.606 269.683 388.03 278.66C389.162 285.793 388.799 304.873 387.85 313.556C387.794 314.064 387.63 314.555 387.368 314.995C387.107 315.435 386.754 315.813 386.334 316.105C385.914 316.397 385.436 316.596 384.933 316.688C384.43 316.779 383.913 316.762 383.417 316.637L358.211 310.298L354.007 278.98L362.806 248.713Z" fill="#8247FF"/>
<path d="M315.125 204.744C307.803 222.833 309.235 231.942 311.891 236.448C312.686 237.866 313.796 239.084 315.135 240.007C316.473 240.93 318.006 241.535 319.614 241.774L320.4 241.839L320.334 242.622L319.167 249.309C318.921 250.716 319.006 252.161 319.415 253.529C319.823 254.898 320.544 256.153 321.521 257.195C322.497 258.237 323.703 259.038 325.042 259.534C326.381 260.03 327.817 260.209 329.237 260.055L331.986 259.757C334.583 259.475 336.964 258.178 338.609 256.148C340.254 254.119 341.03 251.521 340.768 248.922L338.971 231.099L339.409 230.848C342.172 229.264 343.834 225.186 343.652 222.37C343.593 221.448 343.413 218.643 341.855 217.867C340.662 217.273 338.68 217.85 336.123 219.534L335.844 219.718L335.518 219.645C335.082 219.547 326.686 217.596 321.863 211.649C323.449 215.951 326.61 219.766 331.31 223.041L336.18 226.431L330.596 224.422C330.428 224.37 315.658 218.877 315.125 204.744Z" fill="#EDA28E"/>
<g style="mix-blend-mode:overlay" opacity="0.6">
<path d="M320.4 241.844C320.4 241.844 326.494 241.192 330.658 237.547C330.658 237.547 328.263 243.046 319.676 246.386L320.4 241.844Z" fill="#050F1B"/>
</g>
<path fill-rule="evenodd" clip-rule="evenodd" d="M299.71 356.58C299.71 356.58 286.721 354.466 286.068 357.337C285.688 359.012 287.39 359.209 290.907 360.878C292.872 361.81 279.588 368.582 281.345 370.008C283.04 371.384 288.553 367.38 288.553 367.38C288.553 367.38 280.713 373.001 282.406 374.714C283.695 376.018 291.207 369.512 291.207 369.512C291.207 369.512 284.753 375.505 285.535 376.442C287.141 378.36 294.638 372.127 294.638 372.127C293.618 373.577 292.513 374.964 291.327 376.281C288.393 379.742 293.213 378.028 298.284 374.82C303.356 371.613 306.625 369.344 306.625 369.344L299.71 356.58Z" fill="#EDA28E"/>
<g style="mix-blend-mode:overlay" opacity="0.4">
<path d="M365.518 372.846L353.234 375.142C355.444 368.376 356.221 361.223 355.515 354.139C353.339 333.978 349.601 325.806 349.667 307.915C349.732 290.423 361.43 277.151 361.964 276.551C361.63 277.512 361.284 278.647 360.91 279.928C359.613 284.61 358.609 289.369 357.905 294.175C355.916 307.274 355.502 323.483 361.07 333.711C361.982 335.392 362.772 337.137 363.433 338.931C369.363 354.847 365.518 372.846 365.518 372.846Z" fill="#111111"/>
</g>
<path d="M368.745 352.24C368.745 352.24 382.211 347.45 384.452 336.016C384.782 334.914 385.004 333.784 385.115 332.639V316.761L359.559 310.633L360.114 328.133L368.745 352.24Z" fill="#EDA28E"/>
<path d="M360.142 328.148L299.709 356.58L306.619 369.346L368.742 352.241L360.142 328.148Z" fill="#EDA28E"/>
<path d="M270.896 370.114H149.604C149.061 370.114 148.536 369.922 148.12 369.574C147.705 369.225 147.425 368.741 147.33 368.207L133.455 289.74C133.343 289.108 133.371 288.459 133.537 287.839C133.703 287.219 134.003 286.643 134.416 286.151C134.828 285.659 135.343 285.264 135.925 284.992C136.506 284.721 137.141 284.58 137.782 284.58H257.656C258.192 284.58 258.711 284.766 259.124 285.107C259.538 285.448 259.82 285.921 259.923 286.447L275.21 364.878C275.334 365.514 275.316 366.17 275.157 366.799C274.997 367.428 274.701 368.013 274.289 368.513C273.876 369.014 273.358 369.417 272.772 369.693C272.185 369.97 271.545 370.114 270.896 370.114Z" fill="#AFBDE0"/>
<path d="M267.476 370.114H151.617C151.075 370.114 150.549 369.922 150.133 369.574C149.718 369.225 149.438 368.741 149.344 368.207L135.468 289.74C135.357 289.108 135.385 288.459 135.55 287.839C135.716 287.219 136.016 286.643 136.428 286.151C136.841 285.659 137.356 285.263 137.938 284.992C138.52 284.721 139.154 284.58 139.796 284.58H255.512C257.219 284.58 258.874 285.174 260.191 286.26C261.509 287.345 262.408 288.856 262.735 290.531L276.538 361.346C276.746 362.412 276.715 363.511 276.448 364.563C276.182 365.616 275.685 366.596 274.994 367.434C274.304 368.272 273.437 368.947 272.454 369.41C271.472 369.873 270.4 370.114 269.315 370.114H267.476Z" fill="#C9D2EC"/>
<path d="M215.414 343.225H187.993L180.761 378.48H207.279L215.414 343.225Z" fill="#AFBDE0"/>
<path d="M169.611 386.918H233.494V378.481H169.611V386.918Z" fill="#C9D2EC"/>
<path d="M215.414 343.225L215.801 370.114H209.209L215.414 343.225Z" fill="#AFBDE0"/>
<path d="M215.414 343.225L215.801 370.114H209.209L215.414 343.225Z" fill="#91A9D8"/>
<path d="M504.156 385.904H3.84373C1.7209 385.904 0 387.625 0 389.748C0 391.871 1.7209 393.592 3.84373 393.592H504.156C506.279 393.592 508 391.871 508 389.748C508 387.625 506.279 385.904 504.156 385.904Z" fill="#BDB0FF" fill-opacity="0.2"/>
<path d="M290.813 379.67H241.4V385.904H290.813V379.67Z" fill="#AFBDE0"/>
<path d="M268.635 375.146H263.578V379.673H268.635V375.146Z" fill="#91A9D8"/>
<path d="M276.931 375.146H271.875V379.673H276.931V375.146Z" fill="#91A9D8"/>
<path d="M285.228 375.146H280.171V379.673H285.228V375.146Z" fill="#91A9D8"/>
<path d="M261.019 375.146H255.962V379.673H261.019V375.146Z" fill="#91A9D8"/>
<path d="M251.065 375.146H246.008V379.673H251.065V375.146Z" fill="#91A9D8"/>
<path d="M43.3676 361.392C43.3676 361.392 23.4652 330.6 36.7331 327.505C50.0011 324.41 57.4643 355.203 58.5725 361.392H43.3676Z" fill="#C2DCCC"/>
<path d="M73.7741 361.392C73.7741 361.392 93.6762 330.6 80.4082 327.505C67.1403 324.41 59.6771 355.203 58.5688 361.392H73.7741Z" fill="#8EACA8"/>
<path d="M49.8732 361.391C49.8732 361.391 43.9006 318.369 56.366 318.369C68.8314 318.369 67.274 358.037 67.274 361.391H49.8732Z" fill="#D9E7DE"/>
<path d="M73.9307 385.962H42.5385L37.5842 361.65H78.88L73.9307 385.962Z" fill="#C9D2EC"/>
<path d="M68.1252 385.962H73.9275L78.7979 361.65H73.0748L68.1252 385.962Z" fill="#AFBDE0"/>
<path d="M217.957 159.341V169.453H227.678C230.265 169.449 232.745 168.42 234.575 166.591C236.404 164.761 237.434 162.281 237.438 159.694V142.473H234.825C232.61 142.473 230.416 142.909 228.37 143.757C226.323 144.604 224.464 145.847 222.897 147.413C221.331 148.98 220.088 150.839 219.24 152.886C218.393 154.932 217.957 157.126 217.957 159.341Z" fill="#B1C0E5"/>
<path d="M217.957 169.452V159.34C217.957 157.125 218.393 154.931 219.24 152.885C220.088 150.838 221.331 148.978 222.897 147.412C224.464 145.846 226.323 144.603 228.37 143.755C230.416 142.908 232.61 142.471 234.825 142.472H237.438V70.5469C192.236 90.6283 155.226 125.514 132.512 169.452H217.957Z" fill="#B1C0E5"/>
<path d="M69.6952 60.5703V161.581C69.6952 162.077 69.8922 162.553 70.243 162.904C70.5939 163.255 71.0701 163.452 71.5663 163.452H227.676C228.671 163.452 229.626 163.057 230.33 162.353C231.034 161.649 231.429 160.694 231.429 159.699V60.5703C231.429 58.9049 230.768 57.3078 229.59 56.1302C228.412 54.9526 226.815 54.291 225.15 54.291H75.9738C75.1492 54.291 74.3329 54.4535 73.5711 54.7691C72.8093 55.0846 72.1169 55.5471 71.5338 56.1302C70.9508 56.7133 70.4885 57.4055 70.173 58.1674C69.8575 58.9292 69.6951 59.7457 69.6952 60.5703Z" fill="white"/>
<path d="M136.187 163.451H71.5663C71.0701 163.451 70.5942 163.254 70.2433 162.903C69.8924 162.552 69.6953 162.076 69.6953 161.58L69.6953 85.1377L136.187 85.1377V163.451Z" fill="#C9D2EC"/>
<path d="M69.6952 60.5703V65.4396H231.429V60.5703C231.429 59.7457 231.267 58.9291 230.951 58.1672C230.636 57.4053 230.173 56.7131 229.59 56.13C229.007 55.5469 228.315 55.0844 227.553 54.7688C226.791 54.4533 225.975 54.2909 225.15 54.291H75.9744C74.3093 54.2919 72.7128 54.9537 71.5354 56.1312C70.358 57.3086 69.6961 58.9052 69.6952 60.5703Z" fill="#C9D2EC"/>
<path d="M221.455 62.9465C223.157 62.9465 224.537 61.5668 224.537 59.8648C224.537 58.1629 223.157 56.7832 221.455 56.7832C219.753 56.7832 218.373 58.1629 218.373 59.8648C218.373 61.5668 219.753 62.9465 221.455 62.9465Z" fill="white"/>
<path d="M208.696 59.8667C208.696 60.5888 208.951 61.2877 209.417 61.8395C209.529 61.9836 209.659 62.1131 209.803 62.2253C210.356 62.691 211.056 62.9464 211.779 62.9464C212.502 62.9464 213.202 62.691 213.755 62.2253C213.896 62.1115 214.023 61.9821 214.135 61.8395C214.604 61.2881 214.862 60.5876 214.862 59.8635C214.862 59.1393 214.604 58.4388 214.135 57.8875C214.023 57.7452 213.895 57.6157 213.755 57.5015C213.202 57.0363 212.502 56.7812 211.779 56.7812C211.056 56.7813 210.356 57.0363 209.803 57.5015C209.661 57.6158 209.531 57.7453 209.417 57.8875C208.951 58.4419 208.696 59.1427 208.696 59.8667Z" fill="white"/>
<path d="M210.321 61.0863C210.391 61.1749 210.471 61.2548 210.56 61.3242L211.778 60.1019L212.017 59.8672L213.236 58.6448C213.167 58.557 213.088 58.477 213.001 58.4062L211.778 59.6292L211.541 59.8672L210.321 61.0863Z" fill="#AFBDE0"/>
<path d="M210.321 58.6468L211.541 59.8691L211.778 60.1038L213.001 61.3262C213.088 61.2555 213.166 61.1757 213.236 61.0882L211.778 59.6312L210.56 58.4082C210.472 58.4787 210.392 58.5587 210.321 58.6468Z" fill="#AFBDE0"/>
<path d="M219.56 60.0356H221.287H221.621H223.35C223.363 59.9245 223.363 59.8123 223.35 59.7012H221.29H219.564C219.55 59.8122 219.549 59.9243 219.56 60.0356Z" fill="#AFBDE0"/>
<path d="M69.6952 60.5703V161.581C69.6952 162.077 69.8922 162.553 70.243 162.904C70.5939 163.255 71.0701 163.452 71.5663 163.452H227.676C228.671 163.452 229.626 163.057 230.33 162.353C231.034 161.649 231.429 160.694 231.429 159.699V60.5703C231.429 58.9049 230.768 57.3078 229.59 56.1302C228.412 54.9526 226.815 54.291 225.15 54.291H75.9738C75.1492 54.291 74.3329 54.4535 73.5711 54.7691C72.8093 55.0846 72.1169 55.5471 71.5338 56.1302C70.9508 56.7133 70.4885 57.4055 70.173 58.1674C69.8575 58.9292 69.6951 59.7457 69.6952 60.5703Z" stroke="white" stroke-width="0.791" stroke-miterlimit="10"/>
<g style="mix-blend-mode:overlay" opacity="0.3">
<path d="M125.168 163.449C125.168 163.449 135.918 129.861 141.726 117.308C150.559 98.2249 144.921 55.582 144.921 55.582C144.921 55.582 136.185 64.8543 120.869 70.5482C106.484 75.8939 90.9054 94.3779 96.3137 135.783C97.5706 145.407 102.941 163.295 102.941 163.295L125.168 163.449Z" fill="#161616"/>
</g>
<path d="M176.642 0H210.977C212.363 -2.64502e-09 213.735 0.272894 215.015 0.803125C216.295 1.33336 217.458 2.11053 218.437 3.09026C219.417 4.07 220.194 5.23311 220.724 6.51317C221.255 7.79324 221.527 9.16518 221.527 10.5507C221.527 13.3488 220.416 16.0323 218.437 18.0109C216.459 19.9896 213.775 21.1013 210.977 21.1014H184.022L176.803 27.6715V21.1014H176.642C175.256 21.1014 173.884 20.8285 172.604 20.2983C171.324 19.7681 170.161 18.9909 169.181 18.0112C168.201 17.0315 167.424 15.8683 166.894 14.5883C166.364 13.3082 166.091 11.9362 166.091 10.5507C166.091 9.16514 166.364 7.79317 166.894 6.5131C167.424 5.23302 168.201 4.06999 169.181 3.09026C170.161 2.11054 171.324 1.33335 172.604 0.803125C173.884 0.272902 175.256 0 176.642 0Z" fill="#B6E4DF"/>
<path d="M204.877 12.5571C205.9 12.5571 206.729 11.7276 206.729 10.7043C206.729 9.68107 205.9 8.85156 204.877 8.85156C203.853 8.85156 203.024 9.68107 203.024 10.7043C203.024 11.7276 203.853 12.5571 204.877 12.5571Z" fill="white"/>
<path d="M193.81 12.5571C194.833 12.5571 195.662 11.7276 195.662 10.7043C195.662 9.68107 194.833 8.85156 193.81 8.85156C192.786 8.85156 191.957 9.68107 191.957 10.7043C191.957 11.7276 192.786 12.5571 193.81 12.5571Z" fill="white"/>
<path d="M182.742 12.5571C183.766 12.5571 184.595 11.7276 184.595 10.7043C184.595 9.68107 183.766 8.85156 182.742 8.85156C181.719 8.85156 180.89 9.68107 180.89 10.7043C180.89 11.7276 181.719 12.5571 182.742 12.5571Z" fill="white"/>
<mask id="mask0_145_17167" style="mask-type:luminance" maskUnits="userSpaceOnUse" x="69" y="17" width="163" height="147">
<path d="M69.6952 23.319V161.585C69.6952 162.081 69.8922 162.557 70.2431 162.908C70.594 163.258 71.0701 163.456 71.5663 163.456H227.676C228.671 163.456 229.626 163.06 230.33 162.356C231.034 161.653 231.429 160.698 231.429 159.702V23.3204C231.429 21.655 230.768 20.0578 229.59 18.8802C228.412 17.7026 226.815 17.041 225.15 17.041H75.9744C75.1499 17.0409 74.3335 17.2033 73.5718 17.5187C72.81 17.8342 72.1176 18.2966 71.5345 18.8796C70.9514 19.4625 70.489 20.1546 70.1734 20.9163C69.8577 21.6781 69.6953 22.4945 69.6952 23.319Z" fill="white"/>
</mask>
<g mask="url(#mask0_145_17167)">
<mask id="mask1_145_17167" style="mask-type:luminance" maskUnits="userSpaceOnUse" x="96" y="27" width="163" height="164">
<path d="M258.633 27.7188H96.3148V190.037H258.633V27.7188Z" fill="white"/>
</mask>
<g mask="url(#mask1_145_17167)">
<path fill-rule="evenodd" clip-rule="evenodd" d="M198.569 110.822C195.408 102.216 184.805 73.7273 174.868 69.8438L164.241 83.2349C166.035 94.4545 178.702 137.167 194.899 130.689C193.342 125.364 194.849 119.043 197.273 115.939C198.229 118.21 199.555 119.677 201.016 116.359C202.716 112.494 200.603 111.217 198.569 110.822Z" fill="#663A87"/>
<path fill-rule="evenodd" clip-rule="evenodd" d="M198.569 110.822C195.408 102.216 184.805 73.7273 174.868 69.8438L164.241 83.2349C166.035 94.4545 178.702 137.167 194.899 130.689C193.342 125.364 194.849 119.043 197.273 115.939C198.229 118.21 199.555 119.677 201.016 116.359C202.716 112.494 200.603 111.217 198.569 110.822Z" fill="#5E9BA1"/>
<path fill-rule="evenodd" clip-rule="evenodd" d="M198.569 110.822C195.408 102.216 184.805 73.7273 174.868 69.8438L164.241 83.2349C166.035 94.4545 178.702 137.167 194.899 130.689C193.342 125.364 194.849 119.043 197.273 115.939C198.229 118.21 199.555 119.677 201.016 116.359C202.716 112.494 200.603 111.217 198.569 110.822Z" fill="#F4B85D"/>
<g style="mix-blend-mode:overlay" opacity="0.2">
<path fill-rule="evenodd" clip-rule="evenodd" d="M198.569 110.822C195.408 102.216 184.805 73.7273 174.868 69.8438L164.241 83.2349C166.035 94.4545 178.702 137.167 194.899 130.689C193.342 125.364 194.849 119.043 197.273 115.939C198.229 118.21 199.555 119.677 201.016 116.359C202.716 112.494 200.603 111.217 198.569 110.822Z" fill="#111111"/>
</g>
<path fill-rule="evenodd" clip-rule="evenodd" d="M185.646 111.644C185.658 111.628 189.53 105.831 196.664 107.472C198.417 107.876 199.455 109.346 199.878 111.326C200.184 112.979 200.177 114.674 199.856 116.323C199.527 118.177 198.926 119.973 198.073 121.651C196.254 125.208 193.309 128.01 189.635 127.946V128.087C193.371 128.152 196.36 125.316 198.201 121.716C199.06 120.025 199.666 118.216 199.997 116.347C200.321 114.68 200.329 112.967 200.019 111.297C199.584 109.264 198.513 107.753 196.697 107.334C189.471 105.67 185.545 111.545 185.534 111.562L185.646 111.644Z" fill="#D8892B"/>
<g style="mix-blend-mode:overlay" opacity="0.3">
<path fill-rule="evenodd" clip-rule="evenodd" d="M198.569 110.821C197.456 111.136 196.404 111.634 195.455 112.295L197.427 107.742L198.569 110.821Z" fill="#050F1B"/>
</g>
<path d="M129.549 143.074C139.958 166.681 163.237 224.229 166.214 250.136C167.962 265.355 189.347 306.296 189.347 306.296C199.874 306.677 203.398 300.468 203.502 300.279C203.502 300.279 196.787 248.242 193.306 219.571C189.825 190.901 186.787 150.645 186.787 150.645L129.549 143.074Z" fill="#4E67E7"/>
<g style="mix-blend-mode:overlay" opacity="0.2">
<path d="M129.549 143.074C139.958 166.681 163.237 224.229 166.214 250.136C167.962 265.355 189.347 306.296 189.347 306.296C199.874 306.677 203.398 300.468 203.502 300.279C203.502 300.279 196.787 248.242 193.306 219.571C189.825 190.901 186.787 150.645 186.787 150.645L129.549 143.074Z" fill="#111111"/>
</g>
<path d="M131.875 251.264L101.468 294.955C101.079 295.513 100.502 295.912 99.8432 296.077C99.1839 296.242 98.4872 296.162 97.882 295.853L86.9741 290.287C86.9741 290.287 103.56 238.161 114.815 219.257C118.483 213.096 117.828 205.997 117.828 205.997C118.664 187.121 119.464 160.977 122.261 150.641H178.638C178.638 150.641 149.823 220.535 143.473 232.613C143.473 232.613 140.682 238.409 131.875 251.264Z" fill="#4E67E7"/>
<g style="mix-blend-mode:overlay" opacity="0.1">
<path d="M122.264 150.641H178.638C178.638 150.641 127.763 153.411 120.347 160.335L122.264 150.641Z" fill="black"/>
</g>
<path d="M101.029 293.09C101.029 293.09 94.983 290.78 92.6726 288.853C92.6726 288.853 110.771 239.179 119.049 225.51C127.328 211.84 134.296 169.372 136.396 151.701" stroke="#3A4FC8" stroke-width="0.519" stroke-miterlimit="10"/>
<path fill-rule="evenodd" clip-rule="evenodd" d="M160.22 65.4092C160.22 65.4092 166.977 64.9307 170.904 67.1114C175.276 69.487 179.931 73.9136 181.504 82.6206C185.749 106.121 186.592 125.761 186.785 150.642C186.785 150.642 186.389 154.325 178.168 154.325C177.605 154.325 176.864 154.3 175.943 154.26H175.812C174.764 154.221 173.51 154.17 172.092 154.094C171.682 154.068 171.261 154.055 170.826 154.028C162.975 153.594 151.058 152.762 140.996 152.033C140.88 152.021 140.778 152.021 140.676 152.008C139.205 151.906 137.774 151.803 136.393 151.701C136.214 151.689 136.048 151.676 135.881 151.662C128.03 151.076 122.289 150.64 122.289 150.64H122.264C122.264 124.812 115.5 104.815 116.971 79.4086C117.354 72.6938 125.41 68.8475 132.506 66.7613C134.308 66.2398 136.06 65.8278 137.595 65.5083C139.426 65.1125 141.279 64.8221 143.144 64.6387L160.218 65.4047" fill="#F4B85D"/>
<path d="M144.922 55.5893C144.922 55.5893 145.145 57.1663 144.73 57.545C144.894 57.5206 145.051 57.4609 145.191 57.3701C145.33 57.2793 145.448 57.1595 145.536 57.0189C145.536 57.0189 145.778 60.3482 144.022 60.9839C145.254 61.0243 146.465 60.6633 147.473 59.9552C149.319 58.7446 147.25 55.082 147.25 55.082L144.922 55.5893Z" fill="#081D39"/>
<path d="M160.474 66.8198C160.71 68.889 158.706 72.6252 158.706 72.6252L145.342 64.6457L146.519 55.522C149.208 55.0066 151.984 55.2005 154.575 56.0847C156.387 56.7066 156.959 59.991 159.179 59.6507L160.474 66.8198Z" fill="#F7CDBE"/>
<path fill-rule="evenodd" clip-rule="evenodd" d="M163.311 42.2656C163.84 44.3263 164.2 46.4268 164.387 48.5462C164.488 49.6688 164.493 50.869 164.478 52.0913C164.425 56.5479 163.44 61.2528 159.816 63.1825C159.816 63.1825 147.355 64.0007 146.981 55.8895C146.981 55.8895 142.157 55.4859 141.651 52.1638C141.145 48.8416 145.646 48.2424 147.687 49.5651C148.206 48.2588 148.279 46.8178 147.895 45.4659C147.895 45.4659 152.154 44.3159 156.746 43.3445C159.003 42.8673 161.745 43.7012 163.311 42.2656Z" fill="#F7CDBE"/>
<g style="mix-blend-mode:overlay">
<path d="M159.816 63.1826C159.816 63.1826 155.439 64.8659 149.851 60.9961C149.851 60.9961 153.007 65.7975 160.282 65.7499L159.816 63.1826Z" fill="#1E1E1E"/>
</g>
<g style="mix-blend-mode:overlay" opacity="0.4">
<path fill-rule="evenodd" clip-rule="evenodd" d="M116.712 87.0996C116.92 102.648 119.718 116.948 121.261 132.299C124.636 110.887 132.872 88.4354 132.872 88.4354L116.712 87.0996Z" fill="#111111"/>
</g>
<g style="mix-blend-mode:multiply" opacity="0.3">
<path d="M143.148 51.6496C143.148 51.6496 143.386 50.383 144.55 50.795C144.281 51.3181 144.104 51.8838 144.028 52.4671C144.005 52.7266 144.047 52.9877 144.152 53.2263C144.256 53.4649 144.419 53.6732 144.626 53.8319C144.832 53.9905 145.076 54.0943 145.333 54.1335C145.591 54.1728 145.854 54.1463 146.099 54.0565C147.199 53.711 146.575 51.8152 146.285 51.2695C145.685 50.1424 143.369 49.585 143.148 51.6496Z" fill="#F0C4C3"/>
</g>
<g style="mix-blend-mode:multiply">
<path d="M146.48 55.8223C146.657 55.8277 146.834 55.8146 147.008 55.7832C146.872 55.9761 146.668 56.1099 146.437 56.1574L146.48 55.8223Z" fill="#F0C4C3"/>
</g>
<g style="mix-blend-mode:multiply">
<path d="M149.437 52.6868C149.437 52.6868 152.937 50.8758 153.592 48.9304C154.328 49.3876 155.178 49.6285 156.044 49.6254C156.044 49.6254 153.958 48.6123 154.001 47.4303C154.002 47.0875 154.136 46.7585 154.375 46.5125C154.614 46.2666 154.938 46.123 155.281 46.1122C155.501 46.0704 158.974 51.9143 164.467 51.4006L160.367 49.3991L157.935 44.3357H158.706C158.706 44.3357 160.45 46.637 161.945 47.358C163.441 48.079 164.333 48.4845 164.476 51.2109L165.128 47.6572C165.128 47.6572 160.851 40.1164 155.517 41.4137C150.182 42.7111 149.437 52.6868 149.437 52.6868Z" fill="#F0C4C3"/>
</g>
<path d="M165.775 38.6136C165.775 38.6136 165.775 32.6159 161.431 32.3701C157.22 32.1347 154.212 36.1513 154.034 36.3945C154.109 36.1904 155.152 33.4041 154.58 32.1172C154.58 32.1172 154.149 36.4081 152.25 36.3462C152.25 36.3462 151.38 32.8584 149.374 32.3564C149.374 32.3564 151.886 35.616 150.293 37.0822C148.701 38.5484 145.456 37.2021 142.949 39.5276C140.443 41.853 140.96 43.8635 142.615 49.676C142.615 49.676 146.722 46.7991 149.437 52.6886C149.437 52.6886 152.929 50.6474 153.414 47.9765C153.414 47.9765 154.762 49.6891 156.045 49.6272C155.048 48.7797 154.297 47.9093 154.247 46.9869L155.519 45.9901C155.519 45.9901 158.757 51.1585 164.468 51.401C164.468 51.6272 164.48 51.8633 164.479 52.0895C164.534 51.8593 164.603 51.6327 164.685 51.4108C164.75 51.4154 164.816 51.4154 164.881 51.4154C164.881 51.4154 164.823 51.3887 164.716 51.3352C165.245 49.8488 166.73 46.6263 167.43 44.8512C168.349 42.5271 168.655 39.0393 165.775 38.6136ZM158.707 44.3375C158.707 44.3375 161.119 47.0755 163.191 47.7274C163.468 47.8188 163.718 47.9761 163.921 48.1856C164.123 48.3951 164.272 48.6507 164.354 48.9303C164.489 49.6829 164.53 50.4493 164.476 51.212C163.1 50.4714 158.937 47.9322 158.707 44.3375Z" fill="#081D39"/>
<g style="mix-blend-mode:overlay" opacity="0.3">
<path d="M147.355 72.6264C151.09 71.7698 154.971 71.7698 158.706 72.6264L153.882 70.1855L147.779 71.08L147.355 72.6264Z" fill="#050F1B"/>
</g>
<path d="M158.706 72.6273C158.706 72.6273 151.774 68.073 147.355 72.6273L143.585 64.6458L145.126 62.467C145.193 62.3681 145.295 62.2976 145.411 62.2694C145.527 62.2412 145.65 62.2573 145.755 62.3145C148.556 63.8837 153.292 67.8376 158.706 72.6273Z" fill="white"/>
<g style="mix-blend-mode:overlay" opacity="0.3">
<path d="M158.706 72.628C158.706 72.628 163.57 69.1885 166.977 71.0458L165.407 69.7198L162.106 69.4121L159.033 71.6553L158.706 72.628Z" fill="#050F1B"/>
</g>
<path d="M158.706 72.6266C158.706 72.6266 162.911 67.1668 166.977 71.0444L160.854 64.168L158.706 72.6266Z" fill="white"/>
<path d="M160.854 64.1657L159.953 63.9336L160.344 66.085L160.854 64.1657Z" fill="#E59E41"/>
</g>
</g>
<path fill-rule="evenodd" clip-rule="evenodd" d="M106.244 127.111C118.613 128.115 130.098 137.689 150.734 145.735L149.179 153.79C149.179 153.79 121.093 151.502 104.729 144.798C100.255 142.742 98.4859 138.23 100.179 132.212C101.41 127.837 104.418 127.12 106.244 127.111Z" fill="#F7CDBE"/>
<path fill-rule="evenodd" clip-rule="evenodd" d="M149.179 153.791L150.734 145.736C150.734 145.736 161.61 140.897 163.929 142.945C166.249 144.993 160.137 145.668 158.615 146.574C157.094 147.479 163.028 148.138 166.596 149.868C170.164 151.599 162.2 159.208 149.179 153.791Z" fill="#F7CDBE"/>
<g style="mix-blend-mode:overlay" opacity="0.6">
<path fill-rule="evenodd" clip-rule="evenodd" d="M104.744 144.803C116.334 149.55 138.869 153.009 149.179 153.789C148.293 153.377 144.019 152.663 142.565 152.334C138.613 151.475 121.153 148.552 108.796 143.267C98.2996 138.777 103.073 130.788 106.072 127.111C104.236 127.164 101.369 127.967 100.178 132.213C98.4839 138.235 100.258 142.751 104.744 144.803Z" fill="#1E1E1E"/>
</g>
<path fill-rule="evenodd" clip-rule="evenodd" d="M100.277 129.21C100.079 129.306 99.8867 129.415 99.7025 129.536C98.4221 130.409 100.275 131.693 100.275 131.693C97.2395 133.443 99.6503 135.705 99.6503 135.705C100.35 134.577 101.245 133.584 102.293 132.771C105.608 130.173 110.341 129.205 114.572 129.673C115.765 129.8 116.94 130.057 118.078 130.437C118.692 129.42 116.871 127.967 116.871 127.967C116.871 127.967 118.416 126.264 115.8 126.278C116.942 123.202 118.099 120.307 119.249 117.578C128.028 96.7448 136.402 85.6334 134.403 78.873C130.529 69.6444 123.032 69.6489 117.144 76.4074C109.633 85.029 100.596 104.975 100.277 129.213V129.21ZM111.811 127.115H111.828L111.953 127.122L111.774 127.112H111.811V127.115Z" fill="#F4B85D"/>
<g style="mix-blend-mode:overlay" opacity="0.3">
<path fill-rule="evenodd" clip-rule="evenodd" d="M116.548 124.301C116.299 124.953 116.05 125.612 115.803 126.277C113.732 125.984 111.622 126.14 109.616 126.733C109.616 126.733 112.559 123.569 116.548 124.301Z" fill="#050F1B"/>
</g>
<path fill-rule="evenodd" clip-rule="evenodd" d="M130.758 73.6584C130.778 73.6721 137.904 78.145 131.611 91.0869C131.011 92.321 130.288 93.8016 129.57 95.2762C123.881 106.941 118.271 118.445 116.068 125.253L116.023 125.393L116.17 125.396C116.18 125.396 119.495 125.448 117.116 127.422L117.002 127.516L117.126 127.598C117.551 127.879 117.863 128.302 118.008 128.79C118.152 129.279 118.119 129.804 117.915 130.271C116.621 129.9 101.996 125.949 99.5468 135.682L99.7601 135.735C102.263 125.79 117.902 130.496 117.949 130.509L118.041 130.536L118.079 130.449C118.326 129.952 118.39 129.385 118.26 128.846C118.129 128.307 117.813 127.832 117.366 127.504C119.685 125.508 117 125.226 116.323 125.187C118.55 118.381 124.12 106.958 129.768 95.3759C130.411 94.0564 131.054 92.7382 131.809 91.186C138.187 78.0693 130.896 73.4922 130.878 73.4785L130.758 73.6584Z" fill="#D8892B"/>
<path d="M143.74 132.699C142.798 134.094 142.327 135.754 142.396 137.436C142.396 140.588 143.707 143.038 145.583 143.394C145.621 143.401 145.657 143.413 145.69 143.43L174.775 158.388C174.955 158.481 175.154 158.53 175.357 158.53C175.559 158.53 175.758 158.481 175.938 158.388L218.597 140.553C218.85 140.423 219.053 140.213 219.172 139.955C219.291 139.697 219.319 139.407 219.253 139.131C219.187 138.854 219.03 138.608 218.807 138.432C218.584 138.256 218.308 138.16 218.024 138.16C217.993 138.16 217.959 138.16 217.93 138.163C217.921 138.164 217.911 138.164 217.901 138.163C217.835 138.163 217.77 138.147 217.713 138.116C217.655 138.084 217.606 138.039 217.571 137.984C216.964 136.928 216.662 135.724 216.699 134.507C216.669 133.402 216.908 132.305 217.396 131.313C217.434 131.242 217.492 131.184 217.563 131.147L218.597 130.612C218.85 130.483 219.053 130.273 219.172 130.015C219.291 129.757 219.32 129.466 219.254 129.19C219.188 128.913 219.03 128.667 218.807 128.491C218.584 128.315 218.309 128.219 218.024 128.219C217.993 128.219 217.959 128.219 217.93 128.223H217.901C217.835 128.223 217.77 128.207 217.713 128.175C217.655 128.144 217.606 128.099 217.571 128.043C216.951 126.993 216.648 125.786 216.699 124.567C216.669 123.461 216.908 122.365 217.396 121.372C217.434 121.301 217.492 121.243 217.563 121.206L218.597 120.671C218.804 120.567 218.979 120.407 219.101 120.209C219.223 120.011 219.288 119.783 219.289 119.55C219.289 119.318 219.225 119.09 219.104 118.891C218.983 118.693 218.809 118.532 218.602 118.426L189.314 104.744C189.133 104.652 188.932 104.603 188.728 104.604C188.527 104.604 188.33 104.652 188.152 104.744C188.152 104.744 144.909 121.759 144.85 121.788C143.334 122.593 142.393 124.78 142.393 127.496C142.324 129.176 142.794 130.833 143.736 132.225C143.789 132.293 143.818 132.376 143.818 132.462C143.819 132.548 143.791 132.631 143.74 132.699ZM216.505 128.853L175.663 145.759C175.097 144.647 174.822 143.41 174.864 142.164C174.829 140.938 175.09 139.721 175.626 138.618C175.734 138.594 175.839 138.557 175.938 138.507L215.444 122.288C215.5 122.259 215.561 122.245 215.624 122.245C215.682 122.244 215.74 122.257 215.792 122.281C215.845 122.306 215.892 122.342 215.929 122.387C215.966 122.432 215.992 122.485 216.006 122.541C216.02 122.597 216.022 122.656 216.01 122.713C215.885 123.324 215.821 123.945 215.818 124.569C215.787 125.867 216.078 127.154 216.665 128.313C216.691 128.359 216.707 128.409 216.713 128.462C216.719 128.514 216.714 128.567 216.698 128.618C216.683 128.668 216.658 128.715 216.624 128.756C216.59 128.796 216.548 128.829 216.501 128.853H216.505ZM175.657 155.712C175.096 154.603 174.823 153.369 174.864 152.127C174.828 150.893 175.093 149.669 175.636 148.561C175.738 148.539 175.837 148.503 175.929 148.454L215.447 132.231C215.503 132.203 215.565 132.188 215.627 132.188C215.686 132.187 215.743 132.2 215.796 132.225C215.848 132.249 215.894 132.285 215.931 132.33C215.968 132.375 215.995 132.427 216.009 132.484C216.023 132.54 216.025 132.599 216.013 132.656C215.889 133.267 215.824 133.888 215.821 134.512C215.791 135.811 216.082 137.097 216.668 138.256C216.694 138.302 216.71 138.353 216.716 138.405C216.722 138.457 216.717 138.511 216.702 138.561C216.686 138.612 216.661 138.658 216.627 138.699C216.593 138.739 216.551 138.772 216.504 138.796L175.657 155.712ZM144.919 137.44C144.919 135.49 145.582 134.206 146.027 133.953C146.076 133.925 146.131 133.908 146.187 133.903C146.236 133.89 146.287 133.883 146.338 133.883C146.401 133.883 146.463 133.898 146.518 133.926L174.752 148.44C174.242 149.601 173.991 150.859 174.017 152.127C173.998 153.27 174.199 154.406 174.61 155.472L146.677 141.107L146.638 141.096C146.625 141.091 146.612 141.086 146.599 141.08C146.532 141.054 146.463 141.035 146.393 141.023L146.34 141.011L146.314 141.004C146.246 140.982 146.176 140.966 146.104 140.957C146.069 140.955 146.035 140.95 146.001 140.94C145.91 140.926 145.827 140.879 145.767 140.81C145.157 139.794 144.862 138.619 144.919 137.436V137.44ZM144.919 127.498C144.919 125.567 145.578 124.279 146.022 124.015C146.071 123.986 146.125 123.968 146.181 123.962C146.212 123.952 146.243 123.945 146.276 123.94C146.297 123.936 146.319 123.934 146.341 123.934C146.404 123.934 146.465 123.949 146.521 123.977L174.749 138.494C174.244 139.651 173.995 140.904 174.022 142.166C174.002 143.314 174.205 144.455 174.621 145.526L146.681 131.164C146.669 131.164 146.656 131.158 146.643 131.154C146.629 131.15 146.617 131.144 146.604 131.138C146.535 131.111 146.463 131.091 146.389 131.078L146.351 131.07C146.321 131.063 146.286 131.054 146.246 131.044C146.197 131.031 146.148 131.021 146.098 131.015C146.069 131.013 146.04 131.008 146.012 131C145.919 130.986 145.833 130.94 145.771 130.869C145.16 129.853 144.863 128.679 144.919 127.494V127.498Z" fill="#9578FF"/>
<path d="M216.702 128.613C216.717 128.563 216.722 128.51 216.717 128.458C216.711 128.405 216.695 128.354 216.67 128.308C216.083 127.149 215.792 125.863 215.822 124.564C215.825 123.941 215.89 123.32 216.014 122.709C216.026 122.652 216.025 122.593 216.011 122.537C215.997 122.48 215.97 122.428 215.933 122.383C215.896 122.338 215.85 122.302 215.797 122.277C215.744 122.252 215.687 122.24 215.629 122.24C215.566 122.24 215.505 122.255 215.449 122.283L175.942 138.502C175.844 138.553 175.739 138.59 175.631 138.613C175.095 139.717 174.834 140.933 174.869 142.16C174.827 143.406 175.102 144.643 175.667 145.754L216.51 128.849C216.556 128.824 216.597 128.791 216.629 128.75C216.662 128.71 216.687 128.663 216.702 128.613Z" fill="#FCF1E0"/>
<path d="M216.505 138.792C216.552 138.768 216.594 138.735 216.628 138.695C216.662 138.654 216.688 138.608 216.703 138.557C216.718 138.507 216.723 138.453 216.718 138.401C216.712 138.349 216.695 138.298 216.669 138.252C216.083 137.093 215.792 135.807 215.822 134.508C215.825 133.884 215.89 133.263 216.014 132.652C216.026 132.595 216.024 132.536 216.01 132.48C215.996 132.423 215.969 132.371 215.933 132.326C215.896 132.281 215.849 132.245 215.797 132.22C215.744 132.196 215.687 132.183 215.629 132.184C215.566 132.184 215.504 132.198 215.449 132.227L175.93 148.45C175.838 148.499 175.739 148.535 175.637 148.557C175.094 149.665 174.829 150.889 174.865 152.123C174.824 153.365 175.097 154.599 175.658 155.708L216.505 138.792Z" fill="#FCF1E0"/>
<path d="M145.769 140.806C145.829 140.876 145.912 140.922 146.003 140.937C146.036 140.946 146.071 140.952 146.106 140.954C146.178 140.963 146.248 140.978 146.316 141L146.342 141.008L146.394 141.019C146.465 141.031 146.534 141.051 146.601 141.076C146.614 141.082 146.627 141.087 146.64 141.092L146.679 141.103L174.612 155.468C174.201 154.402 174 153.266 174.019 152.124C173.993 150.856 174.244 149.597 174.754 148.436L146.52 133.923C146.465 133.894 146.403 133.879 146.34 133.879C146.289 133.879 146.238 133.886 146.189 133.9C146.132 133.904 146.078 133.921 146.029 133.949C145.581 134.202 144.921 135.486 144.921 137.436C144.865 138.619 145.16 139.791 145.769 140.806Z" fill="#FCF1E0"/>
<path d="M145.769 130.865C145.831 130.936 145.916 130.982 146.009 130.996C146.037 131.004 146.066 131.009 146.095 131.011C146.145 131.017 146.195 131.027 146.243 131.04C146.28 131.05 146.318 131.059 146.349 131.066L146.387 131.074C146.46 131.087 146.532 131.107 146.601 131.134C146.614 131.14 146.627 131.145 146.64 131.15C146.653 131.154 146.666 131.158 146.679 131.16L174.619 145.522C174.203 144.451 173.999 143.31 174.019 142.162C173.993 140.9 174.241 139.647 174.747 138.49L146.518 123.973C146.463 123.945 146.401 123.93 146.338 123.93C146.317 123.93 146.295 123.932 146.273 123.935C146.241 123.941 146.209 123.948 146.178 123.958C146.122 123.964 146.068 123.982 146.02 124.011C145.575 124.272 144.917 125.563 144.917 127.494C144.861 128.678 145.158 129.851 145.769 130.865Z" fill="#FCF1E0"/>
<path d="M206.367 146.782C206.367 146.782 206.841 140.569 209.808 140.454C210.63 140.395 211.454 140.547 212.202 140.894C212.95 141.242 213.596 141.775 214.081 142.442C214.081 142.442 212.757 146.616 206.367 146.782Z" fill="#F7CDBE"/>
<path d="M429.517 83.5561V154.869C429.517 155.219 429.378 155.555 429.13 155.803C428.882 156.05 428.546 156.189 428.196 156.189H317.265C316.753 156.189 316.262 155.986 315.9 155.624C315.538 155.262 315.335 154.771 315.334 154.259V83.5561C315.334 82.3803 315.801 81.2528 316.633 80.4214C317.464 79.59 318.592 79.123 319.767 79.123H425.084C425.666 79.123 426.242 79.2377 426.78 79.4605C427.318 79.6833 427.807 80.0098 428.218 80.4214C428.63 80.833 428.956 81.3218 429.179 81.8597C429.402 82.3975 429.517 82.9739 429.517 83.5561Z" fill="white"/>
<path d="M315.334 91.8535H429.517V153.966C429.517 154.555 429.282 155.121 428.866 155.538C428.449 155.954 427.884 156.188 427.294 156.188H317.265C317.012 156.188 316.761 156.139 316.526 156.041C316.292 155.944 316.079 155.802 315.9 155.623C315.721 155.444 315.578 155.231 315.481 154.996C315.384 154.762 315.334 154.511 315.334 154.257V91.8535Z" fill="#E8E3FF"/>
<path d="M429.517 83.5561V86.9937H315.334V83.5561C315.334 82.3803 315.802 81.2528 316.633 80.4214C317.464 79.59 318.592 79.123 319.767 79.123H425.084C426.259 79.123 427.387 79.59 428.218 80.4214C429.05 81.2528 429.517 82.3803 429.517 83.5561Z" fill="#E8E3FF"/>
<path d="M322.376 85.2337C323.578 85.2337 324.552 84.2598 324.552 83.0583C324.552 81.8568 323.578 80.8828 322.376 80.8828C321.175 80.8828 320.201 81.8568 320.201 83.0583C320.201 84.2598 321.175 85.2337 322.376 85.2337Z" fill="white"/>
<path d="M331.384 83.0616C331.384 83.5715 331.203 84.065 330.874 84.4548C330.795 84.5562 330.704 84.6474 330.602 84.7266C330.212 85.0555 329.718 85.2359 329.207 85.2359C328.697 85.2359 328.203 85.0555 327.812 84.7266C327.713 84.6464 327.623 84.5552 327.544 84.4548C327.213 84.0656 327.031 83.571 327.031 83.0597C327.031 82.5483 327.213 82.0537 327.544 81.6645C327.623 81.5637 327.713 81.4723 327.812 81.392C328.203 81.0632 328.697 80.8828 329.207 80.8828C329.718 80.8828 330.212 81.0632 330.602 81.392C330.703 81.4725 330.794 81.5638 330.874 81.6645C331.203 82.0557 331.384 82.5504 331.384 83.0616Z" fill="white"/>
<path d="M330.238 83.9186C330.189 83.9815 330.133 84.038 330.07 84.0868L329.21 83.2237L329.041 83.0587L328.181 82.1956C328.23 82.1335 328.285 82.0771 328.346 82.0273L329.21 82.8906L329.378 83.0587L330.238 83.9186Z" fill="#B3A4FF"/>
<path d="M330.238 82.1956L329.378 83.0587L329.21 83.2237L328.346 84.0868C328.285 84.0372 328.229 83.9808 328.181 83.9186L329.21 82.8906L330.07 82.0273C330.132 82.077 330.188 82.1334 330.238 82.1956Z" fill="#B3A4FF"/>
<path d="M323.714 83.1774H322.495H322.259H321.038C321.029 83.099 321.029 83.0198 321.038 82.9414H322.493H323.712C323.721 83.0198 323.722 83.0989 323.714 83.1774Z" fill="#B3A4FF"/>
<path d="M429.517 83.5561V154.259C429.517 154.771 429.313 155.262 428.951 155.624C428.589 155.986 428.098 156.189 427.586 156.189H317.265C316.753 156.189 316.262 155.986 315.9 155.624C315.538 155.262 315.335 154.771 315.334 154.259V83.5561C315.334 82.3803 315.802 81.2528 316.633 80.4214C317.464 79.59 318.592 79.123 319.767 79.123H425.084C425.666 79.123 426.242 79.2377 426.78 79.4605C427.318 79.6833 427.807 80.0098 428.218 80.4214C428.63 80.833 428.956 81.3218 429.179 81.8597C429.402 82.3975 429.517 82.9739 429.517 83.5561Z" stroke="white" stroke-width="0.559" stroke-miterlimit="10"/>
<path d="M372.426 126.773C379.598 126.773 385.412 120.959 385.412 113.787C385.412 106.615 379.598 100.801 372.426 100.801C365.254 100.801 359.439 106.615 359.439 113.787C359.439 120.959 365.254 126.773 372.426 126.773Z" fill="#B3A4FF"/>
<g style="mix-blend-mode:overlay" opacity="0.4">
<path d="M365.619 113.571L364.035 115.379L371.077 121.55L372.661 119.742L365.619 113.571Z" fill="#111111"/>
<path d="M379.475 108.641L369.432 120.102L371.064 121.532L381.107 110.071L379.475 108.641Z" fill="#111111"/>
</g>
<path d="M365.476 112.267L363.892 114.074L370.933 120.245L372.517 118.438L365.476 112.267Z" fill="white"/>
<path d="M379.344 107.346L369.301 118.807L370.933 120.237L380.976 108.776L379.344 107.346Z" fill="white"/>
<path d="M408.375 135.189H336.476V137.731H408.375V135.189Z" fill="#B3A4FF"/>
<path d="M391.817 141.135H353.034V143.677H391.817V141.135Z" fill="#B3A4FF"/>
<path d="M283.597 32.6953H294.687C295.055 32.6953 295.408 32.8413 295.667 33.1013C295.927 33.3612 296.073 33.7138 296.073 34.0814V45.1718C296.073 45.5394 295.927 45.892 295.667 46.1519C295.408 46.4118 295.055 46.5578 294.687 46.5578H283.597C283.23 46.5578 282.877 46.4118 282.617 46.1519C282.357 45.892 282.211 45.5395 282.211 45.1718V34.0814C282.211 33.7137 282.357 33.3612 282.617 33.1013C282.877 32.8413 283.23 32.6953 283.597 32.6953Z" fill="#F7CF6F"/>
<path d="M292.627 36.8479C292.427 36.6478 292.19 36.4891 291.929 36.3808C291.668 36.2725 291.388 36.2168 291.105 36.2168C290.822 36.2168 290.542 36.2725 290.281 36.3808C290.02 36.4891 289.783 36.6478 289.583 36.8479L289.144 37.2866L288.707 36.8479C288.303 36.4441 287.756 36.2174 287.185 36.2174C286.614 36.2174 286.066 36.4441 285.663 36.8479C285.259 37.2516 285.032 37.7992 285.032 38.3702C285.032 38.9411 285.259 39.4887 285.663 39.8924L289.146 43.3756L292.189 40.3311L292.627 39.8924C293.03 39.4883 293.257 38.9409 293.257 38.3702C293.257 37.7994 293.03 37.2519 292.627 36.8479Z" fill="white"/>
<path d="M106.42 223.801H135.492C135.969 223.801 136.441 223.895 136.882 224.077C137.323 224.26 137.724 224.528 138.061 224.865C138.399 225.203 138.667 225.603 138.849 226.044C139.032 226.485 139.126 226.958 139.126 227.435V256.506C139.126 256.984 139.032 257.456 138.849 257.897C138.667 258.338 138.399 258.739 138.061 259.076C137.724 259.413 137.323 259.681 136.882 259.864C136.441 260.046 135.969 260.14 135.492 260.14H106.42C105.456 260.14 104.532 259.757 103.85 259.076C103.169 258.394 102.786 257.47 102.786 256.506V227.435C102.786 226.471 103.169 225.547 103.85 224.865C104.532 224.184 105.456 223.801 106.42 223.801Z" fill="#B6E4DF"/>
<path d="M123.48 244.284C122.233 245.419 120.587 246.012 118.902 245.933C117.218 245.855 115.634 245.111 114.498 243.865C113.362 242.619 112.767 240.973 112.845 239.288C112.922 237.604 113.665 236.019 114.91 234.882C116.155 233.745 117.8 233.149 119.485 233.225C121.169 233.301 122.755 234.043 123.893 235.287C125.031 236.531 125.628 238.176 125.553 239.861C125.479 241.545 124.738 243.131 123.495 244.27L123.48 244.284Z" stroke="white" stroke-width="2.323" stroke-linecap="round" stroke-linejoin="round"/>
<path d="M123.882 245.123L128.349 249.746" stroke="white" stroke-width="2.323" stroke-linecap="round" stroke-linejoin="round"/>
</svg>
