<?xml version="1.0" encoding="iso-8859-1"?>
<!-- Uploaded to: SVG Repo, www.svgrepo.com, Generator: SVG Repo Mixer Tools -->
<svg fill="#000000" height="800px" width="800px" version="1.1" id="Layer_1" xmlns="http://www.w3.org/2000/svg" xmlns:xlink="http://www.w3.org/1999/xlink" 
	 viewBox="0 0 512 512" xml:space="preserve">
<g>
	<g>
		<g>
			<path d="M256,0C114.617,0,0,114.617,0,256s114.617,256,256,256s256-114.617,256-256S397.383,0,256,0z M256,494.933
				C124.043,494.933,17.067,387.957,17.067,256S124.043,17.067,256,17.067S494.933,124.043,494.933,256S387.957,494.933,256,494.933
				z"/>
			<path d="M146.788,120.195c11.183-2.304,22.813,1.069,31.043,9.305c3.331,3.334,8.734,3.336,12.068,0.005
				c3.334-3.331,3.336-8.734,0.005-12.068c-12.331-12.341-29.807-17.409-46.559-13.957c-4.616,0.951-7.587,5.464-6.636,10.08
				C137.659,118.175,142.172,121.146,146.788,120.195z"/>
			<path d="M334.264,129.487c8.211-8.211,19.811-11.589,30.973-9.32c4.618,0.939,9.123-2.044,10.062-6.663
				c0.939-4.618-2.044-9.123-6.662-10.062c-16.717-3.398-34.14,1.675-46.441,13.976c-3.332,3.332-3.332,8.735,0,12.068
				C325.529,132.82,330.932,132.82,334.264,129.487z"/>
			<path d="M358.4,136.533c-23.563,0-42.667,19.104-42.667,42.667c0,23.563,19.104,42.667,42.667,42.667
				c23.563,0,42.667-19.104,42.667-42.667C401.067,155.637,381.963,136.533,358.4,136.533z M358.4,204.8
				c-14.137,0-25.6-11.463-25.6-25.6s11.463-25.6,25.6-25.6s25.6,11.463,25.6,25.6S372.537,204.8,358.4,204.8z"/>
			<path d="M196.267,179.2c0-23.563-19.104-42.667-42.667-42.667c-23.563,0-42.667,19.104-42.667,42.667
				c0,23.563,19.104,42.667,42.667,42.667C177.163,221.867,196.267,202.763,196.267,179.2z M153.6,204.8
				c-14.137,0-25.6-11.463-25.6-25.6s11.463-25.6,25.6-25.6c14.137,0,25.6,11.463,25.6,25.6S167.737,204.8,153.6,204.8z"/>
			<path d="M341.722,312.876c-58.201-40.227-137.85-25.687-178.075,32.512c-2.68,3.877-1.709,9.192,2.168,11.872
				c3.877,2.68,9.192,1.709,11.872-2.168c34.866-50.445,103.884-63.045,154.332-28.177c3.877,2.68,9.192,1.709,11.872-2.168
				C346.57,320.871,345.599,315.556,341.722,312.876z"/>
		</g>
	</g>
</g>
</svg>